<?xml version="1.0" encoding="UTF-8"?><svg id="Layer_2" xmlns="http://www.w3.org/2000/svg" viewBox="0 0 273.44 88.34"><defs><style>.cls-1{fill:#403431;}</style></defs><g id="Layer_1-2"><path class="cls-1" d="M92.25,48.3h3.8v28.93c0,3.36-1.19,4.54-4.54,4.54h-5.64v4.68h5.64c5.95,0,9.23-3.28,9.23-9.23v-33.62h-8.48v4.68Z"/><path class="cls-1" d="M264.21,43.62h-16.19v27.8h4.68v-23.12h11.5c3.36,0,4.54,1.19,4.54,4.55v18.57h4.68v-18.57c0-5.95-3.28-9.23-9.23-9.23Z"/><path class="cls-1" d="M147.32,71.85c.95.64,2.41.96,3.84.96,1.35,0,2.69-.29,3.57-.87,4.29-2.83,12.42-10.69,12.42-10.69l-.04-19.63-4.68,5,.03,12.65c-1.9,1.8-7.11,6.66-10.23,8.72-.46.2-1.9.17-2.3-.03-3.2-2.14-8.33-6.92-10.2-8.7v-15.64h-4.69v17.63s7.98,7.72,12.27,10.6Z"/><path class="cls-1" d="M105.02,52.85v9.34c0,5.95,3.28,9.23,9.23,9.23h16.67v-27.8h-16.67c-5.95,0-9.23,3.28-9.23,9.23ZM126.24,66.74h-11.99c-3.35,0-4.54-1.19-4.54-4.54v-9.34c0-3.35,1.19-4.54,4.54-4.54h11.99v18.43Z"/><path class="cls-1" d="M180.53,71.42h16.67v-27.8h-16.67c-5.95,0-9.23,3.28-9.23,9.23v9.34c0,5.95,3.28,9.23,9.23,9.23ZM175.99,52.85c0-3.35,1.19-4.54,4.54-4.54h11.99v18.43h-11.99c-3.35,0-4.54-1.19-4.54-4.54v-9.34Z"/><rect class="cls-1" x="96.15" y="35.31" width="4.46" height="4.4"/><rect class="cls-1" x="235.28" y="35.31" width="4.46" height="4.4"/><polygon class="cls-1" points="243.65 66.74 239.85 66.74 239.85 43.58 232.14 43.58 232.14 48.27 235.17 48.27 235.17 66.74 231.37 66.74 231.37 71.42 243.65 71.42 243.65 66.74"/><path class="cls-1" d="M228.13,56.32s0-1.8-.77-2.95c-1.76-2.61-6.1-6.72-8.44-8.83,2.02-2.19,3.66-4.06,4.28-5.01.74-1.13.73-2.56.73-2.56v-3.17c0-5.95-3.23-9.23-9.18-9.23h-12.49v46.85h16.67c5.95,0,9.23-3.28,9.23-9.24l-.04-5.86ZM206.96,29.25h7.8c3.36,0,4.54,1.19,4.54,4.54v2.82c0,.22-.03.34-.08.44-1.27,1.82-7.07,7.92-12.27,13.23v-21.03ZM218.94,66.74h-11.99v-9.78c1.57-1.58,5.26-5.32,8.76-9,2.41,2.18,6.23,5.85,7.63,7.91.13.24.1.45.1,1.35l.03,4.98c0,3.35-1.19,4.54-4.54,4.54Z"/><polygon class="cls-1" points="120.15 81.25 122.19 81.25 122.19 86.5 123.32 86.5 123.32 81.25 125.36 81.25 125.36 80.28 120.15 80.28 120.15 81.25"/><path class="cls-1" d="M128.67,81.93c-.78,0-1.32.46-1.54.89h-.02s.02-.16.02-.38v-2.16h-1.11v6.22h1.11v-2.05c0-.21.02-.4.07-.58.17-.54.62-.93,1.21-.93s.71.37.71.91v2.65h1.1v-2.87c0-1.18-.56-1.7-1.55-1.7Z"/><path class="cls-1" d="M133.34,81.93c-1.33,0-2.27.96-2.27,2.34,0,1.27.92,2.34,2.4,2.34,1.11,0,1.8-.64,1.8-.64l-.43-.8s-.57.49-1.29.49c-.67,0-1.27-.4-1.34-1.18h3.08s.03-.3.03-.43c0-1.18-.69-2.12-1.98-2.12ZM132.24,83.72c.11-.58.5-.93,1.07-.93.49,0,.87.32.88.93h-1.95Z"/><path class="cls-1" d="M142.51,83.87c0,.37.06.96.06.96h-.02s-.28-.6-.52-.96l-2.36-3.59h-1.13v6.22h1.13v-3.58c0-.37-.06-.96-.06-.96h.02s.28.6.52.96l2.36,3.58h1.12v-6.22h-1.12v3.59Z"/><path class="cls-1" d="M147.16,81.93c-1.36,0-2.45.97-2.45,2.34s1.1,2.34,2.46,2.34,2.45-.96,2.45-2.34-1.1-2.34-2.46-2.34ZM147.17,85.66c-.73,0-1.33-.56-1.33-1.39s.6-1.39,1.33-1.39,1.32.57,1.32,1.39-.6,1.39-1.32,1.39Z"/><path class="cls-1" d="M151.59,83.12h-.02s.02-.15.02-.32v-.77h-1.07v4.47h1.11v-1.77c0-.26.03-.51.1-.73.21-.67.74-.94,1.22-.94.15,0,.26.02.26.02v-1.1s-.1-.02-.2-.02c-.68,0-1.22.51-1.42,1.15Z"/><path class="cls-1" d="M158.48,84.97c-.06.24-.1.47-.1.47h-.02s-.03-.24-.1-.47l-.82-2.93h-.99l-.82,2.93c-.06.24-.1.47-.1.47h-.02s-.03-.24-.09-.47l-.78-2.94h-1.17l1.37,4.47h1.24l.75-2.55c.07-.24.1-.48.1-.48h.02s.04.25.11.48l.75,2.55h1.24l1.36-4.47h-1.16l-.78,2.94Z"/><path class="cls-1" d="M163.11,81.93c-1.33,0-2.27.96-2.27,2.34,0,1.27.92,2.34,2.4,2.34,1.11,0,1.8-.64,1.8-.64l-.43-.8s-.57.49-1.29.49c-.67,0-1.27-.4-1.34-1.18h3.08s.03-.3.03-.43c0-1.18-.69-2.12-1.98-2.12ZM162.02,83.72c.11-.58.5-.93,1.07-.93.49,0,.87.32.88.93h-1.95Z"/><path class="cls-1" d="M169.04,82.37c0,.07,0,.12,0,.12h-.03s-.35-.57-1.32-.57c-1.29,0-1.98,1-1.98,2.23s.73,2.26,2.01,2.26c.6,0,.98-.21,1.24-.6h.02s-.02.13-.02.24v.26c0,.8-.58,1.09-1.26,1.09s-1.24-.29-1.24-.29l-.33.85c.43.23,1.03.39,1.59.39,1.17,0,2.36-.58,2.36-2.11v-4.2h-1.04v.34ZM167.96,85.48c-.72,0-1.12-.58-1.12-1.36s.38-1.24,1.05-1.24c.6,0,1.1.27,1.1,1.29s-.5,1.31-1.03,1.31Z"/><rect class="cls-1" x="171.31" y="80.28" width="1.1" height=".99"/><rect class="cls-1" x="171.31" y="82.03" width="1.11" height="4.47"/><path class="cls-1" d="M175.32,81.93c-1.06,0-1.75.55-1.75.55l.42.8s.59-.43,1.23-.43c.49,0,.86.2.86.79v.06h-.15c-.73,0-2.65.1-2.65,1.52,0,.89.72,1.39,1.52,1.39,1.02,0,1.37-.79,1.36-.79h.02s-.02.14-.02.32v.37h1.03v-2.8c0-1.13-.68-1.78-1.86-1.78ZM176.08,84.56c0,.54-.42,1.17-1.01,1.17-.46,0-.67-.28-.67-.58,0-.62.92-.7,1.49-.7h.19v.11Z"/><path class="cls-1" d="M180.99,81.93c-.9,0-1.39.55-1.59.93h-.02s.02-.14.02-.31v-.52h-1.07v4.47h1.11v-2.05c0-.21.02-.41.08-.6.17-.53.6-.91,1.2-.91s.71.37.71.91v2.65h1.1v-2.87c0-1.18-.56-1.7-1.55-1.7Z"/><path class="cls-1" d="M186.58,81.25h1.6v3.39c0,.68-.38.93-.8.93s-.82-.25-.82-.98v-.29h-1.12v.36c0,1.34.97,1.95,1.93,1.95s1.94-.59,1.94-1.95v-4.38h-2.73v.97Z"/><path class="cls-1" d="M192.3,81.93c-1.06,0-1.75.55-1.75.55l.42.8s.59-.43,1.23-.43c.49,0,.86.2.86.79v.06h-.15c-.73,0-2.65.1-2.65,1.52,0,.89.72,1.39,1.52,1.39,1.02,0,1.37-.79,1.36-.79h.02s-.02.14-.02.32v.37h1.02v-2.8c0-1.13-.68-1.78-1.86-1.78ZM193.07,84.56c0,.54-.42,1.17-1.01,1.17-.46,0-.67-.28-.67-.58,0-.62.92-.7,1.49-.7h.19v.11Z"/><path class="cls-1" d="M197.14,84.8c-.09.26-.15.68-.16.68h-.02s-.07-.41-.16-.68l-.93-2.77h-1.17l1.62,4.47h1.31l1.6-4.47h-1.17l-.93,2.77Z"/><path class="cls-1" d="M201.53,81.93c-1.06,0-1.75.55-1.75.55l.42.8s.59-.43,1.23-.43c.49,0,.86.2.86.79v.06h-.15c-.73,0-2.65.1-2.65,1.52,0,.89.72,1.39,1.52,1.39,1.02,0,1.37-.79,1.36-.79h.02s-.02.14-.02.32v.37h1.03v-2.8c0-1.13-.68-1.78-1.86-1.78ZM202.3,84.56c0,.54-.42,1.17-1.01,1.17-.46,0-.67-.28-.67-.58,0-.62.92-.7,1.49-.7h.19v.11Z"/><path class="cls-1" d="M210.66,84.26c0,.84-.55,1.31-1.38,1.31s-1.38-.47-1.38-1.31v-3.99h-1.13v3.99c0,1.39,1.01,2.34,2.51,2.34s2.51-.95,2.51-2.34v-3.99h-1.13v3.98Z"/><path class="cls-1" d="M214,83.28c0-.28.28-.4.57-.4.68,0,1.1.39,1.1.39l.41-.82s-.49-.51-1.5-.51-1.71.48-1.71,1.31c0,1.44,2.17,1.35,2.17,2.02,0,.26-.27.4-.59.4-.73,0-1.22-.49-1.22-.49l-.51.78s.62.66,1.73.66,1.71-.6,1.71-1.34c0-1.44-2.17-1.36-2.17-1.99Z"/><path class="cls-1" d="M219.03,81.93c-1.33,0-2.27.96-2.27,2.34,0,1.27.92,2.34,2.4,2.34,1.11,0,1.8-.64,1.8-.64l-.43-.8s-.57.49-1.29.49c-.67,0-1.27-.4-1.34-1.18h3.08s.03-.3.03-.43c0-1.18-.69-2.12-1.98-2.12ZM217.93,83.72c.11-.58.5-.93,1.07-.93.49,0,.87.32.88.93h-1.95Z"/><path class="cls-1" d="M223,83.12h-.02s.02-.15.02-.32v-.77h-1.07v4.47h1.11v-1.77c0-.26.03-.51.1-.73.21-.67.74-.94,1.22-.94.15,0,.26.02.26.02v-1.1s-.1-.02-.2-.02c-.68,0-1.22.51-1.42,1.15Z"/><path class="cls-1" d="M231.12,84.2h.95v.73s-.62.65-1.56.65c-1.17,0-2.09-.88-2.09-2.23,0-1.17.74-2.14,2.14-2.14.99,0,1.66.6,1.66.6l.56-.84s-.79-.79-2.31-.79c-1.85,0-3.21,1.4-3.21,3.21,0,1.95,1.41,3.22,3.05,3.22,1.16,0,1.81-.67,1.81-.67h.02s0,.13,0,.26v.3h.96v-3.28h-1.97v.97Z"/><path class="cls-1" d="M235.24,83.12h-.02s.02-.15.02-.32v-.77h-1.07v4.47h1.11v-1.77c0-.26.03-.51.1-.73.21-.67.74-.94,1.22-.94.15,0,.26.02.26.02v-1.1s-.1-.02-.2-.02c-.68,0-1.22.51-1.42,1.15Z"/><path class="cls-1" d="M239.74,81.93c-1.36,0-2.45.97-2.45,2.34s1.1,2.34,2.46,2.34,2.45-.96,2.45-2.34-1.1-2.34-2.46-2.34ZM239.74,85.66c-.73,0-1.33-.56-1.33-1.39s.6-1.39,1.33-1.39,1.32.57,1.32,1.39-.6,1.39-1.32,1.39Z"/><path class="cls-1" d="M246.09,84.08c0,.8-.45,1.51-1.25,1.51-.55,0-.69-.37-.69-.91v-2.65h-1.11v2.87c0,1.22.6,1.7,1.55,1.7.76,0,1.33-.46,1.55-.93h.02s-.02.14-.02.32v.51h1.07v-4.47h-1.11v2.05Z"/><path class="cls-1" d="M250.89,81.93c-1.05,0-1.44.74-1.44.74h-.02s.02-.14.02-.31v-.32h-1.02v6.22h1.11v-1.88c0-.23-.02-.39-.02-.39h.02s.39.61,1.28.61c1.17,0,2.04-.92,2.04-2.34s-.77-2.34-1.98-2.34ZM250.63,85.67c-.74,0-1.11-.68-1.11-1.38,0-.99.54-1.41,1.12-1.41.66,0,1.11.55,1.11,1.4s-.51,1.38-1.12,1.38Z"/><path class="cls-1" d="M47.61,20.8c-2.71-5.75-5.64-11.49-8.6-16.97.32-.4.52-.91.52-1.46,0-1.31-1.06-2.37-2.37-2.37s-2.37,1.06-2.37,2.37c0,.59.22,1.12.57,1.53-3.07,6.03-6.14,12.39-8.98,18.63h0c-8.08,1.12-18.37-7.71-18.37-7.71,3.6,11.14,10.6,14.91,14.66,16.15h0c-2.04,4.81-3.88,9.42-5.38,13.62.48-.19.95-.37,1.41-.54-.56,1.61-1.1,3.2-1.61,4.78-2.05,2.22-3.32,4.68-3.79,7.27l-4.47,2.88-6.16,3.97c-1.21.84-2.05,2.04-2.53,3.54v.12c-.37,1.74-.05,3.18,1,4.38h.05c4.06,4.92,4.98,7.49,6.51,13.43,0,0,.09,2.03.68,2.73l3.29-3.61c.33-3.22,2.69-16.76,3.06-18.44.21.37.45.71.71,1.06.34.45.7.9,1.08,1.34.21.24.42.48.69.72.58.54,1.21,1.02,1.89,1.5,2.61,1.8,5.54,2.79,8.77,2.95,1.08.05,2.19,0,3.33-.13,4.58-.54,8.32-2.4,11.32-5.53l.47-.56.79-.94.26-.36c.47-.78.95-1.5,1.32-2.28.16-.3.26-.66.42-.96.37-.9.58-1.8.74-2.76v-.18c.05-.3.05-.66.1-1.02.42.06.88.18,1.39.33.19.06.42.15.62.22.34.12.69.24,1.06.39.07.03.12.04.19.07.95.4,2.05.92,3.19,1.53.06.04.12.06.18.09,1.1.6,2.05,1.08,2.79,1.5h0c.8.41,1.06.72,1.32.9.43,2.22,1.96,13.75,2.31,15.89l3.13,2.12c-.24-1.5-1.96-14.84-2.24-16.38l15.5,4.56c1.32.24,2.1.08,2.77-.54.62-.82.7-1.75.28-3.19l-1.39-8.47c.13-.05.26-.08.39-.13.72-.28,1.32-.64,1.73-1.35.36-.63.52-1.55.29-2.26-.05-.17-.12-.33-.2-.49.34-.36.77-1.25.87-1.7.13-.58-.06-1.55-.26-2.12.52-.38.67-1.6.67-2.23,0-1.53-1.29-2.47-2.24-2.97.39-3.46,2.79-5.71,3.77-9.11,1.67-5.85-7.69-7.95-8.71-2.05-.48,2.77-.42,6.67-.38,9.51-2.03-.3-4.22-.13-6.84.94-1.1.45-1.73,1.49-1.71,2.29.05,2.29,2.07,2.59,2.12,2.59-.1.05-2.46.98-1.43,3.56.28.71,1.32,1.38,2.03,1.59-.06.13-.11.27-.15.41-.36,1.59.47,3.11,2.02,3.6.97.31,1.98.49,3,.57l.77,6.06-14.08-4.71c-1.05-4.86-2.34-9.77-3.87-14.73.59.16,1.17.32,1.72.5-1.41-4.47-3.22-9.23-5.26-14.09h0c4.18-1.11,12.59-5.04,16.76-17.96,0,0-12.27,10.53-21.18,8.1ZM13.15,62.71c-.58,2.22-1.05,4.5-1.47,6.73-.69.54-1.47.78-2.32.66l-4.69-2.1-.16-.24.1-.12,8.53-5.05v.12ZM47.67,39.7c0-.5.4-.9.9-.9s.9.4.9.9-.4.9-.9.9-.9-.4-.9-.9ZM53.39,40.07c.42,0,.75.34.75.75s-.34.75-.75.75-.75-.34-.75-.75.34-.75.75-.75ZM43.15,37.87c.57,0,1.03.46,1.03,1.03s-.46,1.03-1.03,1.03-1.03-.46-1.03-1.03.46-1.03,1.03-1.03ZM38.26,38.41c0,.64-.52,1.15-1.15,1.15s-1.15-.52-1.15-1.15.52-1.15,1.15-1.15,1.15.52,1.15,1.15ZM35.54,8.19c.43,0,.77.34.77.77s-.34.77-.77.77-.77-.34-.77-.77.34-.77.77-.77ZM34.18,12.98c.5,0,.9.4.9.9s-.4.9-.9.9-.9-.4-.9-.9.4-.9.9-.9ZM32.76,18.41c.57,0,1.03.46,1.03,1.03s-.46,1.03-1.03,1.03-1.03-.46-1.03-1.03.46-1.03,1.03-1.03ZM31.86,24.57c.64,0,1.15.52,1.15,1.15s-.52,1.15-1.15,1.15-1.15-.52-1.15-1.15.52-1.15,1.15-1.15ZM31.13,30.82c.67,0,1.22.55,1.22,1.22s-.54,1.22-1.22,1.22-1.22-.55-1.22-1.22.54-1.22,1.22-1.22ZM30.87,37.02c.71,0,1.28.57,1.28,1.28s-.57,1.28-1.28,1.28-1.28-.57-1.28-1.28.57-1.28,1.28-1.28ZM26.66,39.26c0,.64-.52,1.15-1.15,1.15s-1.15-.52-1.15-1.15.52-1.15,1.15-1.15,1.15.52,1.15,1.15ZM20.9,39.59c.57,0,1.03.46,1.03,1.03s-.46,1.03-1.03,1.03-1.03-.46-1.03-1.03.46-1.03,1.03-1.03ZM32.02,70.05c-8,1.41-15.45-2.89-16.63-9.6-1.18-6.71,4.35-13.29,12.35-14.7,8-1.41,15.45,2.89,16.63,9.6,1.18,6.71-4.35,13.29-12.35,14.7Z"/></g></svg>