<svg width="129" height="11" viewBox="0 0 129 11" fill="none" xmlns="http://www.w3.org/2000/svg">
    <path d="M64.33 0L59.22 5.11H64.33V0Z" fill="#FFD300"/>
    <path d="M59.22 5.11L64.33 10.22V5.11H59.22Z" fill="#F9A51A"/>
    <path d="M69.44 5.11L64.33 0V5.11H69.44Z" fill="#FBAE17"/>
    <path d="M64.33 5.11V10.22L69.44 5.11H64.33Z" fill="#F6921E"/>
    <path d="M83.56 2L78.45 5.11H83.56V2Z" fill="#FFD300"/>
    <path d="M78.45 5.11L83.56 8.22V5.11H78.45Z" fill="#F9A51A"/>
    <path d="M128.67 5.11L83.56 2V5.11H128.67Z" fill="#FBAE17"/>
    <path d="M83.56 5.11V8.22L128.67 5.11H83.56Z" fill="#F6921E"/>
    <path d="M45.11 2L0 5.11H45.11V2Z" fill="#FFD300"/>
    <path d="M0 5.11L45.11 8.22V5.11H0Z" fill="#F9A51A"/>
    <path d="M50.22 5.11L45.11 2V5.11H50.22Z" fill="#FBAE17"/>
    <path d="M45.11 5.11V8.22L50.22 5.11H45.11Z" fill="#F6921E"/>
</svg>
