<?xml version="1.0" encoding="UTF-8"?><svg id="Layer_2" xmlns="http://www.w3.org/2000/svg" viewBox="0 0 207.96 16.51"><defs><style>.cls-1{fill:#fbae17;}.cls-2{fill:#f9a51a;}.cls-3{fill:#f6921e;}.cls-4{fill:#ffd300;}</style></defs><g id="Layer_1-2"><polygon class="cls-4" points="103.98 0 95.72 8.26 103.98 8.26 103.98 0"/><polygon class="cls-2" points="95.72 8.26 103.98 16.51 103.98 8.26 95.72 8.26"/><polygon class="cls-1" points="112.24 8.26 103.98 0 103.98 8.26 112.24 8.26"/><polygon class="cls-3" points="103.98 8.26 103.98 16.51 112.24 8.26 103.98 8.26"/><polygon class="cls-4" points="135.05 3.23 126.79 8.26 135.05 8.26 135.05 3.23"/><polygon class="cls-2" points="126.79 8.26 135.05 13.28 135.05 8.26 126.79 8.26"/><polygon class="cls-1" points="207.96 8.26 135.05 3.23 135.05 8.26 207.96 8.26"/><polygon class="cls-3" points="135.05 8.26 135.05 13.28 207.96 8.26 135.05 8.26"/><polygon class="cls-4" points="72.91 3.23 0 8.26 72.91 8.26 72.91 3.23"/><polygon class="cls-2" points="0 8.26 72.91 13.28 72.91 8.26 0 8.26"/><polygon class="cls-1" points="81.16 8.26 72.91 3.23 72.91 8.26 81.16 8.26"/><polygon class="cls-3" points="72.91 8.26 72.91 13.28 81.16 8.26 72.91 8.26"/></g></svg>