<?xml version="1.0" encoding="UTF-8"?><svg id="Layer_2" xmlns="http://www.w3.org/2000/svg" viewBox="0 0 636.84 718.09"><defs><style>.cls-1{fill:#fbae17;}.cls-2{fill:#f9a51a;}.cls-3{fill:#f6921e;}.cls-4{fill:#ffd300;}.cls-5{fill:#b00a32;}</style></defs><g id="Layer_1-2"><rect class="cls-2" x="319.07" y="34.93" width="10.63" height="27.18"/><rect class="cls-3" x="308.44" y="34.93" width="10.63" height="27.18"/><polygon class="cls-4" points="319.07 0 296.27 22.8 319.07 22.8 319.07 0"/><polygon class="cls-2" points="296.27 22.8 319.07 45.61 319.07 22.8 296.27 22.8"/><polygon class="cls-1" points="341.87 22.8 319.07 0 319.07 22.8 341.87 22.8"/><polygon class="cls-3" points="319.07 22.8 319.07 45.61 341.87 22.8 319.07 22.8"/><rect class="cls-5" x="35.53" y="67.24" width="567.53" height="600.03"/><polygon class="cls-2" points="35.53 667.27 45.69 678.71 45.69 667.27 35.53 667.27"/><polygon class="cls-3" points="45.69 667.27 45.69 678.71 55.86 667.27 45.69 667.27"/><polygon class="cls-2" points="81.13 667.27 91.29 678.71 91.29 667.27 81.13 667.27"/><polygon class="cls-3" points="91.29 667.27 91.29 678.71 101.46 667.27 91.29 667.27"/><polygon class="cls-2" points="126.73 667.27 136.89 678.71 136.89 667.27 126.73 667.27"/><polygon class="cls-3" points="136.89 667.27 136.89 678.71 147.06 667.27 136.89 667.27"/><polygon class="cls-2" points="172.33 667.27 182.49 678.71 182.49 667.27 172.33 667.27"/><polygon class="cls-3" points="182.49 667.27 182.49 678.71 192.66 667.27 182.49 667.27"/><polygon class="cls-2" points="217.93 667.27 228.09 678.71 228.09 667.27 217.93 667.27"/><polygon class="cls-3" points="228.09 667.27 228.09 678.71 238.26 667.27 228.09 667.27"/><polygon class="cls-2" points="263.53 667.27 273.69 678.71 273.69 667.27 263.53 667.27"/><polygon class="cls-3" points="273.69 667.27 273.69 678.71 283.86 667.27 273.69 667.27"/><polygon class="cls-2" points="354.73 667.27 364.89 678.71 364.89 667.27 354.73 667.27"/><polygon class="cls-3" points="364.89 667.27 364.89 678.71 375.06 667.27 364.89 667.27"/><polygon class="cls-2" points="400.33 667.27 410.49 678.71 410.49 667.27 400.33 667.27"/><polygon class="cls-3" points="410.49 667.27 410.49 678.71 420.66 667.27 410.49 667.27"/><polygon class="cls-2" points="445.93 667.27 456.1 678.71 456.1 667.27 445.93 667.27"/><polygon class="cls-3" points="456.1 667.27 456.1 678.71 466.26 667.27 456.1 667.27"/><polygon class="cls-2" points="491.53 667.27 501.7 678.71 501.7 667.27 491.53 667.27"/><polygon class="cls-3" points="501.7 667.27 501.7 678.71 511.86 667.27 501.7 667.27"/><polygon class="cls-2" points="537.13 667.27 547.3 678.71 547.3 667.27 537.13 667.27"/><polygon class="cls-3" points="547.3 667.27 547.3 678.71 557.46 667.27 547.3 667.27"/><polygon class="cls-2" points="582.73 667.27 592.9 678.71 592.9 667.27 582.73 667.27"/><polygon class="cls-3" points="592.9 667.27 592.9 678.71 603.06 667.27 592.9 667.27"/><polygon class="cls-1" points="603.06 718.09 592.9 678.71 592.9 718.09 603.06 718.09"/><polygon class="cls-4" points="592.9 718.09 592.9 678.71 582.73 718.09 592.9 718.09"/><polygon class="cls-1" points="557.46 718.09 547.3 678.71 547.3 718.09 557.46 718.09"/><polygon class="cls-4" points="547.3 718.09 547.3 678.71 537.13 718.09 547.3 718.09"/><polygon class="cls-1" points="511.86 718.09 501.7 678.71 501.7 718.09 511.86 718.09"/><polygon class="cls-4" points="501.7 718.09 501.7 678.71 491.53 718.09 501.7 718.09"/><polygon class="cls-1" points="466.26 718.09 456.1 678.71 456.1 718.09 466.26 718.09"/><polygon class="cls-4" points="456.1 718.09 456.1 678.71 445.93 718.09 456.1 718.09"/><polygon class="cls-1" points="420.66 718.09 410.49 678.71 410.49 718.09 420.66 718.09"/><polygon class="cls-4" points="410.49 718.09 410.49 678.71 400.33 718.09 410.49 718.09"/><polygon class="cls-1" points="375.06 718.09 364.89 678.71 364.89 718.09 375.06 718.09"/><polygon class="cls-4" points="364.89 718.09 364.89 678.71 354.73 718.09 364.89 718.09"/><polygon class="cls-2" points="306.74 667.27 316.9 678.71 316.9 667.27 306.74 667.27"/><polygon class="cls-3" points="316.9 667.27 316.9 678.71 327.07 667.27 316.9 667.27"/><polygon class="cls-1" points="327.07 718.09 316.9 678.71 316.9 718.09 327.07 718.09"/><polygon class="cls-4" points="316.9 718.09 316.9 678.71 306.74 718.09 316.9 718.09"/><polygon class="cls-1" points="283.86 718.09 273.69 678.71 273.69 718.09 283.86 718.09"/><polygon class="cls-4" points="273.69 718.09 273.69 678.71 263.53 718.09 273.69 718.09"/><polygon class="cls-1" points="238.26 718.09 228.09 678.71 228.09 718.09 238.26 718.09"/><polygon class="cls-4" points="228.09 718.09 228.09 678.71 217.93 718.09 228.09 718.09"/><polygon class="cls-1" points="192.66 718.09 182.49 678.71 182.49 718.09 192.66 718.09"/><polygon class="cls-4" points="182.49 718.09 182.49 678.71 172.33 718.09 182.49 718.09"/><polygon class="cls-1" points="147.06 718.09 136.89 678.71 136.89 718.09 147.06 718.09"/><polygon class="cls-4" points="136.89 718.09 136.89 678.71 126.73 718.09 136.89 718.09"/><polygon class="cls-1" points="101.46 718.09 91.29 678.71 91.29 718.09 101.46 718.09"/><polygon class="cls-4" points="91.29 718.09 91.29 678.71 81.13 718.09 91.29 718.09"/><polygon class="cls-1" points="55.86 718.09 45.69 678.71 45.69 718.09 55.86 718.09"/><polygon class="cls-4" points="45.69 718.09 45.69 678.71 35.53 718.09 45.69 718.09"/><path class="cls-4" d="M346.77,327.88c-.27-.19-.64.03-.59.36.22,1.51.62,4.48,1.03,7.57.02.12.09.23.2.29.61.31,1.27.43,1.97.34.04,0,.08-.02.11-.03l5.29-2.33c.07-.03.12-.08.16-.13l.12-.18-.12-.14-8.17-5.75Z"/><path class="cls-4" d="M308.65,305.87c-9.11,1.6-15.41,9.1-14.06,16.74,1.34,7.64,9.82,12.53,18.93,10.93s15.41-9.1,14.06-16.74c-1.34-7.64-9.82-12.53-18.93-10.93Z"/><path class="cls-4" d="M316.28,251.84c-34.02,0-61.61,27.58-61.61,61.61s27.58,61.61,61.61,61.61,61.61-27.58,61.61-61.61-27.58-61.61-61.61-61.61ZM338.45,293.39s-.98-3.66,2.02-5.93c2.99-2.27,2.9-7.07,2.9-7.07,7.79,15.4-4.92,13-4.92,13ZM337.82,286.86s-2.41-2.65-1.31-5.27c1.11-2.63-1.2-6.42-1.2-6.42,12.83,10.13,2.51,11.7,2.51,11.7ZM303.34,275.17s-2.31,3.8-1.2,6.42c1.11,2.63-1.31,5.27-1.31,5.27,0,0-10.32-1.56,2.51-11.7ZM295.28,280.39s-.09,4.8,2.9,7.07c2.99,2.27,2.02,5.93,2.02,5.93,0,0-12.7,2.4-4.92-13ZM305.34,352.04c-.98-.39-1.07-2.13-.13-2.68,3.66-2.13,16.74-8.6,27.01-23.46.35-.51.44-.17.12.41-11.68,21.12-22.98,24.92-24.32,25.44-1.51.58-2.51.36-2.69.29ZM328.46,349.96c-2.44.74-24.35,8.93-11.7.55,9.03-5.99,14.75-17.91,17.62-25.35.32-.83,1.49-.49,1.37.4-2.3,17.06-6.13,23.05-6.93,24.15-.09.13-.22.21-.36.26ZM334.8,350.68c-.03.13-.06.21-.11.26-.72.74-7.3,7.42-3.49-.06,2.68-5.27,4.71-15.88,5.56-23.33.09-.83.44-.49.4.4-.67,17.06-2.13,21.64-2.36,22.74ZM358.97,337.46h-.06c-4.7,5.6-5.78,8.51-7.55,15.25,0,.02-.01.05-.01.07-.01.24-.11,1.7-.51,2.61-.11.25-.44.3-.62.1l-3.39-3.65c-.06-.06-.09-.13-.1-.21l-1.17-7.66c-.39-2.38-2.6-15.45-3.15-18.31-.02-.09-.06-.17-.14-.22-.27-.21-.6-.53-1.4-.94h0c-.84-.48-1.92-1.03-3.17-1.71-.07-.04-.13-.06-.2-.1-1.3-.7-2.55-1.29-3.63-1.75-.08-.03-.14-.05-.22-.08-.43-.18-.82-.31-1.21-.45-.23-.08-.49-.18-.71-.25-.42-.13-.81-.23-1.17-.31-.22-.05-.43.12-.45.34-.02.27-.03.52-.08.75v.21c-.18,1.09-.42,2.12-.84,3.15-.18.34-.3.75-.48,1.09-.42.88-.96,1.71-1.49,2.58,0,0-.01.02-.02.02l-.28.39s-.01.01-.02.02l-.89,1.06-.53.62s-.01.01-.02.02c-3.42,3.55-7.66,5.67-12.88,6.28-1.3.15-2.57.2-3.8.15-3.68-.18-7.02-1.31-9.99-3.36-.78-.55-1.5-1.09-2.16-1.71-.3-.28-.54-.55-.78-.82-.44-.5-.85-1.01-1.23-1.53-.1-.14-.21-.28-.31-.43-.19-.27-.61-.18-.68.14-.73,3.84-2.91,16.47-3.28,19.95,0,.08-.04.15-.1.21l-4.04,4.44c-.27.3-.75.02-.64-.36l1.67-5.61s0-.02,0-.04c.42-2.22,3.13-15.09,4.31-20.33l-15.06,8.84c-1.41.64-2.33.69-3.27.21-.93-.73-1.28-1.73-1.22-3.44l-.82-9.74c-.16-.01-.32-.01-.47-.03-.89-.11-1.66-.14-2.31-.8-.58-.59-.84-.91-1.52-2.44l-1.71-6.68c-.43-1.68.75-3.1,1.68-3.92l4.71-3.74s.07-.08.12-.24c.2-1.37.54-3.11.29-5.5-.65-6.09,1.2-6.06,1.6-6.09,1.77-.14,1.97,4.16,2.12,5.15.08-1.79.56-5.49,1.94-5.51,2.19-.02,2.12,2.98,2.05,5.18-.05,1.51.06,6.07.13,8.79.56.32,1.07.67,1.5,1.02,2.74,2.25-.53,4.12-.14,8.03.15,1.49-.24,2.98-1.1,4.2l-.39.55c-1,.61-1.54.91-2.67,1.28l.84,6.91,13.97-8.9c0-.67.05-1.36.15-1.94.22-1.22.65-3.09,1.17-4.11.86-1.7,1.85-3.16,3.29-4.74.03-.04.06-.08.08-.13.57-1.77,1.18-3.57,1.81-5.37l.97-3.2c-2.42,1.04-5.54.08-8.28-8.03,0,0,3.27,3.08,6.88,2.02,1.29-.38,2.35-.22,3.19.12l.29-.95c.98-3.23,2.15-6.4,3.51-9.5l2.19-4.97c3.23-7.11,6.52-12.07,10.02-18.93l.64-1.17c.56-1.21,2.39-1.2,3-.31l.86,1.21c.6.84,1.14,1.71,1.64,2.6,2.99,5.41,5.13,8.55,7.99,14.63l2.63,5.88c1.59,3.55,2.44,5.56,4.41,11.26.69-.15,1.49-.15,2.4.12,3.6,1.06,6.88-2.02,6.88-2.02-2.5,7.41-5.32,8.85-7.63,8.25l.76,2.92c1.56,5.08,2.59,10.34,3.65,15.37.02.09.07.16.14.22l5.53,4.29s.02.01.03.02l7.14,4.5c1.41.96,2.39,2.32,2.94,4.03v.14c.43,1.98.06,3.62-1.16,4.99Z"/><path class="cls-4" d="M82.36,158.86v42c0,1.68-.28,3.25-.84,4.71-.56,1.46-1.34,2.73-2.34,3.81-1,1.08-2.16,1.93-3.48,2.55-1.32.62-2.74.93-4.26.93v-.54c1.32-.48,2.51-1.31,3.57-2.49,1.06-1.18,1.9-2.57,2.52-4.17.62-1.6.93-3.26.93-4.98v-41.82h3.9ZM78.64,163.24h-.18c-.04-1.04-.43-1.93-1.17-2.67-.74-.74-1.63-1.11-2.67-1.11h-.78v-.6h4.8v4.38ZM82.18,163.24v-4.38h4.8v.6h-.78c-1.04,0-1.93.37-2.67,1.11-.74.74-1.13,1.63-1.17,2.67h-.18Z"/><path class="cls-4" d="M112.3,164.02c2.8,0,5.43.45,7.89,1.35,2.46.9,4.62,2.19,6.48,3.87,1.86,1.68,3.31,3.67,4.35,5.97,1.04,2.3,1.56,4.85,1.56,7.65s-.52,5.35-1.56,7.65c-1.04,2.3-2.49,4.29-4.35,5.97-1.86,1.68-4.02,2.97-6.48,3.87s-5.09,1.35-7.89,1.35-5.42-.45-7.86-1.35c-2.44-.9-4.59-2.19-6.45-3.87-1.86-1.68-3.31-3.67-4.35-5.97-1.04-2.3-1.56-4.85-1.56-7.65s.52-5.35,1.56-7.65,2.49-4.29,4.35-5.97c1.86-1.68,4.01-2.97,6.45-3.87,2.44-.9,5.06-1.35,7.86-1.35ZM112.3,199.9c2.96,0,5.64-.72,8.04-2.16,2.4-1.44,4.3-3.44,5.7-6,1.4-2.56,2.1-5.52,2.1-8.88s-.7-6.37-2.1-8.91c-1.4-2.54-3.3-4.53-5.7-5.97-2.4-1.44-5.08-2.16-8.04-2.16s-5.58.72-7.98,2.16c-2.4,1.44-4.3,3.43-5.7,5.97-1.4,2.54-2.1,5.51-2.1,8.91s.7,6.32,2.1,8.88c1.4,2.56,3.3,4.56,5.7,6,2.4,1.44,5.06,2.16,7.98,2.16Z"/><path class="cls-4" d="M143.02,168.7h-.18c-.04-.92-.45-1.69-1.23-2.31-.78-.62-1.73-.93-2.85-.93h-.84v-.6h5.1v3.84ZM143.02,197.02v3.84h-5.1v-.6h.84c1.12,0,2.07-.32,2.85-.96.78-.64,1.19-1.4,1.23-2.28h.18ZM146.62,164.86v36h-3.78v-36h3.78ZM146.44,168.7v-3.84h5.1l-.06.6h-.78c-1.12,0-2.07.31-2.85.93-.78.62-1.19,1.39-1.23,2.31h-.18ZM146.44,197.02h.18c.04.88.45,1.64,1.23,2.28.78.64,1.73.96,2.85.96h.78l.06.6h-5.1v-3.84Z"/><path class="cls-4" d="M161.38,197.14v3.72h-4.5v-.6h1.02c.92,0,1.7-.3,2.34-.9.64-.6.96-1.34.96-2.22h.18ZM161.26,163.96l2.58,3.36.06,33.54h-2.7v-29.4c0-2.04-.18-4.54-.54-7.5h.6ZM161.26,163.96l33.24,31.32.6,6.42-33.24-31.5-.6-6.24ZM163.9,197.14c0,.88.33,1.62.99,2.22.66.6,1.43.9,2.31.9h1.02v.6h-4.5v-3.72h.18ZM192.46,168.58c-.04-.88-.38-1.62-1.02-2.22-.64-.6-1.42-.9-2.34-.9h-1.02v-.6h4.5v3.72h-.12ZM195.1,164.86v29.16c0,1.28.04,2.51.12,3.69.08,1.18.22,2.51.42,3.99h-.54l-2.64-3.18v-33.66h2.64ZM194.92,168.58v-3.72h4.5v.6h-1.02c-.88,0-1.65.3-2.31.9-.66.6-.99,1.34-.99,2.22h-.18Z"/><path class="cls-4" d="M217.72,157.72c.4.16,1.01.32,1.83.48.82.16,1.73.3,2.73.42,1,.12,1.92.18,2.76.18l-7.32.66v-1.74ZM252.46,158.8v1.8h-34.74v-1.8h34.74ZM221.86,160.42v.18c-1,.04-1.84.4-2.52,1.08s-1.02,1.52-1.02,2.52v1.02l-.6.06v-4.86h4.14ZM233.32,196.48v4.38h-4.8v-.6h.78c1.04,0,1.93-.37,2.67-1.11s1.13-1.63,1.17-2.67h.18ZM237.03,159.04v41.82h-3.9v-41.82h3.9ZM236.86,196.48h.18c.04,1.04.43,1.93,1.17,2.67.74.74,1.63,1.11,2.67,1.11h.78v.6h-4.8v-4.38ZM252.46,157.72v1.74l-7.32-.66c.88,0,1.81-.06,2.79-.18.98-.12,1.89-.26,2.73-.42.84-.16,1.44-.32,1.8-.48ZM252.46,160.42v4.86l-.6-.06v-1.02c0-1-.35-1.84-1.05-2.52-.7-.68-1.53-1.04-2.49-1.08v-.18h4.14Z"/><path class="cls-4" d="M261.28,168.7h-.18c-.04-.92-.39-1.69-1.05-2.31s-1.47-.93-2.43-.93h-.72v-.6h4.38v3.84ZM261.28,197.02v3.84h-4.38v-.6h.72c.96,0,1.77-.32,2.43-.96s1.01-1.4,1.05-2.28h.18ZM264.94,164.86v36h-3.84v-36h3.84ZM287.68,182.2v1.8h-23.4v-1.8h23.4ZM264.76,168.7v-3.84h4.38v.6h-.72c-.96,0-1.78.31-2.46.93-.68.62-1.02,1.39-1.02,2.31h-.18ZM264.76,197.02h.18c0,.88.34,1.64,1.02,2.28.68.64,1.5.96,2.46.96h.72v.6h-4.38v-3.84ZM287.26,168.7h-.18c-.04-.92-.39-1.69-1.05-2.31s-1.47-.93-2.43-.93h-.72v-.6h4.38v3.84ZM287.26,197.02v3.84h-4.38v-.6h.72c.96,0,1.77-.32,2.43-.96s1.01-1.4,1.05-2.28h.18ZM290.92,164.86v36h-3.84v-36h3.84ZM290.74,168.7v-3.84h4.38v.6h-.72c-.96,0-1.77.31-2.43.93s-1.01,1.39-1.05,2.31h-.18ZM290.74,197.02h.18c.04.88.39,1.64,1.05,2.28s1.47.96,2.43.96h.72v.6h-4.38v-3.84Z"/><path class="cls-4" d="M306.09,168.64h-.12c-.04-.92-.38-1.68-1.02-2.28-.64-.6-1.46-.9-2.46-.9h-.84v-.6h5.22l-.78,3.78ZM306.09,197.02l.78,3.84h-5.22v-.6h.84c1,0,1.82-.32,2.46-.96s.98-1.4,1.02-2.28h.12ZM309.81,164.86v36h-3.84v-36h3.84ZM325.89,164.86v1.86h-16.2v-1.86h16.2ZM323.13,181.96v1.8h-13.44v-1.8h13.44ZM325.95,199l-.12,1.86h-16.14v-1.86h16.26ZM329.31,192.28l-3.3,8.58h-9.12l2.04-1.86c2,0,3.61-.29,4.83-.87,1.22-.58,2.21-1.38,2.97-2.4.76-1.02,1.42-2.17,1.98-3.45h.6ZM325.89,163.9v1.56l-6.84-.6c1.24,0,2.56-.11,3.96-.33,1.4-.22,2.36-.43,2.88-.63ZM323.13,178.66v3.42h-3.12v-.12c.84,0,1.46-.25,1.86-.75s.6-1.09.6-1.77v-.78h.66ZM323.13,183.64v3.42h-.66v-.78c0-.68-.2-1.27-.6-1.77s-1.02-.75-1.86-.75v-.12h3.12ZM325.89,166.54v4.14h-.66v-.9c0-.84-.27-1.56-.81-2.16-.54-.6-1.27-.9-2.19-.9v-.18h3.66Z"/><path class="cls-4" d="M354.51,163.24h-.18c-.04-1.04-.43-1.93-1.17-2.67-.74-.74-1.63-1.11-2.67-1.11h-.78v-.6h4.8v4.38ZM354.51,196.48v4.38h-4.8v-.6h.78c1.04,0,1.93-.37,2.67-1.11.74-.74,1.13-1.63,1.17-2.67h.18ZM358.23,158.86v42h-3.9v-42h3.9ZM358.05,163.24v-4.38h4.8v.6h-.78c-1.04,0-1.93.37-2.67,1.11-.74.74-1.13,1.63-1.17,2.67h-.18ZM374.43,199v1.86h-16.38v-1.86h16.38ZM378.09,191.14l-3.48,9.72h-9.96l2.16-1.86c2.12,0,3.85-.33,5.19-.99s2.43-1.59,3.27-2.79,1.58-2.56,2.22-4.08h.6Z"/><path class="cls-4" d="M387.57,168.64h-.12c-.04-.92-.38-1.68-1.02-2.28-.64-.6-1.46-.9-2.46-.9h-.84v-.6h5.22l-.78,3.78ZM387.57,197.02l.78,3.84h-5.22v-.6h.84c1,0,1.82-.32,2.46-.96s.98-1.4,1.02-2.28h.12ZM391.29,164.86v36h-3.84v-36h3.84ZM407.37,164.86v1.86h-16.2v-1.86h16.2ZM404.61,181.96v1.8h-13.44v-1.8h13.44ZM407.43,199l-.12,1.86h-16.14v-1.86h16.26ZM410.79,192.28l-3.3,8.58h-9.12l2.04-1.86c2,0,3.61-.29,4.83-.87,1.22-.58,2.21-1.38,2.97-2.4.76-1.02,1.42-2.17,1.98-3.45h.6ZM407.37,163.9v1.56l-6.84-.6c1.24,0,2.56-.11,3.96-.33,1.4-.22,2.36-.43,2.88-.63ZM404.61,178.66v3.42h-3.12v-.12c.84,0,1.46-.25,1.86-.75s.6-1.09.6-1.77v-.78h.66ZM404.61,183.64v3.42h-.66v-.78c0-.68-.2-1.27-.6-1.77s-1.02-.75-1.86-.75v-.12h3.12ZM407.37,166.54v4.14h-.66v-.9c0-.84-.27-1.56-.81-2.16-.54-.6-1.27-.9-2.19-.9v-.18h3.66Z"/><path class="cls-4" d="M435.27,164.02c1.84,0,3.57.13,5.19.39,1.62.26,3.16.66,4.62,1.2,1.46.54,2.85,1.23,4.17,2.07l1.32,8.46h-.54c-.56-2.36-1.47-4.3-2.73-5.82-1.26-1.52-2.89-2.65-4.89-3.39-2-.74-4.4-1.11-7.2-1.11-3.04,0-5.71.69-8.01,2.07-2.3,1.38-4.09,3.34-5.37,5.88-1.28,2.54-1.92,5.57-1.92,9.09s.64,6.5,1.92,9.06c1.28,2.56,3.08,4.53,5.4,5.91,2.32,1.38,5,2.07,8.04,2.07,1.68,0,3.28-.18,4.8-.54,1.52-.36,2.99-.93,4.41-1.71s2.75-1.77,3.99-2.97l.06-7.98c.04-.76-.19-1.34-.69-1.74-.5-.4-1.19-.6-2.07-.6h-.84v-.6h10.98v.6h-.84c-1.8,0-2.7.8-2.7,2.4v7.2c-.92,1.16-2.18,2.34-3.78,3.54-1.6,1.2-3.51,2.2-5.73,3-2.22.8-4.75,1.2-7.59,1.2-3.96-.04-7.41-.82-10.35-2.34-2.94-1.52-5.23-3.68-6.87-6.48-1.64-2.8-2.46-6.14-2.46-10.02s.82-7.28,2.46-10.08c1.64-2.8,3.94-4.96,6.9-6.48,2.96-1.52,6.4-2.28,10.32-2.28Z"/><path class="cls-4" d="M464.61,168.7h-.18c-.04-.92-.45-1.69-1.23-2.31-.78-.62-1.73-.93-2.85-.93h-.84v-.6h5.1v3.84ZM464.61,197.02v3.84h-5.1v-.6h.84c1.12,0,2.07-.32,2.85-.96.78-.64,1.19-1.4,1.23-2.28h.18ZM468.21,164.86v36h-3.78v-36h3.78ZM468.03,168.7v-3.84h5.1l-.06.6h-.78c-1.12,0-2.07.31-2.85.93-.78.62-1.19,1.39-1.23,2.31h-.18ZM468.03,197.02h.18c.04.88.45,1.64,1.23,2.28.78.64,1.73.96,2.85.96h.78l.06.6h-5.1v-3.84Z"/><path class="cls-4" d="M498.69,164.02c2.8,0,5.43.45,7.89,1.35,2.46.9,4.62,2.19,6.48,3.87,1.86,1.68,3.31,3.67,4.35,5.97,1.04,2.3,1.56,4.85,1.56,7.65s-.52,5.35-1.56,7.65c-1.04,2.3-2.49,4.29-4.35,5.97-1.86,1.68-4.02,2.97-6.48,3.87s-5.09,1.35-7.89,1.35-5.42-.45-7.86-1.35c-2.44-.9-4.59-2.19-6.45-3.87-1.86-1.68-3.31-3.67-4.35-5.97-1.04-2.3-1.56-4.85-1.56-7.65s.52-5.35,1.56-7.65,2.49-4.29,4.35-5.97c1.86-1.68,4.01-2.97,6.45-3.87,2.44-.9,5.06-1.35,7.86-1.35ZM498.69,199.9c2.96,0,5.64-.72,8.04-2.16,2.4-1.44,4.3-3.44,5.7-6,1.4-2.56,2.1-5.52,2.1-8.88s-.7-6.37-2.1-8.91c-1.4-2.54-3.3-4.53-5.7-5.97-2.4-1.44-5.08-2.16-8.04-2.16s-5.58.72-7.98,2.16c-2.4,1.44-4.3,3.43-5.7,5.97-1.4,2.54-2.1,5.51-2.1,8.91s.7,6.32,2.1,8.88c1.4,2.56,3.3,4.56,5.7,6,2.4,1.44,5.06,2.16,7.98,2.16Z"/><path class="cls-4" d="M528.21,197.14v3.72h-4.5v-.6h1.02c.92,0,1.7-.3,2.34-.9.64-.6.96-1.34.96-2.22h.18ZM528.09,163.96l2.58,3.36.06,33.54h-2.7v-29.4c0-2.04-.18-4.54-.54-7.5h.6ZM528.09,163.96l33.24,31.32.6,6.42-33.24-31.5-.6-6.24ZM530.73,197.14c0,.88.33,1.62.99,2.22.66.6,1.43.9,2.31.9h1.02v.6h-4.5v-3.72h.18ZM559.29,168.58c-.04-.88-.38-1.62-1.02-2.22-.64-.6-1.42-.9-2.34-.9h-1.02v-.6h4.5v3.72h-.12ZM561.93,164.86v29.16c0,1.28.04,2.51.12,3.69.08,1.18.22,2.51.42,3.99h-.54l-2.64-3.18v-33.66h2.64ZM561.75,168.58v-3.72h4.5v.6h-1.02c-.88,0-1.65.3-2.31.9-.66.6-.99,1.34-.99,2.22h-.18Z"/><rect class="cls-3" x="315.93" y="-234.54" width="4.75" height="607.93" transform="translate(387.74 -248.88) rotate(90)"/><rect class="cls-1" x="315.93" y="-239.29" width="4.75" height="607.93" transform="translate(382.99 -253.63) rotate(90)"/><polygon class="cls-4" points="16.67 50.57 0 67.24 16.67 67.24 16.67 50.57"/><polygon class="cls-2" points="0 67.24 16.67 83.91 16.67 67.24 0 67.24"/><polygon class="cls-4" points="620.17 50.57 636.84 67.24 620.17 67.24 620.17 50.57"/><polygon class="cls-2" points="636.84 67.24 620.17 83.91 620.17 67.24 636.84 67.24"/><polygon class="cls-4" points="316.9 523.18 311.03 529.06 316.9 529.06 316.9 523.18"/><polygon class="cls-2" points="311.03 529.06 316.9 534.94 316.9 529.06 311.03 529.06"/><polygon class="cls-1" points="322.78 529.06 316.9 523.18 316.9 529.06 322.78 529.06"/><polygon class="cls-3" points="316.9 529.06 316.9 534.94 322.78 529.06 316.9 529.06"/><polygon class="cls-4" points="339.02 525.48 333.15 529.06 339.02 529.06 339.02 525.48"/><polygon class="cls-2" points="333.15 529.06 339.02 532.64 339.02 529.06 333.15 529.06"/><polygon class="cls-1" points="390.93 529.06 339.02 525.48 339.02 529.06 390.93 529.06"/><polygon class="cls-3" points="339.02 529.06 339.02 532.64 390.93 529.06 339.02 529.06"/><polygon class="cls-4" points="294.79 525.48 242.88 529.06 294.79 529.06 294.79 525.48"/><polygon class="cls-2" points="242.88 529.06 294.79 532.64 294.79 529.06 242.88 529.06"/><polygon class="cls-1" points="300.66 529.06 294.79 525.48 294.79 529.06 300.66 529.06"/><polygon class="cls-3" points="294.79 529.06 294.79 532.64 300.66 529.06 294.79 529.06"/><path class="cls-4" d="M111.71,432.3v64.43c0,2.58-.43,4.99-1.29,7.23-.86,2.24-2.06,4.19-3.59,5.85-1.53,1.66-3.31,2.96-5.34,3.91-2.03.95-4.2,1.43-6.54,1.43v-.83c2.03-.74,3.85-2.01,5.48-3.82,1.62-1.81,2.91-3.94,3.87-6.4.95-2.46,1.43-5,1.43-7.64v-64.16h5.98ZM106,439.01h-.28c-.06-1.59-.66-2.96-1.79-4.1-1.14-1.13-2.5-1.7-4.1-1.7h-1.2v-.92h7.36v6.72ZM111.43,439.01v-6.72h7.36v.92h-1.2c-1.6,0-2.96.57-4.1,1.7s-1.73,2.5-1.79,4.1h-.28Z"/><path class="cls-4" d="M136.1,490.01c-.68,1.84-.58,3.27.28,4.28.86,1.01,1.84,1.52,2.95,1.52h.74v.92h-17.58v-.92h.74c1.29,0,2.61-.44,3.96-1.33,1.35-.89,2.52-2.38,3.5-4.46h5.43ZM153.86,440.21l.64,6.35-21.08,49.89h-5.8l21.82-46.76c.67-1.47,1.24-2.75,1.7-3.82.46-1.07.88-2.13,1.24-3.18.37-1.04.58-1.87.64-2.49h.83ZM164.73,475.28v2.76h-24.39v-2.76h24.39ZM153.86,440.21l25.31,55.97h-7.27l-19.61-47.77,1.57-8.19ZM169.42,490.01h7c.92,2.09,2.06,3.58,3.41,4.46,1.35.89,2.64,1.33,3.87,1.33h.74v.92h-18.87v-.92h.74c1.04,0,1.99-.51,2.85-1.52.86-1.01.95-2.44.28-4.28Z"/><path class="cls-4" d="M190.69,448.22h-7c-.92-2.09-2.06-3.57-3.41-4.46-1.35-.89-2.64-1.33-3.87-1.33h-.74v-.92h18.87v.92h-.74c-1.04,0-1.98.51-2.81,1.52-.83,1.01-.94,2.44-.32,4.28ZM206.24,498.02l-25.31-55.97h7.27l19.61,47.77-1.57,8.19ZM206.24,498.02l-.64-6.35,21.08-49.89h5.8l-21.82,46.76c-.68,1.47-1.24,2.75-1.7,3.82-.46,1.07-.87,2.13-1.24,3.18-.37,1.04-.58,1.87-.64,2.49h-.83ZM224.01,448.22c.67-1.84.58-3.27-.28-4.28-.86-1.01-1.84-1.52-2.95-1.52h-.64v-.92h17.49v.92h-.74c-1.29,0-2.61.45-3.96,1.33-1.35.89-2.52,2.38-3.5,4.46h-5.43Z"/><path class="cls-4" d="M242.51,490.01c-.68,1.84-.58,3.27.28,4.28.86,1.01,1.84,1.52,2.95,1.52h.74v.92h-17.58v-.92h.74c1.29,0,2.61-.44,3.96-1.33,1.35-.89,2.52-2.38,3.5-4.46h5.43ZM260.28,440.21l.64,6.35-21.08,49.89h-5.8l21.82-46.76c.67-1.47,1.24-2.75,1.7-3.82.46-1.07.88-2.13,1.24-3.18.37-1.04.58-1.87.64-2.49h.83ZM271.14,475.28v2.76h-24.39v-2.76h24.39ZM260.28,440.21l25.31,55.97h-7.27l-19.61-47.77,1.57-8.19ZM275.83,490.01h7c.92,2.09,2.06,3.58,3.41,4.46,1.35.89,2.64,1.33,3.87,1.33h.74v.92h-18.87v-.92h.74c1.04,0,1.99-.51,2.85-1.52.86-1.01.95-2.44.28-4.28Z"/><path class="cls-4" d="M343.76,431.01v.83l-41.05,64.89h-6.81v-.83l38.66-60.94h-37.37v-2.76h36.82c1.23,0,2.53-.06,3.91-.18,1.38-.12,2.61-.28,3.68-.46,1.07-.18,1.79-.37,2.16-.55ZM297.19,430.55c.61.25,1.55.49,2.81.74,1.26.25,2.65.46,4.19.64,1.53.18,2.95.28,4.23.28l-11.23,1.01v-2.67ZM303.54,434.97c-1.54.06-2.82.61-3.87,1.66-1.04,1.04-1.56,2.33-1.56,3.87v1.66h-.92v-7.46h6.35v.28ZM344.41,493.97l-.55,2.76h-42.07v-2.76h42.62ZM347.17,482.55l-3.04,14.18h-12.15l.64-2.3,1.01-.46c3.44,0,6.18-1.1,8.24-3.31,2.05-2.21,3.51-4.91,4.37-8.1h.92Z"/><path class="cls-4" d="M386.84,440.21c4.29,0,8.33.69,12.1,2.07s7.09,3.36,9.94,5.94,5.08,5.63,6.67,9.16c1.59,3.53,2.39,7.44,2.39,11.74s-.8,8.21-2.39,11.74c-1.6,3.53-3.82,6.58-6.67,9.16s-6.17,4.56-9.94,5.94-7.81,2.07-12.1,2.07-8.32-.69-12.06-2.07c-3.74-1.38-7.04-3.36-9.9-5.94s-5.08-5.63-6.67-9.16c-1.6-3.53-2.39-7.44-2.39-11.74s.8-8.21,2.39-11.74c1.59-3.53,3.82-6.58,6.67-9.16s6.15-4.56,9.9-5.94c3.74-1.38,7.76-2.07,12.06-2.07ZM386.84,495.26c4.54,0,8.65-1.1,12.33-3.31,3.68-2.21,6.6-5.28,8.74-9.21,2.15-3.93,3.22-8.47,3.22-13.62s-1.07-9.77-3.22-13.67c-2.15-3.9-5.06-6.95-8.74-9.16-3.68-2.21-7.79-3.31-12.33-3.31s-8.56,1.1-12.24,3.31c-3.68,2.21-6.6,5.26-8.75,9.16-2.15,3.9-3.22,8.45-3.22,13.67s1.07,9.7,3.22,13.62c2.15,3.93,5.06,7,8.75,9.21,3.68,2.21,7.76,3.31,12.24,3.31Z"/><path class="cls-4" d="M432.13,491.02v5.71h-6.9v-.92h1.56c1.41,0,2.61-.46,3.59-1.38.98-.92,1.47-2.06,1.47-3.41h.28ZM431.94,440.12l3.96,5.16.09,51.46h-4.14v-45.1c0-3.13-.28-6.96-.83-11.51h.92ZM431.94,440.12l51,48.05.92,9.85-51-48.33-.92-9.57ZM435.99,491.02c0,1.35.51,2.49,1.52,3.41,1.01.92,2.19,1.38,3.54,1.38h1.57v.92h-6.9v-5.71h.28ZM479.81,447.21c-.06-1.35-.58-2.49-1.56-3.41-.98-.92-2.18-1.38-3.59-1.38h-1.57v-.92h6.9v5.71h-.18ZM483.86,441.5v44.74c0,1.96.06,3.85.18,5.66.12,1.81.34,3.85.64,6.12h-.83l-4.05-4.88v-51.64h4.05ZM483.58,447.21v-5.71h6.9v.92h-1.56c-1.35,0-2.53.46-3.54,1.38-1.01.92-1.52,2.06-1.52,3.41h-.28Z"/><path class="cls-4" d="M505.58,447.3h-.18c-.06-1.41-.58-2.58-1.57-3.5-.98-.92-2.24-1.38-3.77-1.38h-1.29v-.92h8.01l-1.2,5.8ZM505.58,490.84l1.2,5.89h-8.01v-.92h1.29c1.53,0,2.79-.49,3.77-1.47.98-.98,1.5-2.15,1.57-3.5h.18ZM511.29,441.5v55.23h-5.89v-55.23h5.89ZM535.96,441.5v2.85h-24.85v-2.85h24.85ZM531.72,467.73v2.76h-20.62v-2.76h20.62ZM536.05,493.88l-.18,2.85h-24.76v-2.85h24.95ZM541.2,483.57l-5.06,13.16h-13.99l3.13-2.85c3.07,0,5.54-.44,7.41-1.33,1.87-.89,3.39-2.12,4.56-3.68,1.17-1.56,2.18-3.33,3.04-5.29h.92ZM535.96,440.03v2.39l-10.49-.92c1.9,0,3.93-.17,6.08-.51,2.15-.34,3.62-.66,4.42-.97ZM531.72,462.67v5.25h-4.79v-.18c1.29,0,2.24-.38,2.85-1.15.61-.77.92-1.67.92-2.71v-1.2h1.01ZM531.72,470.31v5.25h-1.01v-1.2c0-1.04-.31-1.95-.92-2.71-.61-.77-1.56-1.15-2.85-1.15v-.18h4.79ZM535.96,444.08v6.35h-1.01v-1.38c0-1.29-.41-2.39-1.24-3.31-.83-.92-1.95-1.38-3.36-1.38v-.28h5.62Z"/><path class="cls-4" d="M215.58,590.95v3.36h-5.11v-.46h.74c.83,0,1.56-.25,2.21-.76s1.03-1.22,1.15-2.14h1.01ZM218.02,561.45h.46l.92,2.71-2.72,30.15h-2.49l3.82-32.86ZM216.91,591.68v.23c0,.49.18.94.53,1.36.35.41.77.62,1.27.62h.69v.41h-2.81v-2.62h.32ZM218.48,561.45l13.26,28.67-1.06,4.83-13.07-28.35.87-5.15ZM243.89,561.45l.37,3.08-11.55,25.73c-.46,1.04-.81,1.93-1.06,2.65s-.41,1.4-.51,2.05h-.46l-.64-2.9,13.85-30.61ZM244.44,591.68h.32v2.62h-2.81v-.41h.69c.52,0,.95-.21,1.29-.62.34-.42.51-.87.51-1.36v-.23ZM244.3,561.45l3.96,32.86h-3.59l-2.53-27.89,1.75-4.97h.41ZM246.88,590.95h.97c.15.92.55,1.63,1.2,2.14s1.37.76,2.16.76h.74v.46h-5.06v-3.36Z"/><path class="cls-4" d="M267.63,590.95v3.36h-5.11v-.46h.74c.83,0,1.56-.25,2.21-.76s1.03-1.22,1.15-2.14h1.01ZM270.07,561.45h.46l.92,2.71-2.72,30.15h-2.49l3.82-32.86ZM268.97,591.68v.23c0,.49.18.94.53,1.36.35.41.77.62,1.27.62h.69v.41h-2.81v-2.62h.32ZM270.53,561.45l13.26,28.67-1.06,4.83-13.07-28.35.87-5.15ZM295.94,561.45l.37,3.08-11.55,25.73c-.46,1.04-.81,1.93-1.06,2.65s-.41,1.4-.51,2.05h-.46l-.64-2.9,13.85-30.61ZM296.49,591.68h.32v2.62h-2.81v-.41h.69c.52,0,.95-.21,1.29-.62.34-.42.51-.87.51-1.36v-.23ZM296.35,561.45l3.96,32.86h-3.59l-2.53-27.89,1.75-4.97h.41ZM298.93,590.95h.97c.15.92.55,1.63,1.2,2.14s1.37.76,2.16.76h.74v.46h-5.06v-3.36Z"/><path class="cls-4" d="M321.67,590.99c-.28.43-.35.87-.23,1.31.12.45.36.81.71,1.1.35.29.73.44,1.13.44h.6v.46h-10.45v-.46h.64c.98,0,1.89-.28,2.71-.83.83-.55,1.49-1.18,1.98-1.89l2.9-.14ZM325.35,562.09v.46h-.55c-.4,0-.78.15-1.13.44-.35.29-.58.66-.69,1.1-.11.45-.04.88.21,1.31l-3.68-.14c-.49-.71-1.14-1.33-1.96-1.89-.81-.55-1.71-.83-2.69-.83h-.64v-.46h11.14ZM328.11,577.19l1.06,1.98-9.57,15.1h-2.95l11.46-17.08ZM321.07,562.09l20.48,32.17h-3.68l-20.39-32.17h3.59ZM340.86,562.09l-10.82,15.92-1.56-1.1,9.39-14.82h2.99ZM343.99,562.09v.46h-.64c-.95,0-1.83.28-2.65.83-.81.55-1.48,1.18-2,1.89l-2.95.14c.28-.43.36-.87.25-1.31-.11-.44-.33-.81-.67-1.1s-.72-.44-1.15-.44h-.55v-.46h10.36ZM335.8,590.99l3.77.18c.49.71,1.15,1.33,1.98,1.86.83.54,1.72.81,2.67.81h.64v.46h-11.23v-.46h.55c.64,0,1.17-.31,1.59-.92.41-.61.42-1.26.02-1.93Z"/><path class="cls-4" d="M361.34,590.99c-.28.43-.35.87-.23,1.31.12.45.36.81.71,1.1.35.29.73.44,1.13.44h.6v.46h-10.45v-.46h.64c.98,0,1.89-.28,2.71-.83.83-.55,1.49-1.18,1.98-1.89l2.9-.14ZM365.02,562.09v.46h-.55c-.4,0-.78.15-1.13.44-.35.29-.58.66-.69,1.1-.11.45-.04.88.21,1.31l-3.68-.14c-.49-.71-1.14-1.33-1.96-1.89-.81-.55-1.71-.83-2.69-.83h-.64v-.46h11.14ZM367.78,577.19l1.06,1.98-9.57,15.1h-2.95l11.46-17.08ZM360.74,562.09l20.48,32.17h-3.68l-20.39-32.17h3.59ZM380.53,562.09l-10.82,15.92-1.56-1.1,9.39-14.82h2.99ZM383.66,562.09v.46h-.64c-.95,0-1.83.28-2.65.83-.81.55-1.48,1.18-2,1.89l-2.95.14c.28-.43.36-.87.25-1.31-.11-.44-.33-.81-.67-1.1s-.72-.44-1.15-.44h-.55v-.46h10.36ZM375.47,590.99l3.77.18c.49.71,1.15,1.33,1.98,1.86.83.54,1.72.81,2.67.81h.64v.46h-11.23v-.46h.55c.64,0,1.17-.31,1.59-.92.41-.61.42-1.26.02-1.93Z"/><path class="cls-4" d="M401.01,565.4l-3.82.05c-.46-1.04-1.07-1.79-1.84-2.23-.77-.44-1.5-.67-2.21-.67h-.37v-.46h10.36v.46h-.41c-.58,0-1.1.25-1.54.74-.45.49-.5,1.2-.16,2.12ZM410.12,594.95l-14.27-32.59h3.91l11.28,28.21-.92,4.37ZM410.12,594.95l-.41-3.22,12.24-29.5h2.76l-12.47,27.98c-.34.77-.62,1.43-.85,1.98-.23.55-.43,1.09-.6,1.61-.17.52-.25.9-.25,1.15h-.42ZM420.66,565.4c.34-.92.28-1.63-.18-2.12-.46-.49-.98-.74-1.56-.74h-.41v-.46h9.25v.46h-.41c-.68,0-1.4.22-2.16.67-.77.45-1.4,1.19-1.89,2.23l-2.62-.05Z"/></g></svg>