<?xml version="1.0" encoding="UTF-8"?><svg id="Layer_2" xmlns="http://www.w3.org/2000/svg" viewBox="0 0 286.81 40.98"><defs><style>.cls-1{fill:#d3c5bb;}.cls-1,.cls-2,.cls-3,.cls-4,.cls-5{stroke:#403431;stroke-linecap:round;stroke-miterlimit:10;}.cls-2{fill:#8e8177;}.cls-3{fill:#7a6f65;}.cls-4{fill:#6b6058;}.cls-5{fill:#5e544c;}</style></defs><g id="Layer_1-2"><path class="cls-1" d="M9,40.48h268.8c4.7,0,8.5-8.95,8.5-19.99,0-.99-.03-1.95-.09-2.9-.09-1.43-4.38-2.97-4.38-2.97,0,0,3.31-4.34,2.88-5.74-1.54-5.07-4.07-8.38-6.92-8.38H9"/><path class="cls-2" d="M17.51,20.49c0,2.45-.19,4.79-.53,6.96-.17,1.1,3.54,4.14,3.54,4.14,0,0-4.74,1.04-5.07,1.94-1.56,4.25-3.87,6.94-6.44,6.94C4.31,40.48.5,31.53.5,20.49S4.31.5,9,.5s8.5,8.95,8.5,19.99Z"/><path class="cls-3" d="M14.61,23.45c-.55,8.7-3.44,15.78-6.85,15.78S.87,32.17.87,23.45,4.67,4.19,8.07,4.19c1.57,0,2.71,3.01,4.05,5.66.34.67,3.16,2.58,3.16,2.58,0,0-1.72,2.04-1.15,4.23.26,2.1.65,4.15.48,6.8Z"/><path class="cls-5" d="M11.96,24.87c-.87,6.8-1.9,10.07-4.22,10.07s-3.65-3.45-4.52-7.31c-1.49-6.58,2.2-18.09,4.52-18.09s5.12,8.3,4.22,15.34Z"/><path class="cls-4" d="M3.48,27.9s7.03.14,8.02.1c0,0-.59,6.82-3.42,6.93s-4.33-4.3-4.6-7.03Z"/></g></svg>