<svg width="288" height="41" viewBox="0 0 288 41" fill="none" xmlns="http://www.w3.org/2000/svg">
    <g clip-path="url(#clip0_17_6)">
        <path d="M9.05258 40.4998H279.449C284.177 40.4998 288 31.5454 288 20.5C288 19.5095 287.97 18.549 287.909 17.5986C287.819 16.1679 283.503 14.6271 283.503 14.6271C283.503 14.6271 286.833 10.285 286.401 8.88433C284.851 3.81186 282.306 0.500244 279.439 0.500244H9.05258" fill="url(#paint0_linear_17_6)"/>
        <path d="M17.6131 20.5C17.6131 22.9512 17.422 25.2923 17.08 27.4634C16.909 28.5639 20.641 31.6054 20.641 31.6054C20.641 31.6054 15.8729 32.6459 15.5409 33.5464C13.9716 37.7984 11.6479 40.4898 9.06263 40.4898C4.33471 40.4998 0.502075 31.5454 0.502075 20.5C0.502075 9.45461 4.33472 0.500244 9.05258 0.500244C13.7704 0.500244 17.6031 9.45461 17.6031 20.5H17.6131Z" fill="url(#paint1_linear_17_6)"/>
        <path d="M14.6959 23.4614C14.1426 32.1657 11.2355 39.2491 7.80519 39.2491C4.37493 39.2491 0.874259 32.1857 0.874259 23.4614C0.874259 14.7372 4.69683 4.19205 8.11703 4.19205C9.69636 4.19205 10.8431 7.20352 12.1911 9.85481C12.5331 10.5251 15.3699 12.4361 15.3699 12.4361C15.3699 12.4361 13.6397 14.4771 14.213 16.6681C14.4746 18.7692 14.8669 20.8202 14.6959 23.4715V23.4614Z" fill="url(#paint2_linear_17_6)"/>
        <path d="M12.0302 24.8821C11.155 31.6855 10.1189 34.9571 7.78512 34.9571C5.45133 34.9571 4.11343 31.5054 3.23826 27.6435C1.73941 21.0603 5.45133 9.54465 7.78512 9.54465C10.1189 9.54465 12.9355 17.8487 12.0302 24.8921V24.8821Z" fill="url(#paint3_linear_17_6)"/>
        <path d="M3.49979 27.9136C3.49979 27.9136 10.5716 28.0537 11.5674 28.0137C11.5674 28.0137 10.9739 34.837 8.12711 34.947C5.2803 35.0571 3.77139 30.6449 3.49979 27.9136Z" fill="#998C82"/>
    </g>
    <defs>
        <linearGradient id="paint0_linear_17_6" x1="143.98" y1="21" x2="144.234" y2="0.500036" gradientUnits="userSpaceOnUse">
            <stop stop-color="#F7F3F1"/>
            <stop offset="1" stop-color="#8E8177"/>
        </linearGradient>
        <linearGradient id="paint1_linear_17_6" x1="-6.66541" y1="12.0029" x2="-3.22445" y2="50.7739" gradientUnits="userSpaceOnUse">
            <stop offset="0.130198" stop-color="#8E8177"/>
            <stop offset="0.814719" stop-color="#F1E7DF"/>
        </linearGradient>
        <linearGradient id="paint2_linear_17_6" x1="290.581" y1="17.3958" x2="286.507" y2="-20.5417" gradientUnits="userSpaceOnUse">
            <stop offset="0.312748" stop-color="#8E8177"/>
            <stop offset="0.772724" stop-color="#7A6F65"/>
        </linearGradient>
        <linearGradient id="paint3_linear_17_6" x1="-27.0389" y1="5.152" x2="-26.0393" y2="40.238" gradientUnits="userSpaceOnUse">
            <stop stop-color="#5E544C"/>
            <stop offset="1" stop-color="#8F8278"/>
        </linearGradient>
        <clipPath id="clip0_17_6">
            <rect width="288" height="41" fill="white"/>
        </clipPath>
    </defs>
</svg>
