<?xml version="1.0" encoding="UTF-8"?><svg id="Layer_2" xmlns="http://www.w3.org/2000/svg" viewBox="0 0 102.39 275.33"><defs><style>.cls-1{fill:#168b44;}.cls-2{fill:#403431;}</style></defs><g id="Layer_1-2"><path class="cls-2" d="M62.26,0c-14.45,7.23-23.59,18.69-27.18,34.04-.97,4.13-1.66,8.02-2.11,11.71-1.46,6.66-3.63,11.48-7.05,15.64-5.35,6.49-13.39,8.26-19.55,4.3-5.18-3.33-6.68-10.26-3.35-15.44,1.27-1.98,3.24-3.34,5.54-3.84,2.3-.5,4.66-.07,6.64,1.2,3.21,2.07,4.15,6.36,2.08,9.57-1.62,2.51-4.97,3.24-7.49,1.63-.95-.61-1.6-1.55-1.84-2.65-.24-1.1-.03-2.22.57-3.17.19-.29.1-.67-.19-.86-.29-.18-.67-.1-.86.19-.79,1.22-1.05,2.68-.74,4.1s1.15,2.64,2.38,3.43c1.49.96,3.27,1.28,5.01.91,1.74-.38,3.22-1.41,4.19-2.9,2.44-3.79,1.34-8.85-2.45-11.29-2.26-1.45-4.95-1.94-7.57-1.37-2.62.57-4.87,2.13-6.32,4.39-3.7,5.76-2.03,13.45,3.73,17.15,6.71,4.32,15.42,2.45,21.18-4.55,2.36-2.87,4.14-6.05,5.52-9.87-.98,18.79,4.45,32.09,10.8,45.24h0c.44.97.89,1.88,1.34,2.77.33.66.65,1.33.98,1.99,7.14,14.53,14.53,29.55,14.11,52.15-.17,8.91-2.18,17.06-5.8,24.1-7.43,8.82-15.8,7.82-20.17,6.42-4.52-1.45-7.42-5.27-6.9-9.08.42-3.05,3.24-5.19,6.29-4.78h.03c2.36.34,4.01,2.53,3.69,4.89-.25,1.83-1.94,3.12-3.77,2.87-.66-.05-1.28-.44-1.69-.99-.41-.54-.59-1.22-.5-1.89.14-1.05,1.11-1.79,2.16-1.64.34.05.65-.19.7-.53.05-.34-.19-.65-.53-.7h0c-1.73-.24-3.32.98-3.56,2.71-.28,2.08,1.22,3.98,3.25,4.28,2.51.34,4.83-1.42,5.17-3.93.41-3.04-1.71-5.85-4.74-6.28h-.04c-3.73-.51-7.17,2.11-7.68,5.84-.6,4.41,2.66,8.79,7.75,10.43,4.02,1.29,11.23,2.26,18.2-3.51-3.51,5.44-8.07,10.08-13.56,13.72,0,0,3.13-2.19,0,0s-6.17,4.88-6.17,4.88c-6.21,6.02-13.79,17.33-5.69,32.43l1.09-.59c-10.08-18.78,4.81-31.16,9.85-34.65,7.73-4.72,13.8-11.27,17.89-19.2,3.2-6.39,5.82-15.81,5.99-24.76.36-19.43-4.95-33.28-10.97-45.99,9.45,11.24,19.71,9.46,19.83,9.43l-.24-1.22c-.14.03-13.86,2.36-23.84-16.94-6.05-12.34-11.62-24.48-12.09-40.89,1.22,5.86,3.83,12.28,8.89,15.8,5.56,3.87,16.36,1.68,13.8-5.6l-.51-.85c1.07,4.21-.55,6.27-5.43,7.23-3.61.71-7.15-1.79-7.15-1.79-8.75-6.08-9.78-21.42-9.15-26.03h0c.44-4.15,1.18-8.57,2.28-13.3,3.5-14.98,12.43-26.15,26.53-33.22"/><path class="cls-1" d="M60.63,256.87c-.08-11.09-6.14-16.55-13.98-14.86,15.77-10.51,3.86-24.68,1.9-24.7-.18,5.62-5.54,7.98-5.54,7.98,0,0-.89-5.8-5.29-5.36,1.46,17.87-11.77,12.1-11.77,12.1,0,0-3.26,11.03-15.42,2.59-1.7,7.49,3.06,10.68,3.06,10.68,0,0-3.41,5.02-9.28,3.47,1.08,7.05,14.29,14.36,23.45,5.72-5.32,13.5,11.32,19.94,13.38,20.05-.99-1.81-.95-6.27.03-6.05,2.9,3.79,14.17,3.92,16.99,6.83,2.98-12.19-1.94-19.92-1.94-19.92,0,0,3.04.1,4.39,1.47ZM27.98,237.21c4.25,17.3,18.05,24.38,18.05,24.38,0,0-16.43-5.65-18.05-24.38Z"/><path class="cls-1" d="M95.26,110.95c3.14-1.66,4.64-9.92,7.13-11.62-8.58-3.7-14.87-1.05-14.87-1.05,0,0,.45-2.22,1.62-3.04-8.15-1.32-12.92,2.44-12.65,8.42-5.75-12.89-17.64-5.9-17.9-4.47,4.1.83,5.17,5.06,5.17,5.06,0,0-4.37-.07-4.59,3.22,13.3,1.16,7.42,10.15,7.42,10.15,0,0,7.69,3.76-.02,11.64,5.28,2.18,8.22-.92,8.22-.92,0,0,3.26,3.13,1.4,7.24,5.31.09,12.32-8.7,7.12-16.51,9.25,5.58,16.05-5.83,16.39-7.33-1.46.5-4.73-.08-4.44-.78ZM71.03,115.58c14.18-1.27,21.72-11.65,21.72-11.65,0,0-6.8,12.71-21.72,11.65Z"/></g></svg>