<?xml version="1.0" encoding="UTF-8"?><svg id="Layer_2" xmlns="http://www.w3.org/2000/svg" viewBox="0 0 305.21 47.07"><defs><style>.cls-1{fill:#403431;}</style></defs><g id="Layer_1-2"><path class="cls-1" d="M54.18,44.45c-.88-.69-1.43-1.66-1.65-2.9L47.52,0h-.58l-17.65,39.01L11.25,0h-.65l-4.82,41.44h-.03c-.17,1.29-.71,2.29-1.62,3.01-.91.71-1.94,1.07-3.1,1.07H0v.65h12.54v-.58h-.97c-.69,0-1.28-.29-1.78-.87-.5-.58-.74-1.22-.74-1.91v-.23l2.82-31.32,16.51,35.81h.65c.13-.91.37-1.86.71-2.88.34-1.01.84-2.25,1.49-3.72l13.55-30.18,2.93,32.31h0v.2c0,.69-.24,1.33-.71,1.91-.48.58-1.08.87-1.81.87h-.97v.58h14.03v-.65h-1.03c-1.12,0-2.13-.36-3.04-1.07Z"/><path class="cls-1" d="M127.3,44.45c-.88-.69-1.43-1.66-1.65-2.9L120.64,0h-.58l-17.65,39.01L84.37,0h-.65l-4.82,41.44h-.03c-.17,1.29-.71,2.29-1.62,3.01-.91.71-1.94,1.07-3.1,1.07h-1.03v.65h12.54v-.58h-.97c-.69,0-1.28-.29-1.78-.87-.5-.58-.74-1.22-.74-1.91v-.23l2.82-31.32,16.51,35.81h.65c.13-.91.37-1.86.71-2.88.34-1.01.84-2.25,1.49-3.72l13.55-30.18,2.93,32.31h0v.2c0,.69-.24,1.33-.71,1.91-.48.58-1.08.87-1.81.87h-.97v.58h14.03v-.65h-1.03c-1.12,0-2.13-.36-3.04-1.07Z"/><path class="cls-1" d="M184.12,44.38c-1.1-.71-1.98-1.54-2.66-2.46l-12.66-19.89,11.36-16.73c.73-.96,1.64-1.83,2.76-2.59,1.14-.78,2.38-1.16,3.72-1.16h.91v-.65h-14.55v.65h.78c.6,0,1.14.21,1.62.61.47.41.79.93.94,1.55.15.63.03,1.24-.36,1.84h.03s-8.82,13.92-8.82,13.92l-8.86-13.92h.01c-.35-.6-.44-1.22-.29-1.84.15-.62.47-1.14.97-1.55.5-.41,1.02-.61,1.58-.61h.78v-.65h-15.65v.65h.91c1.38,0,2.64.39,3.78,1.16,1.09.74,1.97,1.59,2.65,2.52l11.42,18.02-12.53,18.66c-.67.9-1.53,1.71-2.61,2.43-1.16.78-2.44,1.16-3.81,1.16h-.91v.65h14.68v-.65h-.84c-.56,0-1.09-.2-1.58-.61-.5-.41-.83-.93-1-1.55-.17-.62-.06-1.23.32-1.83l9.94-15.67,9.92,15.65h0c.56.95.55,1.85-.03,2.72-.58.86-1.33,1.29-2.23,1.29h-.78v.65h15.77v-.65h-.91c-1.34,0-2.59-.38-3.75-1.13Z"/><path class="cls-1" d="M239.85,44.38c-1.1-.71-1.98-1.54-2.66-2.46l-12.66-19.89,11.36-16.73c.73-.96,1.64-1.83,2.76-2.59,1.14-.78,2.38-1.16,3.72-1.16h.91v-.65h-14.55v.65h.78c.6,0,1.14.21,1.62.61.47.41.79.93.94,1.55.15.63.03,1.24-.36,1.84h.03s-8.82,13.92-8.82,13.92l-8.86-13.92h.01c-.35-.6-.44-1.22-.29-1.84.15-.62.47-1.14.97-1.55.5-.41,1.02-.61,1.58-.61h.78v-.65h-15.65v.65h.91c1.38,0,2.64.39,3.78,1.16,1.09.74,1.97,1.59,2.65,2.52l11.42,18.02-12.53,18.66c-.67.9-1.53,1.71-2.61,2.43-1.16.78-2.44,1.16-3.81,1.16h-.91v.65h14.68v-.65h-.84c-.56,0-1.09-.2-1.58-.61-.5-.41-.83-.93-1-1.55-.17-.62-.06-1.23.32-1.83l9.94-15.67,9.92,15.65h0c.56.95.55,1.85-.03,2.72-.58.86-1.33,1.29-2.23,1.29h-.78v.65h15.77v-.65h-.91c-1.34,0-2.59-.38-3.75-1.13Z"/><path class="cls-1" d="M292.22.91v.65h.58c.82,0,1.55.35,2.2,1.03.6.64.69,1.54.34,2.69l-14.18,34.17-13.54-33.88h.04c-.47-1.29-.4-2.28.23-2.97.62-.69,1.35-1.03,2.17-1.03h.58v-.65h-14.55v.65h.52c.99,0,2.03.31,3.1.94,1.08.62,1.94,1.67,2.59,3.14h.02s18.15,41.44,18.15,41.44h.58c0-.35.12-.88.36-1.62.24-.73.52-1.49.84-2.26.32-.78.72-1.7,1.2-2.78l15.5-34.78h.01c.69-1.46,1.57-2.51,2.65-3.14,1.08-.62,2.09-.94,3.04-.94h.58v-.65h-12.99Z"/></g></svg>