<svg width="627" height="119" viewBox="0 0 627 119" fill="none" xmlns="http://www.w3.org/2000/svg">
    <path d="M23.14 2.46H5.17V3.75H6.85C9.09 3.75 11.01 4.55 12.6 6.14C14.19 7.74 15.03 9.65 15.12 11.89V92.57C15.12 96.28 14.45 99.85 13.12 103.3C11.78 106.75 9.97 109.74 7.69 112.29C5.4 114.83 2.84 116.62 0 117.66V118.82C3.28 118.82 6.34 118.15 9.18 116.82C12.02 115.48 14.52 113.65 16.68 111.32C18.83 108.99 20.51 106.26 21.72 103.11C22.93 99.96 23.53 96.58 23.53 92.96V11.9C23.61 9.66 24.46 7.74 26.05 6.15C27.64 4.56 29.56 3.76 31.8 3.76H33.48V2.47H23.14V2.46Z" fill="#403431"/>
    <path d="M119.21 89.8C117.31 88.55 115.72 86.46 114.43 83.53H114.39L82.75 13.58H81.59C81.5 14.44 81.2 15.61 80.68 17.07C80.16 18.54 79.58 20.02 78.93 21.53C78.28 23.04 77.48 24.83 76.54 26.9L49.58 84.68C48.33 87.01 46.88 88.72 45.25 89.8C43.35 91.05 41.5 91.68 39.69 91.68H38.66V92.97H63.36V91.68H62.33C60.78 91.68 59.4 90.97 58.19 89.55C57.1 88.27 56.9 86.52 57.56 84.29L64.98 66.72H97.65L104.85 84.27C105.51 86.5 105.31 88.26 104.22 89.55C103.01 90.97 101.68 91.68 100.21 91.68H99.18V92.97H125.69V91.68H124.66C122.93 91.68 121.12 91.06 119.23 89.8H119.21ZM66.61 62.84L81.54 27.5L96.04 62.84H66.6H66.61Z" fill="#403431"/>
    <path d="M193.82 18.55C195.71 17.3 197.57 16.67 199.38 16.67H200.41V15.38H175.84V16.67H176.75C178.3 16.67 179.68 17.38 180.89 18.8C181.97 20.08 182.18 21.83 181.52 24.05L157.53 80.84L134.31 24.26C133.65 21.94 133.84 20.11 134.92 18.79C136.08 17.37 137.4 16.66 138.86 16.66H139.9V15.37H113.39V16.66H114.42C116.14 16.66 117.95 17.29 119.85 18.54C121.75 19.79 123.34 21.88 124.63 24.81H124.67L156.31 94.76H157.47C157.55 93.9 157.86 92.74 158.37 91.27C158.89 89.81 159.47 88.32 160.12 86.81C160.77 85.3 161.56 83.51 162.51 81.44L189.47 23.65C190.72 21.32 192.16 19.61 193.8 18.53L193.82 18.55Z" fill="#403431"/>
    <path d="M268.69 89.8C266.79 88.55 265.2 86.46 263.91 83.53H263.87L232.23 13.58H231.07C230.98 14.44 230.68 15.61 230.16 17.07C229.64 18.54 229.06 20.02 228.41 21.53C227.76 23.04 226.96 24.83 226.02 26.9L199.06 84.68C197.81 87.01 196.36 88.72 194.73 89.8C192.83 91.05 190.98 91.68 189.17 91.68H188.14V92.97H212.84V91.68H211.81C210.26 91.68 208.88 90.97 207.67 89.55C206.58 88.27 206.38 86.52 207.04 84.29L214.46 66.72H247.13L254.33 84.27C254.99 86.5 254.79 88.26 253.7 89.55C252.49 90.97 251.16 91.68 249.69 91.68H248.66V92.97H275.17V91.68H274.14C272.41 91.68 270.6 91.06 268.71 89.8H268.69ZM216.08 62.84L231.01 27.5L245.51 62.84H216.07H216.08Z" fill="#403431"/>
    <path d="M346.85 84.43C343.96 87.53 340.1 89.08 335.28 89.08H294.29L349.5 1.81V0.650002C348.98 0.910002 347.97 1.17 346.46 1.43C344.95 1.69 343.23 1.9 341.29 2.08C339.35 2.25 337.52 2.34 335.79 2.34H299.84C298.03 2.34 296.05 2.21 293.89 1.95C291.73 1.69 289.77 1.39 288.01 1.04C286.24 0.700002 284.93 0.350002 284.07 0.0100021V16.3H285.36V13.97C285.36 11.82 286.09 10.01 287.56 8.54C289.03 7.07 290.83 6.3 292.99 6.21H336.56L282.25 91.81V92.97H350L354.27 73.06H352.98C351.77 77.54 349.73 81.33 346.84 84.44L346.85 84.43Z" fill="#403431"/>
    <path d="M440.98 24.83C436.97 21.21 432.32 18.43 427.02 16.49C421.72 14.55 416.05 13.58 410.02 13.58C403.99 13.58 398.34 14.55 393.08 16.49C387.82 18.43 383.19 21.21 379.18 24.83C375.17 28.45 372.05 32.74 369.81 37.7C367.57 42.66 366.45 48.15 366.45 54.19C366.45 60.23 367.57 65.72 369.81 70.68C372.05 75.64 375.18 79.93 379.18 83.55C383.19 87.17 387.82 89.95 393.08 91.89C398.34 93.83 403.98 94.8 410.02 94.8C416.06 94.8 421.72 93.83 427.02 91.89C432.32 89.95 436.98 87.17 440.98 83.55C444.99 79.93 448.11 75.64 450.35 70.68C452.59 65.72 453.71 60.23 453.71 54.19C453.71 48.15 452.59 42.66 450.35 37.7C448.11 32.74 444.98 28.45 440.98 24.83ZM439.62 73.31C436.6 78.83 432.51 83.14 427.34 86.24C422.17 89.34 416.39 90.89 410.01 90.89C403.63 90.89 397.99 89.34 392.81 86.24C387.64 83.14 383.54 78.83 380.53 73.31C377.51 67.79 376 61.41 376 54.17C376 46.93 377.51 40.44 380.53 34.97C383.55 29.5 387.64 25.21 392.81 22.1C397.98 19 403.71 17.45 410.01 17.45C416.31 17.45 422.16 19 427.34 22.1C432.52 25.2 436.61 29.49 439.62 34.97C442.64 40.45 444.15 46.85 444.15 54.17C444.15 61.49 442.64 67.79 439.62 73.31Z" fill="#403431"/>
    <path d="M545.9 15.39H531.16V16.68H533.36C535.34 16.68 537.02 17.33 538.4 18.62C539.78 19.91 540.51 21.51 540.6 23.4V76.8L473.36 13.45H472.07C472.85 19.83 473.23 25.22 473.23 29.61V84.95C473.23 86.85 472.54 88.44 471.16 89.73C469.78 91.02 468.1 91.67 466.12 91.67H463.92V92.96H488.36V91.67H486.16C484.26 91.67 482.6 91.02 481.18 89.73C479.76 88.44 479.05 86.84 479.05 84.95H479.04L478.94 30.95L546.29 94.77H547.45C547.02 91.58 546.72 88.72 546.54 86.17C546.37 83.63 546.28 80.98 546.28 78.22V23.4C546.28 21.5 546.99 19.91 548.41 18.62C549.83 17.33 551.49 16.68 553.39 16.68H555.59V15.39H545.89H545.9Z" fill="#403431"/>
    <path d="M625.55 74.48C624.34 77.24 622.92 79.72 621.28 81.91C619.64 84.11 617.51 85.83 614.88 87.08C612.25 88.33 608.78 88.96 604.47 88.96H584.82V56.12H606.8C608.61 56.12 609.95 56.66 610.81 57.74C611.67 58.82 612.1 60.09 612.1 61.55V63.23H613.52V45.13H612.1V46.81C612.1 48.28 611.67 49.55 610.81 50.62C609.95 51.7 608.61 52.24 606.8 52.24H584.82V19.4H611.59C613.57 19.4 615.15 20.05 616.31 21.34C617.47 22.63 618.06 24.18 618.06 25.99V27.93H619.48V13.32C618.36 13.75 616.29 14.2 613.27 14.68C610.25 15.15 607.41 15.39 604.74 15.39H567.24V16.68H569.05C571.2 16.68 572.97 17.33 574.35 18.62C575.73 19.91 576.46 21.55 576.55 23.53V84.69C576.46 86.59 575.73 88.23 574.35 89.6C572.97 90.97 571.2 91.67 569.05 91.67H567.24V92.96H619.74L626.85 74.47H625.56L625.55 74.48Z" fill="#403431"/>
</svg>
