<svg width="158" height="161" viewBox="0 0 158 161" fill="#F6921E" xmlns="http://www.w3.org/2000/svg">
    <path d="M114.36 110.23C109.62 122.53 100.18 142.21 85.26 152.09C64.37 165.93 100.55 152.4 104.58 151.19C104.82 151.12 105.03 150.97 105.18 150.76C106.5 148.95 112.82 139.06 116.62 110.89C116.82 109.43 114.88 108.87 114.36 110.23Z" fill="url(#paint0_linear_32_5)"/>
    <path d="M118.29 114.17C116.9 126.47 113.54 144 109.12 152.69C102.84 165.04 113.7 154.01 114.88 152.8C114.95 152.73 115.01 152.58 115.05 152.37C115.44 150.56 117.83 143 118.95 114.83C119.01 113.37 118.44 112.81 118.29 114.17Z" fill="url(#paint1_linear_32_5)"/>
    <path d="M110.98 112.14C111.51 111.19 111.35 110.63 110.78 111.46C93.82 135.99 72.23 146.67 66.18 150.19C64.63 151.09 64.78 153.96 66.4 154.61C66.7 154.73 68.35 155.1 70.83 154.13C73.04 153.27 91.69 147 110.98 112.13V112.14Z" fill="url(#paint2_linear_32_5)"/>
    <path d="M57.91 57.77C57.91 57.77 59.52 51.73 54.58 47.98C49.64 44.23 49.79 36.31 49.79 36.31C36.93 61.74 57.91 57.77 57.91 57.77Z" fill="url(#paint3_linear_32_5)"/>
    <path d="M58.96 47C58.96 47 62.95 42.63 61.12 38.29C59.29 33.95 63.11 27.68 63.11 27.68C41.93 44.41 58.96 46.99 58.96 46.99V47Z" fill="url(#paint4_linear_32_5)"/>
    <path d="M124.41 47.98C119.47 51.73 121.08 57.77 121.08 57.77C121.08 57.77 142.06 61.73 129.2 36.31C129.2 36.31 129.35 44.24 124.41 47.98Z" fill="url(#paint5_linear_32_5)"/>
    <path d="M117.87 38.29C116.04 42.63 120.03 47 120.03 47C120.03 47 137.07 44.42 115.88 27.69C115.88 27.69 119.69 33.96 117.87 38.3V38.29Z" fill="url(#paint6_linear_32_5)"/>
    <path d="M156.87 122.3V122.07C155.96 119.25 154.35 117 152.02 115.41L140.24 107.97C140.24 107.97 140.21 107.95 140.19 107.94L131.06 100.85C130.94 100.76 130.86 100.63 130.83 100.49C129.08 92.18 127.38 83.49 124.8 75.11L123.55 70.28C127.37 71.27 132.03 68.89 136.16 56.66C136.16 56.66 130.75 61.74 124.8 59.99C123.29 59.55 121.97 59.54 120.83 59.79C117.58 50.39 116.17 47.07 113.55 41.2L109.21 31.5C104.48 21.47 100.94 16.28 96.01 7.35C95.19 5.87 94.29 4.43 93.3 3.05L91.88 1.06C90.87 -0.410005 87.84 -0.420005 86.93 1.57L85.88 3.5C80.1 14.83 74.67 23.02 69.34 34.76L65.73 42.97C63.48 48.08 61.55 53.31 59.93 58.65L59.46 60.21C58.07 59.63 56.32 59.38 54.2 60C48.25 61.75 42.84 56.67 42.84 56.67C47.36 70.06 52.51 71.64 56.51 69.93L54.91 75.22C53.87 78.2 52.87 81.16 51.92 84.09C51.89 84.17 51.85 84.25 51.79 84.31C49.41 86.91 47.78 89.32 46.35 92.13C45.49 93.81 44.78 96.9 44.42 98.92C44.25 99.89 44.17 101.03 44.17 102.13L21.1 116.83L19.71 105.42C21.58 104.8 22.47 104.31 24.12 103.3L24.76 102.39C26.18 100.37 26.82 97.91 26.58 95.46C25.93 89 31.33 85.91 26.81 82.2C26.09 81.61 25.25 81.04 24.33 80.51C24.21 76.01 24.03 68.47 24.11 65.99C24.23 62.36 24.35 57.4 20.73 57.44C18.45 57.47 17.67 63.57 17.53 66.53C17.28 64.9 16.94 57.8 14.03 58.02C13.36 58.07 10.31 58.02 11.38 68.08C11.8 72.02 11.23 74.9 10.9 77.16C10.82 77.44 10.75 77.54 10.7 77.56L2.93001 83.74C1.39001 85.1 -0.549987 87.43 0.160013 90.21L2.98001 101.24C4.11001 103.76 4.53001 104.29 5.50001 105.27C6.58001 106.35 7.84002 106.41 9.31002 106.58C9.57002 106.61 9.83002 106.61 10.09 106.64L11.44 122.73C11.33 125.56 11.92 127.2 13.45 128.4C14.99 129.2 16.51 129.12 18.84 128.06L43.7 113.47C41.75 122.13 37.28 143.38 36.58 147.04C36.58 147.06 36.58 147.08 36.57 147.1L33.81 156.36C33.62 156.99 34.42 157.45 34.87 156.96L41.54 149.64C41.63 149.54 41.68 149.42 41.7 149.29C42.32 143.53 45.92 122.68 47.12 116.34C47.22 115.8 47.92 115.65 48.24 116.1C48.4 116.34 48.58 116.57 48.75 116.81C49.38 117.66 50.06 118.51 50.79 119.34C51.19 119.8 51.59 120.24 52.08 120.7C53.16 121.71 54.35 122.61 55.64 123.52C60.54 126.9 66.05 128.77 72.13 129.06C74.16 129.15 76.25 129.08 78.4 128.82C87.01 127.81 94.02 124.31 99.66 118.45C99.67 118.44 99.68 118.43 99.69 118.41L100.56 117.38L102.03 115.62C102.03 115.62 102.05 115.6 102.06 115.59L102.53 114.95C102.53 114.95 102.55 114.92 102.56 114.91C103.45 113.46 104.33 112.1 105.02 110.64C105.32 110.08 105.51 109.4 105.81 108.84C106.51 107.15 106.9 105.45 107.2 103.64V103.3C107.27 102.93 107.29 102.51 107.32 102.07C107.35 101.7 107.7 101.43 108.06 101.51C108.66 101.63 109.31 101.8 110 102.01C110.36 102.13 110.79 102.29 111.17 102.43C111.81 102.65 112.46 102.88 113.17 103.17C113.3 103.22 113.4 103.25 113.53 103.3C115.32 104.05 117.38 105.02 119.53 106.18C119.65 106.25 119.75 106.29 119.86 106.35C121.93 107.48 123.72 108.38 125.1 109.17C126.42 109.85 126.96 110.38 127.41 110.73C127.53 110.82 127.61 110.95 127.63 111.1C128.53 115.81 132.18 137.39 132.82 141.33L134.75 153.97C134.76 154.1 134.82 154.23 134.91 154.32L140.5 160.34C140.8 160.67 141.35 160.58 141.52 160.17C142.18 158.67 142.34 156.27 142.36 155.86C142.36 155.82 142.36 155.78 142.38 155.74C145.3 144.61 147.08 139.8 154.84 130.56H154.94C156.96 128.3 157.56 125.59 156.86 122.32L156.87 122.3ZM79.91 124.06C64.87 126.71 50.87 118.63 48.65 106.01C46.43 93.39 56.82 81.02 71.87 78.38C86.91 75.73 100.91 83.81 103.13 96.43C105.35 109.04 94.96 121.42 79.91 124.06ZM148.29 124.75C148.22 124.85 148.13 124.92 148.02 124.97L139.29 128.81C139.23 128.84 139.17 128.85 139.1 128.86C137.95 129 136.86 128.8 135.85 128.29C135.67 128.2 135.55 128.02 135.52 127.82C134.84 122.72 134.18 117.82 133.81 115.32C133.73 114.78 134.34 114.41 134.78 114.72L148.27 124.21L148.47 124.44L148.27 124.74L148.29 124.75Z" fill="url(#paint7_linear_32_5)"/>
    <defs>
        <linearGradient id="paint0_linear_32_5" x1="-1035.07" y1="-140.716" x2="122.748" y2="614.072" gradientUnits="userSpaceOnUse">
            <stop offset="0.15" stop-color="#FFCB04"/>
            <stop offset="0.26" stop-color="#F9A719"/>
            <stop offset="0.33" stop-color="#FBBA0D"/>
            <stop offset="0.41" stop-color="#FECC03"/>
            <stop offset="0.47" stop-color="#FFD300"/>
            <stop offset="0.56" stop-color="#FECE02"/>
            <stop offset="0.67" stop-color="#FCC008"/>
            <stop offset="0.78" stop-color="#F9A813"/>
            <stop offset="0.87" stop-color="#F6921E"/>
        </linearGradient>
        <linearGradient id="paint1_linear_32_5" x1="-4410.77" y1="-23.9799" x2="-4228.13" y2="1024.11" gradientUnits="userSpaceOnUse">
            <stop offset="0.15" stop-color="#FFCB04"/>
            <stop offset="0.26" stop-color="#F9A719"/>
            <stop offset="0.33" stop-color="#FBBA0D"/>
            <stop offset="0.41" stop-color="#FECC03"/>
            <stop offset="0.47" stop-color="#FFD300"/>
            <stop offset="0.56" stop-color="#FECE02"/>
            <stop offset="0.67" stop-color="#FCC008"/>
            <stop offset="0.78" stop-color="#F9A813"/>
            <stop offset="0.87" stop-color="#F6921E"/>
        </linearGradient>
        <linearGradient id="paint2_linear_32_5" x1="-743.229" y1="-243.761" x2="494.298" y2="173.437" gradientUnits="userSpaceOnUse">
            <stop offset="0.15" stop-color="#FFCB04"/>
            <stop offset="0.26" stop-color="#F9A719"/>
            <stop offset="0.33" stop-color="#FBBA0D"/>
            <stop offset="0.41" stop-color="#FECC03"/>
            <stop offset="0.47" stop-color="#FFD300"/>
            <stop offset="0.56" stop-color="#FECE02"/>
            <stop offset="0.67" stop-color="#FCC008"/>
            <stop offset="0.78" stop-color="#F9A813"/>
            <stop offset="0.87" stop-color="#F6921E"/>
        </linearGradient>
        <linearGradient id="paint3_linear_32_5" x1="-540.562" y1="-89.0248" x2="1535.75" y2="1186.96" gradientUnits="userSpaceOnUse">
            <stop offset="0.15" stop-color="#FFCB04"/>
            <stop offset="0.26" stop-color="#F9A719"/>
            <stop offset="0.33" stop-color="#FBBA0D"/>
            <stop offset="0.41" stop-color="#FECC03"/>
            <stop offset="0.47" stop-color="#FFD300"/>
            <stop offset="0.56" stop-color="#FECE02"/>
            <stop offset="0.67" stop-color="#FCC008"/>
            <stop offset="0.78" stop-color="#F9A813"/>
            <stop offset="0.87" stop-color="#F6921E"/>
        </linearGradient>
        <linearGradient id="paint4_linear_32_5" x1="-547.886" y1="-56.823" x2="1396.4" y2="1202.88" gradientUnits="userSpaceOnUse">
            <stop offset="0.15" stop-color="#FFCB04"/>
            <stop offset="0.26" stop-color="#F9A719"/>
            <stop offset="0.33" stop-color="#FBBA0D"/>
            <stop offset="0.41" stop-color="#FECC03"/>
            <stop offset="0.47" stop-color="#FFD300"/>
            <stop offset="0.56" stop-color="#FECE02"/>
            <stop offset="0.67" stop-color="#FCC008"/>
            <stop offset="0.78" stop-color="#F9A813"/>
            <stop offset="0.87" stop-color="#F6921E"/>
        </linearGradient>
        <linearGradient id="paint5_linear_32_5" x1="-14252.5" y1="-1385.75" x2="-1247.42" y2="12169.7" gradientUnits="userSpaceOnUse">
            <stop offset="0.15" stop-color="#FFCB04"/>
            <stop offset="0.26" stop-color="#F9A719"/>
            <stop offset="0.33" stop-color="#FBBA0D"/>
            <stop offset="0.41" stop-color="#FECC03"/>
            <stop offset="0.47" stop-color="#FFD300"/>
            <stop offset="0.56" stop-color="#FECE02"/>
            <stop offset="0.67" stop-color="#FCC008"/>
            <stop offset="0.78" stop-color="#F9A813"/>
            <stop offset="0.87" stop-color="#F6921E"/>
        </linearGradient>
        <linearGradient id="paint6_linear_32_5" x1="-11648.3" y1="-1037.34" x2="-1129.88" y2="10507.7" gradientUnits="userSpaceOnUse">
            <stop offset="0.15" stop-color="#FFCB04"/>
            <stop offset="0.26" stop-color="#F9A719"/>
            <stop offset="0.33" stop-color="#FBBA0D"/>
            <stop offset="0.41" stop-color="#FECC03"/>
            <stop offset="0.47" stop-color="#FFD300"/>
            <stop offset="0.56" stop-color="#FECE02"/>
            <stop offset="0.67" stop-color="#FCC008"/>
            <stop offset="0.78" stop-color="#F9A813"/>
            <stop offset="0.87" stop-color="#F6921E"/>
        </linearGradient>
        <linearGradient id="paint7_linear_32_5" x1="-12.72" y1="51.28" x2="164.65" y2="115.84" gradientUnits="userSpaceOnUse">
            <stop offset="0.15" stop-color="#FFCB04"/>
            <stop offset="0.26" stop-color="#F9A719"/>
            <stop offset="0.33" stop-color="#FBBA0D"/>
            <stop offset="0.41" stop-color="#FECC03"/>
            <stop offset="0.47" stop-color="#FFD300"/>
            <stop offset="0.56" stop-color="#FECE02"/>
            <stop offset="0.67" stop-color="#FCC008"/>
            <stop offset="0.78" stop-color="#F9A813"/>
            <stop offset="0.87" stop-color="#F6921E"/>
        </linearGradient>
    </defs>
</svg>
