<?xml version="1.0" standalone="no"?>
<svg version="1.0" xmlns="http://www.w3.org/2000/svg"
     width="300.000000pt" height="450.000000pt" viewBox="0 0 300.000000 450.000000"
     preserveAspectRatio="xMidYMid meet">
    <metadata>
        Created by potrace 1.10, written by Peter Selinger 2001-2011
    </metadata>
    <g transform="translate(0.000000,450.000000) scale(0.100000,-0.100000)"
       fill="#000000" stroke="none">
        <path d="M2034 4014 c3 -16 19 -82 35 -146 27 -112 27 -118 10 -118 -27 0 -59
-36 -59 -65 0 -50 83 -41 96 10 5 22 -24 184 -42 229 -7 17 -5 17 24 2 41 -21
62 -53 62 -94 0 -20 4 -31 10 -27 17 11 11 76 -11 111 -11 19 -24 34 -28 34
-4 0 -29 21 -56 46 -47 45 -48 46 -41 18z"/>
        <path d="M990 3866 c0 -104 -3 -110 -78 -129 -72 -19 -284 -117 -266 -123 6
-3 36 9 67 26 31 16 59 30 62 30 3 0 5 -12 5 -27 -1 -24 -9 -32 -62 -56 -33
-15 -59 -30 -55 -33 3 -3 22 3 44 14 68 35 80 36 85 7 5 -23 -2 -29 -83 -72
-49 -26 -89 -50 -89 -55 0 -13 5 -11 91 37 45 25 83 45 84 45 3 0 25 -119 25
-132 0 -3 -11 -9 -25 -12 -29 -7 -49 -39 -40 -66 7 -23 42 -26 70 -6 16 11 17
22 12 77 -4 35 -10 81 -13 102 -8 44 10 51 28 11 10 -21 9 -27 -3 -35 -11 -7
-11 -9 0 -9 10 0 12 -9 8 -37 -5 -27 -3 -33 5 -25 14 14 23 111 14 146 -3 14
-24 46 -46 71 -34 39 -49 65 -37 65 1 0 42 14 90 30 49 17 90 30 93 30 2 0 4
-11 4 -25 0 -17 -4 -23 -14 -19 -8 3 -24 1 -35 -6 -25 -13 -29 -67 -6 -76 23
-9 65 23 65 49 0 23 42 51 57 37 4 -4 26 -1 48 6 l40 14 -49 -5 c-41 -4 -47
-3 -42 11 3 9 6 20 6 24 0 5 27 14 60 21 33 6 60 16 60 21 0 9 -58 2 -98 -13
-16 -6 -24 -5 -26 4 -2 6 -6 19 -9 28 -4 13 10 18 74 29 43 7 79 16 79 21 0
11 6 12 -86 -6 -86 -16 -94 -13 -94 38 0 15 -4 27 -10 27 -5 0 -10 -24 -10
-54z m40 -130 c0 -7 -7 -19 -15 -26 -13 -11 -15 -8 -15 14 0 16 5 26 15 26 8
0 15 -6 15 -14z m-171 -194 c12 -26 11 -26 -23 7 -20 19 -36 39 -36 43 0 17
47 -23 59 -50z"/>
        <path d="M1450 3910 c-71 -10 -109 -25 -143 -58 -20 -19 -30 -23 -38 -15 -13
13 -65 -28 -74 -58 -4 -11 -12 -19 -20 -19 -13 0 -45 -58 -45 -83 0 -10 -7
-13 -19 -10 -16 4 -18 -1 -17 -56 2 -45 8 -68 24 -90 14 -20 22 -45 22 -71 0
-26 11 -62 30 -98 16 -31 32 -65 35 -75 3 -11 14 -21 25 -24 11 -3 23 -17 26
-32 3 -14 12 -48 20 -75 20 -71 18 -149 -4 -169 -33 -30 -137 -77 -171 -77
-19 0 -53 -9 -75 -19 -23 -10 -73 -28 -112 -40 -137 -40 -251 -157 -318 -327
-15 -38 -44 -87 -65 -109 -20 -22 -50 -57 -65 -77 -15 -21 -31 -38 -35 -38
-10 0 -47 123 -66 223 -22 116 -19 177 11 250 18 43 28 86 31 142 4 73 10 111
43 262 19 85 -8 97 -71 34 -32 -32 -39 -46 -39 -77 0 -46 -34 -107 -56 -102
-8 2 -24 18 -35 36 l-21 32 36 0 c29 0 39 5 48 24 18 42 4 59 -47 54 -30 -2
-45 1 -45 9 0 12 11 17 66 28 45 9 78 47 70 81 -7 27 -10 28 -76 8 -25 -7 -25
-7 -7 14 11 12 17 31 15 49 -2 23 -7 28 -28 25 -14 -2 -36 -3 -50 -3 -42 -1
-106 -56 -132 -113 -19 -42 -23 -66 -21 -131 1 -49 -4 -98 -13 -126 -14 -46
-14 -46 32 -169 70 -185 76 -259 48 -564 -15 -165 -15 -184 0 -261 9 -45 33
-120 55 -166 21 -46 47 -103 57 -127 22 -55 60 -76 118 -68 48 8 138 47 182
81 l32 25 68 -36 c97 -51 127 -40 186 67 18 32 35 56 39 54 4 -3 4 -26 1 -51
-4 -37 -1 -50 12 -60 17 -12 16 -14 -5 -43 -19 -26 -21 -35 -11 -55 9 -20 8
-27 -5 -38 -27 -22 -45 -76 -33 -98 5 -10 10 -21 10 -24 0 -3 -53 -6 -117 -6
l-118 -1 -85 -101 c-47 -55 -140 -166 -207 -247 l-123 -146 0 -122 0 -123
1329 0 1330 0 3 121 3 121 -73 87 c-41 47 -134 157 -209 244 l-135 158 16 79
c9 43 19 104 22 134 6 54 16 68 29 46 17 -28 155 -80 212 -80 41 0 86 44 108
107 9 27 30 82 46 124 48 128 54 195 33 345 -12 89 -18 187 -18 314 l1 185 43
124 43 124 -7 137 c-3 76 -11 151 -17 168 -9 27 -120 132 -139 132 -22 0 -33
-32 -22 -65 5 -19 8 -35 6 -35 -3 0 -22 12 -44 26 -33 22 -43 24 -55 14 -38
-32 0 -100 70 -125 l40 -14 -40 -1 c-60 0 -83 -31 -49 -64 8 -9 31 -16 49 -16
19 0 37 -5 41 -12 8 -13 -49 -68 -71 -68 -21 0 -43 38 -51 90 -9 54 -52 103
-86 98 -26 -3 -27 -14 -8 -112 7 -41 8 -74 1 -105 -6 -30 -6 -73 0 -125 9 -71
19 -100 66 -180 25 -43 12 -205 -29 -344 -20 -69 -22 -72 -40 -56 -10 10 -18
26 -18 36 0 11 -22 43 -50 72 -37 39 -50 61 -50 83 0 20 -11 41 -33 64 -18 19
-61 69 -96 113 -36 43 -79 88 -98 98 -18 11 -33 26 -33 34 0 7 -12 21 -26 31
-14 10 -40 32 -59 50 -20 19 -49 35 -72 39 -21 3 -57 19 -81 35 -24 15 -75 36
-113 46 l-69 17 0 45 c0 24 5 72 11 106 8 47 15 63 32 70 12 6 27 24 32 40 6
17 23 51 38 76 28 47 34 96 17 130 -8 15 -6 25 10 47 12 16 25 54 29 86 8 56
7 57 -15 52 -20 -5 -22 -2 -22 30 0 39 -7 37 88 17 20 -4 23 -3 13 7 -7 7 -35
13 -62 14 -45 1 -52 4 -62 29 -13 31 -24 34 -34 10 -6 -16 -7 -16 -18 3 -24
42 -57 76 -69 71 -7 -2 -28 5 -47 16 -58 35 -176 51 -271 37z m63 -30 c-18
-11 -33 -23 -33 -26 0 -4 7 -1 15 6 9 7 48 14 88 16 39 1 67 0 61 -2 -7 -3
-10 -13 -7 -23 4 -15 -4 -18 -62 -19 -37 -1 -70 -4 -75 -7 -8 -5 -60 17 -60
26 0 11 28 30 57 39 46 14 50 11 16 -10z m-71 1 c-8 -4 -13 -12 -13 -17 2 -27
-14 -43 -54 -53 -47 -12 -69 -37 -59 -68 4 -11 3 -14 -3 -7 -4 6 -15 13 -23
16 -11 3 -4 15 25 42 29 28 32 33 12 21 -42 -26 -47 -8 -7 26 36 29 61 39 42
16 -7 -9 -8 -17 -1 -27 8 -12 12 -12 16 -2 2 6 8 10 12 8 4 -3 8 1 8 9 0 8 -4
12 -9 9 -4 -3 -8 -1 -8 3 0 5 12 14 28 20 33 13 52 16 34 4z m273 -37 c30 -19
34 -39 5 -24 -11 6 -20 8 -20 4 0 -3 -7 -1 -15 6 -13 11 -14 10 -8 -6 6 -17 5
-17 -10 -5 -42 34 0 56 48 25z m105 -82 c-1 -16 -1 -16 -14 1 -19 24 -29 21
-15 -5 10 -21 10 -22 -5 -7 -9 8 -19 33 -22 55 l-6 39 31 -33 c17 -18 31 -40
31 -50z m-274 42 c-3 -9 -6 -19 -6 -24 0 -5 -10 -11 -22 -13 -17 -3 -15 -5 8
-6 18 0 34 -7 37 -14 7 -19 -85 -43 -110 -29 -16 9 -15 12 10 23 22 10 27 18
23 35 -7 25 14 43 48 44 12 0 16 -5 12 -16z m120 -19 c34 -26 42 -55 13 -48
-10 3 -15 11 -13 18 3 7 -2 15 -11 19 -11 4 -14 2 -8 -6 10 -17 12 -48 3 -48
-12 0 -90 79 -90 91 0 18 71 0 106 -26z m-398 -24 c-4 -45 -3 -48 16 -43 17 4
19 2 8 -9 -17 -19 -48 1 -44 29 2 11 -1 23 -6 26 -5 3 -8 -10 -6 -29 1 -19 -2
-35 -7 -35 -6 0 -8 4 -4 9 3 5 1 12 -4 15 -5 4 -11 1 -14 -6 -2 -7 -3 0 -1 17
4 29 39 75 57 75 5 0 8 -21 5 -49z m202 41 c0 -24 -53 -56 -96 -58 l-45 -2 23
25 c13 14 32 29 43 33 26 11 75 12 75 2z m264 -15 c17 -14 26 -29 22 -35 -13
-22 -32 -12 -49 23 -19 41 -13 44 27 12z m159 -72 c2 -14 0 -25 -4 -25 -5 0
-9 7 -9 15 0 8 -5 15 -11 15 -6 0 -9 -7 -6 -15 4 -8 2 -17 -4 -20 -15 -10 -21
19 -9 49 8 22 13 26 24 17 8 -6 16 -23 19 -36z m-712 -67 c-7 -17 -10 -18 -10
-5 -1 9 -5 17 -11 17 -14 0 -13 26 2 53 11 21 12 21 20 -10 5 -17 4 -41 -1
-55z m239 64 c0 -13 -31 -38 -77 -61 -48 -24 -56 -26 -51 -9 2 6 15 13 29 15
13 2 33 13 44 24 17 17 17 19 3 13 -10 -3 -18 -10 -18 -16 0 -5 -4 -7 -8 -4
-5 3 -25 -4 -45 -14 -21 -11 -37 -16 -37 -10 0 5 5 10 10 10 6 0 9 5 8 12 -2
6 17 19 42 29 48 19 100 24 100 11z m193 1 c15 -14 -18 -33 -57 -32 -22 1 -32
4 -21 6 11 3 29 12 40 19 22 16 29 17 38 7z m211 -12 c22 -25 29 -61 11 -61
-17 0 -45 38 -45 62 0 23 13 23 34 -1z m-66 -11 c17 -11 32 -27 32 -36 0 -16
-2 -16 -19 0 -11 10 -25 15 -30 11 -6 -3 -11 -2 -11 4 0 6 -7 8 -15 5 -8 -4
-15 -1 -15 6 0 6 -5 8 -12 4 -14 -9 18 -34 44 -34 10 0 18 -4 18 -9 0 -16 -49
1 -76 26 -22 20 -24 27 -13 34 23 14 62 10 97 -11z m-518 -26 c0 -20 -18 -54
-29 -54 -18 0 -21 34 -5 51 21 23 34 24 34 3z m313 -6 c-6 -12 55 -10 77 2 15
8 19 5 24 -16 4 -13 11 -22 16 -19 6 3 10 1 10 -4 0 -6 3 -10 8 -10 20 3 25
-2 12 -12 -11 -8 -5 -9 25 -5 l40 6 -30 -15 -30 -14 30 2 c23 2 33 -4 44 -25
14 -25 14 -28 -2 -40 -17 -13 -15 -48 3 -48 7 0 16 -20 25 -56 2 -6 -2 -18 -7
-25 -8 -11 -9 -10 -4 4 11 33 -4 17 -24 -28 -11 -25 -35 -61 -53 -82 -17 -20
-27 -34 -20 -30 8 5 11 -5 8 -38 -4 -62 12 -67 20 -6 4 28 13 55 21 62 8 6 14
18 14 25 0 8 4 14 9 14 13 0 19 -32 9 -50 -4 -8 -12 -35 -19 -59 -12 -48 -90
-140 -144 -169 -33 -18 -155 -26 -155 -10 0 5 -4 7 -8 4 -4 -2 -14 -1 -22 5
-12 7 -12 9 -2 9 9 0 6 10 -10 29 -14 16 -29 26 -38 23 -13 -5 -13 -3 -2 10
11 14 10 16 -7 11 -18 -5 -21 0 -23 33 -3 89 -4 100 -11 111 -4 6 0 13 8 17
19 7 8 36 -13 36 -13 0 -12 -3 4 -16 12 -10 14 -14 4 -11 -8 2 -19 12 -25 23
-5 11 -20 34 -33 51 -14 19 -18 34 -12 38 5 3 10 11 10 16 0 6 -3 8 -7 6 -5
-3 -9 10 -10 28 -2 19 2 37 8 41 8 4 9 0 4 -15 -4 -13 -2 -21 5 -21 6 0 23
-11 38 -25 39 -37 87 -43 123 -16 32 24 38 18 12 -12 -17 -19 -17 -20 4 -8 21
11 22 9 20 -19 -1 -18 -9 -32 -19 -36 -15 -4 -58 -65 -58 -81 0 -3 9 2 20 12
11 10 20 13 20 7 0 -5 20 -20 45 -32 43 -21 47 -21 80 -6 48 23 60 48 40 86
-20 38 -28 38 -20 0 4 -17 2 -30 -3 -30 -5 0 -12 14 -14 30 -3 17 -1 30 3 30
3 0 9 10 13 23 5 18 8 20 16 7 5 -8 10 -10 10 -4 0 6 -8 18 -17 25 -9 8 -14 9
-10 3 4 -7 0 -17 -8 -24 -19 -16 -19 -7 1 32 l16 32 13 -25 c18 -33 80 -32
108 3 11 12 24 22 29 20 14 -4 20 25 9 46 -15 27 -74 35 -136 19 -52 -14 -64
-11 -78 23 -9 22 5 -172 14 -197 8 -22 -9 -73 -25 -73 -14 0 -76 41 -76 51 0
5 7 9 15 9 9 0 20 11 25 24 11 29 16 173 6 183 -3 3 -6 -2 -6 -12 0 -18 -3
-18 -108 1 -39 7 -82 -11 -82 -35 -1 -14 -2 -14 -10 0 -8 14 -8 40 -1 101 1 4
10 10 21 13 11 4 18 10 15 15 -3 5 0 12 6 16 8 4 9 3 5 -4 -4 -7 0 -12 10 -12
10 0 14 3 11 6 -10 10 35 41 74 52 39 11 129 11 122 0z m330 -26 l-6 -27 26
30 26 30 1 -36 c0 -19 -7 -44 -15 -55 -14 -18 -14 -16 -9 16 5 24 3 32 -4 25
-6 -5 -12 -21 -15 -35 -4 -24 -4 -24 -6 3 0 16 -7 27 -16 27 -8 0 -12 6 -10
15 3 8 7 22 10 31 8 26 25 4 18 -24z m-735 -17 c7 -14 12 -34 12 -43 -1 -15
-3 -14 -16 3 -16 19 -16 19 -9 -5 4 -14 14 -33 23 -42 8 -10 11 -18 6 -18 -22
0 -49 71 -45 118 2 20 17 14 29 -13z m701 -29 c27 -28 23 -73 -5 -67 -18 3
-18 2 -1 -16 9 -11 17 -28 17 -38 0 -18 -1 -18 -14 0 -13 18 -14 18 -10 -10
l5 -30 -14 30 c-8 17 -11 32 -8 35 10 9 6 34 -12 67 -9 18 -17 39 -17 47 0 20
33 10 59 -18z m-565 9 c-4 -8 -10 -15 -16 -15 -5 0 -6 4 -3 10 3 6 -1 7 -10 3
-12 -4 -13 -8 -5 -13 8 -5 1 -16 -22 -34 -43 -32 -64 -34 -24 -2 16 13 27 29
25 35 -2 6 -16 1 -32 -14 -19 -18 -27 -21 -27 -11 0 24 50 56 86 56 26 0 32
-4 28 -15z m-40 -107 c-7 -47 -24 -75 -24 -41 0 12 -3 28 -6 36 -4 12 19 47
32 47 2 0 1 -19 -2 -42z m-70 -25 c-6 -34 -5 -36 8 -25 13 10 17 10 22 -4 9
-23 7 -36 -4 -29 -13 8 -13 -1 1 -27 9 -16 13 -18 19 -7 9 13 12 5 24 -69 8
-45 -15 -38 -29 9 -6 19 -20 50 -33 69 -27 43 -30 120 -5 120 2 0 1 -17 -3
-37z m726 -27 c0 -16 -12 -44 -26 -63 -14 -19 -29 -46 -33 -61 -4 -15 -15 -28
-24 -30 -29 -6 -16 50 16 71 16 10 30 29 34 48 4 23 8 27 15 17 6 -8 8 3 4 32
-5 32 -3 41 4 30 5 -8 10 -28 10 -44z m-540 29 c-35 -20 -62 -19 -36 0 11 8
29 15 40 15 19 -1 19 -2 -4 -15z m364 0 c-3 -6 -12 -11 -22 -11 -9 0 -33 -4
-52 -8 -26 -5 -31 -4 -20 3 8 6 26 11 40 12 23 0 23 1 5 9 -16 7 -12 9 16 8
22 -1 35 -6 33 -13z m-316 -40 c30 0 28 -13 -4 -21 -19 -5 -31 -1 -47 16 l-22
22 25 -8 c14 -4 35 -8 48 -9z m279 -10 c-6 -17 -54 -18 -60 -1 -5 11 2 14 29
13 18 -1 32 -6 31 -12z m1233 -160 c0 -6 -37 14 -60 32 -8 6 -19 13 -25 15 -5
2 -9 7 -7 11 1 4 -5 10 -13 13 -8 4 -15 17 -15 31 0 22 6 18 60 -36 33 -34 60
-63 60 -66z m-2664 83 c-9 -5 -14 -13 -11 -18 6 -9 -54 -46 -67 -42 -5 1 -8
-2 -8 -8 0 -5 -7 -10 -15 -10 -8 0 -15 -5 -15 -12 0 -6 -3 -9 -6 -5 -4 3 -13
-1 -21 -9 -9 -8 -18 -12 -22 -9 -7 8 46 55 120 108 33 23 55 33 58 26 2 -7 -4
-16 -13 -21z m-56 14 c0 -5 -20 -22 -45 -40 -55 -38 -59 -31 -7 14 37 33 52
41 52 26z m2552 -70 c38 1 148 -46 148 -62 0 -6 -6 -8 -12 -4 -8 4 -10 3 -5
-2 5 -5 14 -9 20 -9 7 0 12 -13 12 -29 l1 -28 -28 31 c-15 17 -28 28 -28 25 0
-4 -8 0 -18 9 -9 9 -29 18 -44 21 -52 9 -108 48 -108 75 0 12 4 10 15 -6 10
-14 25 -21 47 -21z m-2418 -1 c9 -14 -26 -38 -74 -51 -25 -7 -49 -15 -55 -20
-5 -4 -22 -10 -37 -14 -16 -3 -28 -11 -28 -17 0 -6 -5 -7 -12 -3 -8 5 -9 2 -5
-9 3 -9 0 -23 -8 -31 -8 -8 -15 -22 -15 -31 0 -9 -5 -13 -10 -10 -11 7 -13 48
-4 83 8 27 81 68 169 93 75 21 73 21 79 10z m980 -37 c3 -9 6 -31 6 -50 0 -19
4 -34 9 -34 6 0 9 -9 8 -20 -2 -31 -11 -24 -32 27 -17 40 -21 65 -16 88 2 11
19 4 25 -11z m-874 -28 c0 -2 -7 -20 -15 -40 -9 -20 -17 -54 -20 -74 -2 -20
-9 -55 -15 -77 -7 -22 -12 -58 -13 -80 0 -22 -2 -34 -4 -27 -3 6 -9 12 -15 12
-6 0 -3 -9 7 -20 11 -13 15 -25 10 -37 -5 -10 -7 -28 -6 -40 3 -25 -27 -88
-37 -78 -4 4 -7 19 -7 33 0 15 -5 26 -11 25 -6 -1 -11 3 -12 10 -9 61 -16 88
-24 93 -5 3 -6 -6 -3 -23 3 -15 -3 -7 -12 20 -16 41 -20 45 -30 30 -11 -17
-12 -17 -12 -1 -1 9 4 20 9 23 6 4 8 15 5 26 -4 11 -2 19 4 19 6 0 11 -5 11
-11 0 -5 4 -7 10 -4 13 8 90 -32 90 -47 0 -9 3 -9 11 -1 12 12 3 37 -11 28 -4
-3 -11 6 -14 19 -7 29 23 88 41 81 7 -2 15 0 19 6 3 6 -3 13 -15 16 -31 8 -27
46 10 88 27 30 49 44 49 31z m2177 -21 c31 -22 40 -72 16 -91 -17 -15 -17 -15
5 -11 15 4 22 0 24 -11 2 -32 4 -37 11 -48 4 -7 -1 -18 -10 -25 -15 -12 -16
-12 -10 4 4 11 3 16 -3 12 -6 -4 -9 -12 -8 -19 2 -6 -7 -24 -19 -39 l-22 -28
6 38 c3 21 11 44 17 52 9 12 8 13 -2 7 -11 -6 -13 0 -11 30 2 46 -8 90 -27
122 -18 27 -1 31 33 7z m248 -46 c27 -13 51 -34 56 -47 12 -30 11 -45 0 -38
-10 7 -9 -20 2 -30 3 -4 3 -12 0 -18 -10 -16 -11 -46 -1 -40 4 3 8 -2 8 -10 0
-9 -8 -14 -20 -13 -11 1 -20 4 -20 7 0 3 -7 15 -16 26 -15 18 -15 18 -10 -5 3
-16 2 -21 -5 -14 -5 5 -11 30 -12 54 -2 39 0 44 18 41 12 -1 26 6 33 19 8 12
9 18 2 14 -6 -4 -22 1 -36 10 -13 9 -28 14 -33 11 -5 -3 -16 3 -25 13 -11 12
-25 16 -41 13 -27 -5 -59 14 -49 30 10 15 100 2 149 -23z m-2571 -13 c-3 -8
-19 -17 -35 -20 -16 -3 -44 -9 -61 -13 -18 -4 -37 -7 -43 -8 -5 0 -9 -8 -7
-17 1 -9 -9 -29 -23 -44 -32 -35 -16 -43 25 -14 l30 21 0 -21 c0 -11 -6 -28
-12 -36 -29 -34 -33 -40 -36 -53 -2 -11 3 -10 22 3 32 20 40 20 32 0 -3 -8 -2
-12 4 -9 6 3 10 -5 10 -19 0 -14 5 -26 11 -26 5 0 7 6 4 13 -4 6 7 -3 24 -21
18 -18 29 -37 26 -43 -4 -5 -1 -8 6 -7 17 4 34 -61 25 -96 -3 -14 -11 -26 -17
-26 -8 0 -8 4 0 14 9 11 9 16 0 22 -7 4 -9 3 -5 -4 3 -6 2 -13 -4 -17 -6 -4
-8 -10 -5 -15 3 -5 -4 -14 -16 -21 -17 -8 -23 -8 -29 1 -4 7 -13 9 -20 5 -8
-5 -11 -4 -7 2 4 5 -7 23 -23 38 -22 22 -27 32 -19 41 8 10 16 11 31 3 15 -8
17 -13 8 -19 -9 -5 -6 -12 11 -24 15 -10 18 -16 9 -16 -13 0 -13 -2 0 -10 8
-5 20 -10 25 -10 6 0 3 5 -5 10 -8 5 -11 10 -6 10 5 0 3 7 -4 15 -10 12 -10
15 1 15 7 0 3 7 -9 16 -12 8 -20 19 -18 23 3 4 -10 7 -27 6 -34 0 -46 24 -17
33 13 5 13 3 0 -14 -14 -18 -14 -18 3 -5 12 9 17 10 17 2 0 -7 5 -9 11 -6 16
11 -26 36 -47 28 -11 -4 -15 -3 -10 5 3 6 2 13 -4 17 -15 9 -12 28 3 19 7 -4
9 -3 4 2 -5 5 -14 9 -20 9 -5 0 -12 6 -15 14 -3 9 0 11 8 6 10 -6 11 -4 4 6
-4 8 -9 20 -10 27 -2 8 -6 17 -10 20 -4 4 -4 -1 -1 -11 4 -10 3 -16 -2 -13
-24 15 -20 58 13 130 29 63 39 76 63 81 15 4 33 8 38 10 6 2 31 4 57 4 37 1
46 -2 42 -13z m1452 -138 c-1 -53 -6 -83 -14 -86 -7 -2 -12 -8 -12 -13 0 -6 5
-7 10 -4 6 3 10 1 10 -4 0 -6 -5 -11 -12 -11 -9 0 -9 -3 0 -12 16 -16 15 -25
-1 -31 -9 -3 -13 4 -13 24 1 16 -3 29 -9 29 -12 0 -14 -21 -3 -36 11 -15 -17
-38 -34 -28 -7 4 -10 4 -6 -1 4 -4 3 -14 -3 -22 -12 -14 2 -19 15 -5 4 4 13 7
19 7 7 1 11 6 10 13 -2 6 4 9 12 6 11 -5 9 -12 -13 -33 -38 -38 -59 -48 -117
-55 -27 -3 -44 -3 -37 0 10 5 7 10 -10 18 -12 7 -22 18 -21 24 3 11 -31 52
-41 52 -7 0 26 -63 43 -84 15 -18 14 -18 -34 -11 -27 4 -55 11 -61 16 -6 5
-13 6 -16 3 -9 -9 -117 26 -195 63 -67 31 -72 35 -61 53 7 11 16 21 20 21 5 1
11 2 16 4 51 14 62 19 62 28 0 6 3 7 7 4 3 -4 13 -1 22 6 14 11 14 10 2 -5
-12 -17 -9 -23 12 -19 5 1 6 -3 2 -9 -3 -6 -11 -8 -16 -5 -5 4 -9 2 -9 -2 0
-5 9 -14 20 -21 11 -7 20 -18 20 -25 0 -7 16 -19 36 -26 24 -9 32 -16 24 -21
-8 -5 -7 -9 5 -13 11 -5 14 -3 9 5 -5 8 -1 9 12 5 18 -7 18 -7 0 8 -11 8 -16
15 -12 15 5 0 2 7 -5 17 -8 9 -14 23 -14 32 0 9 -4 21 -8 28 -4 6 -3 14 3 18
5 3 10 12 10 18 0 8 -3 7 -9 -2 -7 -11 -11 -10 -20 5 -10 17 -10 16 -7 -6 3
-14 5 -26 5 -27 3 -8 -5 -18 -12 -15 -5 1 -6 -2 -3 -7 4 -5 1 -13 -4 -16 -8
-5 -9 5 -4 31 11 59 12 128 2 141 -6 7 -5 14 2 18 14 9 77 -49 77 -70 0 -8 -5
-11 -10 -8 -6 3 -2 -6 9 -20 10 -15 23 -27 27 -27 5 0 5 -4 2 -10 -3 -5 -1
-10 5 -10 6 0 9 -4 5 -9 -3 -6 4 -15 15 -21 14 -7 19 -17 16 -27 -5 -12 -2
-14 16 -8 13 4 43 9 68 10 l45 3 -40 -7 -40 -8 40 -3 40 -3 -35 -4 c-19 -3
-39 -9 -45 -14 -6 -6 3 -7 25 -3 26 4 31 3 20 -5 -11 -8 -12 -11 -2 -11 22 0
2 -20 -21 -21 -21 0 -21 -1 2 -10 13 -5 25 -8 26 -7 22 35 45 82 45 94 0 8 5
14 12 14 6 0 9 3 5 6 -3 4 4 15 16 26 12 11 16 16 8 12 -10 -5 -12 -3 -7 5 5
7 14 10 21 7 8 -3 12 2 10 12 -1 9 2 22 7 29 6 7 5 14 -3 19 -8 5 -9 3 -4 -6
5 -8 4 -11 -3 -6 -7 4 -10 -1 -7 -14 2 -11 0 -20 -6 -20 -10 0 -8 28 4 47 4 7
14 10 21 7 8 -3 17 0 22 7 4 8 3 10 -4 5 -7 -4 -12 -4 -12 -1 0 6 50 75 55 75
1 0 2 -37 1 -82z m-1524 14 c-9 -43 -26 -46 -30 -5 -2 24 1 32 15 35 23 6 22
8 15 -30z m2557 -22 c-2 -52 -19 -61 -19 -9 0 16 -4 29 -10 29 -5 0 -7 -23 -5
-52 3 -41 2 -46 -4 -23 l-9 30 -1 -33 c-1 -19 -7 -35 -16 -38 -8 -4 -12 -10
-9 -15 3 -5 1 -9 -4 -9 -5 0 -9 -6 -10 -12 0 -7 -9 -35 -18 -63 l-18 -50 -19
45 c-23 52 -36 137 -19 126 6 -3 8 1 6 11 -2 10 5 29 16 43 11 14 20 19 20 13
0 -8 8 -6 23 7 12 10 25 20 29 20 4 1 20 7 35 15 16 8 29 15 30 15 2 0 2 -22
2 -50z m-900 -47 l46 -48 -24 40 -23 40 26 -30 c15 -16 25 -38 22 -48 -2 -9 0
-15 4 -12 10 6 35 -60 55 -145 15 -65 74 -234 75 -214 0 6 -13 51 -30 100 -16
49 -23 81 -16 71 8 -10 30 -67 50 -128 36 -106 57 -243 55 -354 l-1 -40 -9 45
c-27 132 -47 202 -106 370 -78 224 -110 292 -163 353 -57 65 -23 64 39 0z
m-262 10 c-2 -15 -10 -29 -18 -31 -11 -3 -11 -1 1 7 13 9 12 11 -5 12 -20 0
-20 0 0 9 11 5 14 9 7 9 -15 1 -6 21 9 21 5 0 8 -12 6 -27z m1247 2 c11 -8 30
-15 43 -15 21 0 22 -2 11 -20 -14 -22 -30 -27 -25 -9 1 6 -5 14 -13 16 -13 4
-13 3 0 -6 13 -10 13 -11 0 -11 -12 -1 -11 -3 3 -11 17 -10 17 -13 3 -34 -12
-18 -12 -25 -3 -29 6 -2 -4 -3 -23 0 -27 3 -31 2 -15 -5 14 -7 15 -10 5 -11
-13 0 -12 -2 1 -10 15 -9 15 -14 2 -52 -8 -24 -18 -47 -23 -52 -5 -5 -2 -19 7
-32 14 -22 14 -24 0 -24 -17 0 -18 -44 -3 -69 6 -9 5 -12 -2 -7 -6 3 -13 -2
-15 -11 -4 -14 -5 -13 -6 4 0 12 -6 25 -11 28 -6 4 -7 13 -1 23 4 9 6 23 4 30
-3 6 0 12 6 12 6 0 11 4 11 9 0 5 -8 7 -17 5 -22 -6 -28 -61 -10 -82 8 -10 11
-46 11 -101 -2 -89 13 -86 17 3 4 62 12 49 11 -16 -1 -68 -7 -108 -28 -216 -1
-8 1 -11 4 -7 4 3 14 41 24 83 11 55 16 67 17 42 0 -19 -4 -52 -8 -74 -9 -38
2 -39 12 -1 3 11 3 -1 0 -27 -3 -27 -1 -48 3 -48 5 0 9 -47 9 -104 0 -57 -3
-102 -7 -99 -5 2 -8 21 -9 41 0 20 -3 31 -6 24 -2 -6 -9 -10 -14 -6 -5 3 -9
-11 -9 -30 0 -22 5 -35 11 -33 6 1 14 -5 17 -13 2 -8 1 -12 -3 -8 -5 5 -15 -1
-23 -13 -17 -25 -10 -35 11 -14 10 9 18 11 22 5 3 -6 -1 -13 -9 -16 -12 -5
-13 -11 -5 -27 9 -20 9 -20 -4 -5 -18 22 -30 12 -16 -14 8 -15 7 -24 -4 -36
-8 -9 -12 -23 -10 -29 3 -7 0 -13 -5 -13 -16 0 -24 -33 -10 -42 10 -6 8 -8 -4
-8 -16 0 -23 11 -19 33 1 5 -3 6 -9 2 -5 -3 -10 -1 -10 5 0 6 8 10 18 8 10 -2
16 2 14 11 -2 8 3 18 10 22 7 4 10 11 6 14 -8 8 -58 -46 -58 -62 0 -6 5 -13
11 -15 16 -5 3 -41 -28 -81 l-25 -32 29 31 c35 36 65 51 56 28 -3 -8 -8 -13
-10 -10 -3 3 -16 -8 -29 -24 -14 -16 -32 -28 -42 -28 -9 0 -26 -3 -37 -8 -14
-5 -11 1 10 20 l30 27 -33 -16 c-24 -12 -37 -13 -46 -6 -7 6 -16 7 -20 3 -4
-4 -6 0 -4 8 2 8 -4 15 -12 15 -32 1 -56 32 -25 32 8 0 15 -5 15 -10 0 -5 7
-6 16 -3 8 3 12 2 9 -4 -3 -6 1 -7 10 -4 11 5 14 2 9 -12 -6 -16 -3 -15 15 4
14 14 29 21 41 17 20 -6 37 10 21 20 -10 6 21 58 52 90 13 13 14 19 4 30 -13
14 -27 11 -27 -6 0 -6 5 -7 10 -4 6 3 10 1 10 -4 0 -6 -5 -11 -11 -11 -5 0
-15 -13 -20 -30 -11 -30 -27 -34 -59 -16 -8 5 -12 6 -8 1 10 -10 -31 -40 -40
-30 -4 4 2 13 13 22 20 15 20 15 0 11 -15 -2 -19 2 -17 17 3 18 2 18 -13 -3
-26 -36 -37 -14 -42 85 -6 111 -18 127 -18 23 0 -43 3 -74 6 -69 3 6 6 -4 6
-21 0 -20 -3 -26 -9 -18 -11 19 -10 0 3 -23 5 -11 14 -17 19 -14 13 8 24 -15
13 -26 -6 -6 -15 -4 -23 6 -12 14 -15 14 -31 -1 -11 -10 -19 -13 -19 -8 0 6
-16 16 -35 23 -32 11 -48 31 -25 31 6 0 10 -4 10 -9 0 -11 26 -8 37 4 4 4 3 6
-2 2 -16 -9 -39 9 -30 23 6 10 9 10 15 0 5 -8 13 4 23 31 8 24 16 36 16 26 1
-10 -3 -27 -9 -37 -11 -21 -3 -53 11 -44 5 3 9 10 9 15 0 6 -4 8 -9 5 -5 -3
-3 11 5 32 7 20 13 48 13 62 0 23 -1 23 -9 5 -12 -27 -11 -13 0 70 10 64 89
266 125 318 7 10 10 28 8 40 -5 22 -5 22 11 2 15 -19 15 -18 4 14 -7 23 -8 36
-1 38 6 2 8 16 5 30 -4 22 -2 25 13 19 15 -5 16 -4 5 9 -9 11 -9 22 -1 45 5
17 8 37 5 44 -3 8 -1 17 4 20 5 3 8 -9 7 -28 -2 -18 0 -39 5 -46 5 -7 8 3 8
26 1 22 3 51 5 67 2 15 0 30 -5 33 -4 3 -5 10 -2 16 4 7 2 8 -5 4 -6 -4 -9
-12 -6 -17 4 -5 2 -9 -3 -9 -5 0 -9 16 -9 35 l0 34 24 -23 c22 -23 24 -23 56
-7 19 9 41 25 49 36 15 19 14 21 -3 22 -10 1 -21 -2 -24 -8 -3 -5 1 -6 9 -3
28 11 17 -5 -15 -22 -24 -12 -34 -13 -39 -4 -4 6 -11 12 -16 12 -23 2 -44 25
-44 48 1 42 37 108 71 129 18 11 38 34 45 50 14 34 29 38 58 16z m-1336 -10
c3 -3 -2 -5 -11 -5 -9 0 -18 -4 -21 -9 -3 -4 6 -6 19 -3 35 6 31 -5 -7 -22
-18 -8 -27 -15 -20 -15 7 -1 11 -5 8 -9 -2 -4 12 -7 32 -5 36 2 36 2 6 -6 -17
-4 -37 -11 -44 -16 -8 -5 -11 -4 -7 2 4 6 0 16 -8 23 -12 10 -13 16 -3 28 10
13 10 14 1 8 -7 -4 -13 -3 -13 3 0 5 -7 16 -15 25 -14 13 -10 14 32 10 25 -2
49 -6 51 -9z m513 -167 c23 -54 45 -95 49 -93 16 10 17 66 1 75 -9 5 -12 10
-7 10 4 0 0 12 -9 28 l-18 27 23 -20 24 -20 -22 38 c-23 40 -21 77 4 56 23
-19 43 -107 52 -224 10 -125 4 -265 -9 -244 -5 8 -9 28 -9 44 0 17 -14 68 -31
115 -16 47 -30 93 -30 103 0 9 -4 15 -8 13 -4 -3 -8 0 -8 7 0 7 -11 37 -25 67
-14 30 -31 71 -38 90 -7 19 -22 51 -32 70 l-20 35 36 -40 c20 -22 54 -84 77
-137z m-453 111 c-6 -4 -5 -9 3 -12 10 -4 10 -6 -2 -6 -9 -1 -19 5 -22 12 -3
9 -17 13 -39 11 l-33 -3 33 11 c18 6 32 18 32 27 0 12 6 9 20 -9 12 -16 15
-27 8 -31z m236 25 c7 -19 -2 -59 -22 -99 -9 -16 -15 -36 -13 -44 1 -7 -2 -11
-7 -7 -5 3 -9 0 -9 -7 0 -7 -23 -50 -52 -96 -28 -46 -51 -89 -51 -95 0 -6 5
-3 11 7 6 9 14 15 19 12 4 -3 16 8 26 23 15 24 15 25 1 13 -27 -22 -20 -4 24
60 22 33 44 57 48 54 5 -2 8 3 7 13 0 9 5 16 12 14 8 -1 11 2 8 7 -3 5 2 19
12 31 15 18 20 20 24 9 3 -8 -42 -86 -103 -179 -60 -91 -137 -212 -171 -268
-35 -57 -99 -152 -143 -210 -78 -105 -289 -332 -307 -332 -5 0 -6 6 -1 13 4 6
8 18 9 24 2 13 63 68 75 68 4 0 11 4 16 9 5 5 3 6 -4 2 -19 -10 -16 -1 4 15
15 12 16 12 8 -1 -5 -9 -5 -12 1 -7 5 5 9 13 9 17 0 5 27 40 61 77 89 100 176
210 217 276 55 85 45 82 -15 -6 -66 -95 -128 -170 -136 -163 -3 4 6 19 20 34
29 31 158 216 158 227 0 4 -36 -44 -81 -107 -84 -117 -157 -206 -243 -295 -27
-29 -47 -55 -45 -58 3 -3 45 40 94 95 49 55 90 98 93 95 3 -2 -27 -39 -66 -82
-78 -87 -139 -146 -127 -123 5 8 -51 -43 -122 -114 -72 -70 -135 -128 -139
-128 -5 0 -17 -7 -26 -15 -10 -9 -18 -11 -18 -6 0 6 73 80 162 164 258 246
392 418 623 798 96 158 135 238 135 276 0 28 15 33 24 9z m-470 -51 c-1 -16
-2 -30 -3 -32 -1 -2 -8 2 -16 9 -14 12 -14 15 1 31 22 24 21 24 18 -8z m-257
-5 c15 -7 53 -29 83 -49 30 -21 90 -56 133 -79 86 -47 162 -60 253 -44 46 8
44 8 -51 14 -73 5 -112 12 -145 28 -25 12 -34 20 -20 17 14 -3 57 -13 95 -21
74 -17 178 -14 215 6 25 13 26 -1 3 -22 -40 -35 -83 -48 -155 -48 -71 0 -72
-1 -44 -15 16 -9 50 -14 80 -13 l51 1 -55 7 -55 7 54 -1 c64 -1 80 -21 25 -32
-54 -10 -131 11 -219 61 -43 25 -80 43 -82 41 -6 -5 118 -83 167 -105 62 -27
122 -36 149 -21 20 10 21 10 9 -9 -11 -17 -21 -20 -69 -18 -90 5 -188 59 -303
167 -55 52 -101 88 -109 84 -7 -2 -22 4 -32 16 -10 11 -25 20 -34 21 -12 0
-11 3 4 9 11 5 21 9 22 9 1 1 15 -5 30 -11z m41 -103 c44 -49 43 -43 -7 26
-13 19 22 -14 79 -74 108 -113 196 -183 273 -216 26 -11 47 -23 47 -25 0 -3
-7 -2 -17 1 -10 4 -14 2 -10 -4 4 -6 -2 -13 -13 -16 -11 -3 -18 -1 -15 3 6 9
-65 54 -73 46 -2 -3 -21 7 -41 23 -63 48 -68 44 -11 -9 30 -28 75 -64 100 -78
41 -25 43 -27 21 -30 -19 -3 -21 -6 -10 -13 11 -8 9 -9 -6 -6 -11 2 -19 9 -17
16 1 7 -2 9 -8 6 -7 -4 -22 3 -36 16 -13 12 -24 18 -25 13 -1 -18 -8 -46 -11
-49 -2 -2 -9 4 -16 15 -8 14 -9 21 0 26 7 5 8 3 3 -6 -5 -9 -4 -11 3 -6 17 10
15 23 -4 30 -8 3 -12 2 -9 -4 3 -6 1 -10 -4 -10 -20 0 -11 -19 36 -77 25 -32
37 -50 26 -40 -12 10 -30 20 -40 21 -10 2 -17 11 -17 20 1 8 -2 13 -7 11 -4
-3 -32 35 -61 85 -29 50 -54 87 -55 83 -4 -11 101 -208 133 -250 30 -39 31
-52 3 -27 l-22 19 17 -32 c9 -18 12 -33 7 -33 -14 0 -115 182 -180 324 -30 64
-56 115 -58 113 -11 -12 121 -326 172 -408 43 -70 46 -88 4 -31 -17 23 -32 42
-34 42 -7 0 17 -60 26 -66 5 -3 9 -10 9 -15 0 -6 -6 -7 -12 -3 -10 6 -10 5 -1
-7 9 -11 9 -18 0 -29 -16 -19 -41 -25 -34 -7 3 7 -1 24 -9 38 -7 13 -13 31
-13 39 0 8 11 -5 24 -30 29 -55 33 -45 5 11 -12 22 -25 37 -29 34 -5 -3 -25
37 -45 88 -37 95 -63 145 -51 97 4 -14 13 -40 22 -58 8 -19 12 -37 8 -40 -9
-9 -26 20 -20 36 2 6 1 12 -4 12 -4 0 -25 56 -46 125 -21 69 -40 123 -43 120
-8 -8 80 -288 129 -406 37 -90 46 -124 40 -141 -7 -21 -12 -16 -44 47 -44 86
-48 79 -7 -12 17 -36 28 -68 25 -71 -3 -3 -21 29 -40 71 -50 109 -88 262 -126
505 -16 107 -22 80 -10 -45 19 -186 58 -364 108 -490 20 -49 22 -66 13 -82
-15 -29 -26 -26 -39 10 -13 38 -14 60 -2 41 5 -9 8 -4 7 16 -1 17 -4 28 -8 25
-5 -2 -8 5 -8 16 0 11 -4 22 -9 26 -6 3 -6 -7 0 -27 5 -18 7 -40 4 -49 -3 -9
2 -36 11 -58 9 -23 14 -45 10 -48 -19 -20 -71 176 -85 328 -7 63 -16 155 -20
204 -8 86 -9 83 -9 -70 0 -173 7 -287 17 -281 3 2 7 -22 7 -53 1 -31 9 -82 17
-113 8 -32 12 -60 8 -63 -11 -6 -28 54 -42 145 -6 41 -13 77 -15 79 -2 2 -3
-27 -3 -65 1 -38 -1 -87 -4 -109 l-6 -40 10 43 c15 61 23 45 10 -18 -6 -28
-11 -65 -11 -82 0 -52 -10 -26 -20 53 -9 71 1 496 16 669 3 41 2 71 -2 67 -11
-11 -11 -11 -13 -108 -1 -50 -5 -78 -11 -74 -5 3 -10 19 -10 35 0 34 -21 132
-30 143 -4 5 -1 -27 6 -70 17 -98 29 -294 16 -273 -8 14 -14 41 -48 235 l-14
80 4 -82 4 -82 -25 29 c-38 45 -48 36 -14 -12 29 -42 62 -147 76 -248 l7 -45
-34 65 c-33 63 -107 150 -129 150 -6 0 9 -22 33 -48 46 -51 91 -135 103 -189
3 -18 11 -33 16 -33 5 0 8 -24 8 -52 -1 -29 2 -79 6 -112 5 -37 4 -61 -3 -65
-7 -4 -6 -18 3 -43 10 -31 10 -38 -2 -42 -22 -9 -24 -8 -22 17 4 40 -1 68 -10
63 -19 -12 -33 24 -27 71 6 53 -2 125 -14 118 -4 -3 -14 10 -21 28 -7 17 -31
51 -52 75 -22 23 -37 42 -33 42 11 0 68 -65 87 -100 10 -19 18 -30 19 -24 0
13 -55 97 -74 113 -8 7 -23 13 -34 16 -10 2 -42 15 -71 30 -28 15 -54 26 -56
23 -2 -2 26 -24 63 -48 74 -50 136 -123 129 -152 -3 -10 -1 -16 3 -13 14 8 30
-64 29 -125 -1 -30 -4 -44 -6 -30 -9 56 -55 187 -74 210 -22 27 -22 25 5 -34
19 -43 47 -172 45 -214 l-1 -27 -7 25 c-6 21 -8 16 -14 -27 -8 -71 -22 -93
-55 -93 -15 0 -34 5 -42 11 -11 8 -7 9 16 4 46 -9 64 14 64 80 0 106 -34 210
-88 268 -14 15 -21 27 -15 27 5 0 27 -23 47 -52 20 -29 36 -47 36 -41 0 16
-68 98 -82 99 -7 0 -35 15 -63 32 -27 18 -67 38 -87 44 -20 6 -40 18 -43 26
-8 21 81 10 135 -18 23 -12 44 -19 47 -16 12 11 -107 57 -148 58 -62 1 -25 18
59 28 54 6 59 8 27 10 -54 3 -87 0 -107 -11 -10 -6 -18 -7 -18 -5 0 13 86 48
133 54 l52 7 -40 5 -40 5 24 25 c13 14 20 18 16 10 -5 -9 -5 -12 1 -7 5 5 9
12 9 15 0 4 23 32 52 62 58 62 62 82 5 29 -76 -71 -162 -140 -162 -130 0 5 41
47 90 93 72 66 99 99 132 161 28 54 59 95 102 134 42 38 52 51 31 40 -47 -23
-110 -94 -146 -161 -18 -33 -43 -72 -56 -86 -21 -22 -20 -16 11 53 58 127 95
168 201 219 78 37 115 36 158 -2 19 -16 37 -27 40 -24 3 3 24 -23 48 -58 68
-101 162 -228 167 -223 6 6 -176 264 -217 308 -34 36 -60 50 -45 25 4 -7 3 -9
-1 -5 -5 4 -10 14 -11 22 -4 26 74 -24 124 -80z m1047 -8 c5 -35 4 -182 -4
-517 0 -34 -3 -41 -11 -30 -7 11 -10 3 -10 -30 0 -25 -5 -52 -11 -60 -8 -11
-9 -6 -5 20 3 19 10 146 16 281 10 230 5 340 -16 405 -5 16 -2 15 15 -4 11
-13 23 -42 26 -65z m-273 -40 c1 -62 1 -62 8 -17 l7 45 1 -50 c2 -68 -14 -209
-38 -327 -15 -71 -17 -102 -10 -120 9 -19 10 -16 6 17 -3 22 -2 33 1 25 4 -9
12 9 19 45 l13 60 -6 -55 c-3 -30 -20 -138 -39 -240 -44 -246 -47 -266 -29
-205 18 63 79 417 101 590 9 72 19 132 21 135 10 9 -6 -261 -22 -398 -9 -74
-14 -136 -11 -139 3 -4 6 2 7 13 1 42 47 397 48 374 2 -59 -22 -318 -44 -466
-27 -184 -98 -484 -112 -471 -2 3 12 71 32 151 20 80 35 153 32 163 -4 15 -5
14 -6 -4 -1 -18 -69 -257 -87 -303 -4 -13 -7 -12 -15 2 -7 12 -5 36 6 77 8 32
14 69 14 82 -2 24 -2 24 -6 -1 -9 -52 -46 -170 -54 -170 -11 0 -12 -6 11 84
21 84 92 422 110 523 8 47 8 73 -1 102 -10 34 -8 65 16 206 15 91 25 168 23
170 -3 3 -17 -73 -32 -168 -15 -94 -32 -196 -38 -225 -5 -30 -7 -56 -5 -59 3
-3 9 17 13 44 7 47 8 47 16 18 6 -22 -3 -89 -33 -243 -23 -117 -43 -211 -46
-209 -2 3 5 56 17 120 11 63 19 124 19 134 -2 22 2 35 -45 -180 -41 -187 -67
-275 -89 -302 -20 -24 -22 -35 29 160 61 234 176 909 176 1035 0 74 20 53 22
-23z m323 0 l-5 -32 13 29 13 29 19 -41 c11 -22 23 -38 27 -36 7 5 12 -9 24
-66 6 -30 8 -32 13 -13 6 22 8 21 49 -18 44 -42 56 -67 24 -50 -19 10 -70 4
-89 -11 -7 -6 -14 -5 -19 3 -5 8 -3 9 6 4 9 -5 11 -4 6 4 -4 6 -4 11 1 10 4
-1 15 -1 23 0 11 1 11 4 2 13 -9 9 -16 7 -31 -6 -11 -10 -19 -21 -19 -25 1 -3
-6 -22 -16 -41 -11 -19 -22 -46 -27 -60 -6 -22 -7 -22 -8 -4 -1 11 5 41 13 67
10 34 11 44 2 41 -7 -3 -18 -46 -26 -99 -7 -52 -16 -95 -21 -95 -5 0 -6 12 -4
28 8 49 23 316 20 364 -1 28 1 45 7 42 5 -3 7 -20 3 -37z m-453 -180 c-44 -89
-108 -206 -142 -260 -34 -54 -58 -102 -54 -109 4 -6 3 -8 -3 -5 -6 4 -34 -30
-64 -77 -29 -47 -56 -83 -60 -80 -4 2 -11 -1 -15 -7 -5 -8 -3 -9 6 -4 8 5 11
3 8 -6 -3 -8 -10 -13 -16 -12 -6 2 -26 -15 -43 -37 -18 -22 -35 -38 -38 -35
-7 8 -131 -117 -125 -126 2 -4 -20 -27 -48 -52 -60 -50 -150 -109 -129 -84 17
21 7 22 -23 2 -13 -9 -34 -18 -46 -20 -13 -2 -30 -11 -40 -20 -9 -8 -19 -15
-23 -15 -4 0 13 18 37 40 42 39 70 54 46 25 -19 -23 -3 -18 34 10 38 29 54 33
35 8 -12 -16 -10 -15 16 1 52 33 106 78 100 84 -3 3 12 23 32 45 25 26 -1 10
-77 -47 -63 -47 -119 -86 -125 -86 -5 1 4 12 20 26 45 39 9 17 -71 -43 -93
-69 -99 -77 -97 -130 1 -37 -1 -42 -13 -32 -21 17 -17 72 8 104 12 15 85 69
162 121 78 51 166 114 196 140 105 92 271 259 316 319 26 34 32 45 14 25 -82
-89 -198 -204 -225 -223 -16 -12 30 42 103 118 134 140 238 277 225 297 -3 6
-1 8 5 4 12 -7 162 250 162 278 0 6 -28 -41 -61 -104 -59 -110 -91 -159 -75
-115 16 46 129 235 137 230 4 -3 12 7 16 22 5 21 8 24 11 10 2 -10 -32 -91
-76 -180z m-1475 123 c-2 -22 0 -43 5 -46 4 -3 6 -29 4 -57 -4 -34 -3 -42 2
-22 7 27 9 22 21 -40 7 -38 13 -78 12 -88 0 -9 4 -15 10 -12 12 8 12 -47 -1
-79 -6 -17 -6 -26 0 -26 6 0 10 6 10 14 0 8 5 18 12 22 7 5 9 2 6 -7 -3 -8 -8
-25 -12 -39 l-7 -25 15 25 14 25 7 -28 c4 -15 11 -27 15 -27 14 0 20 -30 10
-56 -7 -18 -7 -23 1 -18 8 4 9 -1 4 -16 -5 -17 -4 -21 6 -15 9 6 11 3 6 -8 -3
-9 -3 -27 2 -39 6 -18 9 -19 14 -5 4 10 3 17 -1 17 -4 0 -7 10 -7 23 -1 12 -5
33 -9 47 l-8 25 17 -23 c9 -12 18 -30 20 -40 2 -9 8 -28 13 -42 5 -14 12 -47
16 -75 10 -72 27 -145 34 -145 11 0 14 123 4 165 -6 22 -17 57 -26 77 -15 35
-15 37 4 35 11 -1 20 -5 20 -10 0 -4 5 -5 11 -1 16 9 31 -18 16 -29 -9 -6 -8
-7 3 -6 34 3 41 -1 36 -23 -3 -13 -3 -17 0 -10 12 25 23 11 18 -24 -5 -41 -12
-56 -23 -50 -4 3 -8 -1 -8 -9 0 -11 4 -12 13 -4 8 7 14 6 17 -3 3 -7 6 2 7 20
2 17 4 37 5 42 1 6 3 15 4 22 1 9 4 9 13 0 13 -13 19 -74 6 -66 -4 3 -8 0 -8
-5 0 -29 -20 -51 -39 -43 -8 3 -12 1 -8 -5 7 -11 -38 -55 -47 -46 -12 12 -6
-13 7 -26 10 -11 7 -13 -15 -9 -27 5 -45 -13 -33 -32 3 -5 -4 -7 -15 -5 -11 2
-18 1 -16 -4 3 -4 -7 -8 -22 -8 -15 0 -36 -3 -47 -7 -19 -7 -19 -6 -1 6 10 7
32 25 47 40 29 28 43 24 33 -9 -3 -10 1 -7 10 7 8 14 15 30 15 35 1 6 -3 4 -8
-3 -6 -10 -10 -10 -21 3 -10 12 -10 15 2 15 11 0 14 7 10 28 -3 17 -7 22 -11
12 -3 -9 -10 0 -18 25 -10 29 -12 32 -8 10 2 -16 8 -41 11 -55 7 -22 6 -23 -8
-12 -13 11 -18 11 -24 0 -4 -7 -4 -10 1 -6 4 4 14 3 21 -3 18 -15 -6 -40 -33
-35 -12 3 -20 -1 -20 -10 0 -10 4 -11 14 -2 11 8 12 7 7 -6 -3 -9 -9 -16 -13
-16 -3 -1 -19 -12 -36 -26 -16 -14 -21 -21 -10 -16 13 7 26 7 38 0 12 -6 17
-6 13 0 -3 5 5 10 19 10 13 0 23 -5 22 -11 -1 -5 5 -12 13 -14 11 -3 12 -2 2
4 -10 7 -8 14 8 28 11 10 21 14 21 9 6 -44 1 -52 -48 -78 -19 -10 -33 -12 -35
-5 -2 5 -12 1 -23 -9 -21 -19 -97 -24 -123 -8 -13 8 -12 42 2 64 5 8 3 19 -3
25 -9 9 -10 7 -5 -8 4 -11 5 -18 3 -15 -35 41 -43 54 -26 41 12 -10 17 -10 17
-2 0 7 4 10 9 7 4 -3 2 20 -5 52 -8 31 -13 68 -13 82 1 14 6 3 13 -26 6 -28
19 -59 29 -68 9 -10 17 -23 17 -29 0 -7 -7 -3 -15 7 -8 11 -15 15 -15 10 0 -6
13 -25 29 -43 27 -30 29 -31 24 -10 -4 19 -3 21 6 9 8 -11 11 -12 11 -2 0 7 4
11 9 8 5 -4 7 3 4 14 -6 24 -21 26 -29 5 -7 -18 -22 -20 -21 -2 1 6 -5 40 -12
74 -14 64 -31 90 -52 78 -11 -7 -10 -27 6 -125 5 -33 5 -33 -6 -10 -7 14 -11
29 -10 34 1 5 -1 16 -4 25 -4 9 -9 41 -11 71 -3 30 -9 80 -14 110 -8 47 -8 44
-3 -25 4 -44 7 -97 7 -117 0 -21 4 -38 9 -38 9 0 2 -59 -9 -68 -4 -4 -4 1 -1
10 3 9 0 22 -8 28 -8 6 -12 17 -9 24 3 7 -2 19 -11 26 -16 14 -21 35 -5 25 6
-3 10 0 10 7 0 7 3 24 5 38 5 22 4 22 -4 5 -9 -18 -10 -17 -10 8 -1 16 2 26 7
24 4 -3 5 25 2 61 l-5 67 -3 -62 c-3 -70 -18 -88 -16 -20 1 30 0 33 -3 10 -2
-18 -7 -33 -11 -33 -13 0 1 451 15 488 6 17 9 -3 9 -65 -2 -177 5 -243 25
-254 13 -6 19 -6 19 1 0 5 -8 10 -17 11 -15 0 -15 2 -3 7 8 4 16 16 18 27 3
20 2 20 -13 1 -14 -18 -15 -16 -15 35 0 30 -2 79 -5 109 -4 41 -2 49 5 30 6
-18 8 -7 4 40 -7 81 -12 102 -26 94 -8 -5 -9 -1 -5 9 20 49 20 53 5 33 -14
-18 -15 -17 -15 13 0 31 10 40 22 21 3 -6 17 -7 31 -4 14 4 31 1 39 -6 10 -9
15 -9 15 -1 0 6 7 11 15 11 9 0 12 6 9 15 -4 8 -1 15 6 15 8 0 10 -13 7 -40z
m1513 -231 c-27 -107 -68 -261 -90 -343 -22 -82 -38 -151 -35 -154 3 -3 5 3 6
14 0 17 1 17 7 2 5 -13 14 0 31 48 13 36 25 63 27 61 2 -2 -10 -44 -26 -93
-17 -49 -29 -97 -26 -107 5 -20 -63 -227 -75 -227 -4 0 7 35 23 78 17 42 32
95 33 117 1 22 5 54 9 70 4 17 -10 -15 -32 -70 -43 -110 -131 -290 -138 -283
-2 3 23 61 56 129 57 119 104 238 96 246 -2 2 -13 -25 -26 -59 -23 -64 -133
-293 -152 -316 -25 -30 -16 2 28 99 71 158 103 236 135 328 38 111 36 129 -2
26 -50 -133 -229 -488 -229 -454 0 3 34 71 75 151 41 80 75 149 75 154 0 5
-31 -47 -68 -116 -67 -125 -109 -190 -123 -190 -4 0 15 37 43 83 94 156 298
580 285 593 -2 3 -10 -10 -17 -28 -7 -18 -57 -123 -111 -233 -123 -250 -254
-455 -267 -417 -2 7 -8 9 -14 6 -5 -3 10 20 35 52 106 141 210 324 277 486 19
45 37 75 43 71 6 -3 7 -1 3 5 -3 6 26 91 65 189 67 169 90 218 75 163 -6 -18
-5 -21 3 -10 5 8 18 46 28 85 9 38 19 63 20 54 2 -8 -19 -103 -47 -210z m-270
97 c-11 -11 -75 6 -104 27 -15 11 -5 11 48 -2 42 -10 63 -18 56 -25z m114 -93
c-42 -76 -92 -153 -100 -153 -6 0 -10 -6 65 118 35 56 65 102 68 102 3 0 -12
-30 -33 -67z m681 26 c-33 -29 -113 -175 -101 -186 2 -2 21 31 41 74 39 83 63
116 76 108 4 -3 -3 -16 -17 -30 -13 -13 -24 -28 -24 -34 0 -5 15 5 33 22 28
28 30 34 17 44 -18 14 -7 17 18 4 9 -5 35 -17 57 -26 l40 -18 -44 -8 c-83 -16
-144 -77 -210 -214 -59 -120 -68 -147 -49 -143 7 2 11 -4 9 -12 -7 -30 -9 -45
-10 -57 -1 -7 -7 -10 -15 -7 -10 4 -13 0 -10 -13 3 -10 -2 -38 -11 -62 -19
-54 -19 -60 0 -35 13 17 13 14 0 -25 -8 -24 -12 -47 -9 -52 3 -5 0 -9 -5 -9
-6 0 -11 -7 -11 -16 0 -8 -5 -12 -11 -8 -8 4 -9 -1 -4 -16 4 -13 3 -20 -2 -17
-6 4 -15 -16 -21 -44 -15 -63 -15 -72 -1 -63 9 5 10 -1 5 -20 -3 -14 -2 -26 3
-26 10 0 48 88 115 266 25 66 58 155 75 199 35 91 35 88 20 80 -13 -9 44 102
70 135 11 14 21 20 21 14 0 -6 -7 -17 -16 -25 -14 -12 -64 -100 -64 -114 0 -4
5 -3 12 1 7 5 9 2 5 -7 -37 -85 -58 -142 -54 -146 3 -2 11 13 17 34 7 21 24
60 37 87 13 26 20 45 14 41 -40 -24 34 89 94 144 47 43 78 51 111 27 17 -13
16 -14 -21 -10 -31 4 -46 0 -65 -16 -22 -18 -22 -20 -3 -11 12 6 30 8 40 5 15
-5 15 -4 3 5 -12 9 -10 11 11 11 14 0 33 -6 42 -12 15 -11 13 -13 -18 -15 -33
-2 -111 -40 -101 -50 2 -2 22 5 45 16 22 12 51 21 63 20 19 -1 17 -3 -8 -10
-54 -15 -127 -72 -166 -128 -21 -29 -35 -58 -32 -62 3 -5 -6 -28 -19 -51 -14
-24 -44 -89 -68 -145 -24 -56 -46 -100 -50 -97 -4 2 -5 -6 -2 -18 4 -19 3 -20
-7 -8 -9 12 -10 11 -5 -9 4 -14 3 -21 -3 -18 -5 4 -24 -29 -43 -73 -33 -77
-64 -110 -103 -110 -20 0 -20 2 4 52 11 23 20 52 20 64 0 13 20 92 44 176 25
84 41 157 37 163 -4 5 -7 29 -6 52 0 23 -3 39 -7 37 -4 -3 -8 0 -8 6 0 6 -4 9
-8 6 -4 -2 -8 9 -7 25 0 16 5 29 10 29 13 0 40 -42 36 -55 -1 -7 1 -7 7 0 6 6
27 64 47 130 44 142 94 244 133 267 43 27 46 21 7 -13z m-926 -61 c31 -28 33
-32 18 -43 -9 -7 -14 -15 -10 -18 3 -4 2 -7 -3 -7 -6 0 -23 15 -40 32 -23 27
-24 29 -3 10 34 -30 48 -28 19 3 -23 25 -35 55 -22 55 4 0 22 -15 41 -32z
m624 -101 c4 -51 11 -119 16 -152 l8 -60 2 55 c1 30 7 64 12 75 12 26 4 -73
-18 -220 l-17 -110 -13 40 c-12 35 -13 36 -8 8 3 -18 8 -47 12 -65 4 -22 3
-29 -5 -24 -8 5 -12 -4 -13 -26 -1 -31 -1 -32 -9 -8 -8 25 -8 24 -9 -5 -2 -39
-29 -136 -31 -110 -1 11 -8 -5 -15 -35 -8 -30 -14 -56 -15 -57 0 0 9 1 20 4
18 5 19 2 13 -28 -15 -83 -22 -88 -84 -66 -41 14 -40 21 4 117 26 55 26 55 26
21 2 -110 51 120 76 354 8 77 15 194 15 261 0 112 5 143 19 128 3 -3 9 -47 14
-97z m465 77 c12 -8 22 -23 21 -32 0 -13 -3 -11 -9 5 -5 12 -19 25 -32 27 -13
3 -32 7 -43 9 -13 3 -9 5 10 6 17 0 41 -6 53 -15z m-819 -100 c-66 -157 -189
-395 -199 -389 -5 3 -7 0 -5 -7 3 -8 -2 -22 -11 -33 -8 -11 -12 -14 -8 -6 5 9
3 12 -5 7 -6 -4 -9 -12 -5 -17 7 -13 -44 -95 -121 -194 -60 -77 -122 -141 -85
-89 8 12 40 53 71 90 58 73 123 164 116 164 -3 0 -26 -29 -52 -65 -26 -35 -51
-62 -55 -60 -4 2 -15 -4 -25 -15 -10 -11 -22 -17 -27 -14 -4 3 11 29 35 57 82
98 214 289 188 273 -7 -5 -8 -1 -4 10 5 12 3 15 -6 9 -10 -6 -11 -3 -2 14 13
24 23 29 15 7 -3 -8 0 -17 6 -21 6 -3 10 -3 9 2 -3 20 2 34 11 28 6 -3 7 1 4
9 -3 9 -11 13 -16 10 -6 -4 -5 3 1 15 14 25 22 28 15 4 -5 -15 -3 -15 10 1 19
23 21 40 4 30 -7 -4 -8 -3 -4 5 4 6 12 8 18 5 8 -5 9 -1 5 10 -5 11 -3 15 5
10 8 -5 9 -2 5 10 -4 9 -3 14 2 11 9 -5 27 32 23 48 -1 5 1 6 6 3 5 -3 20 20
35 50 15 30 31 53 35 50 4 -2 16 16 26 40 10 25 20 43 23 40 2 -2 -15 -48 -38
-102z m811 86 c19 -12 15 -14 -47 -34 -38 -13 -64 -30 -93 -63 -22 -25 -40
-50 -40 -55 0 -5 -5 -6 -12 -2 -6 4 -8 3 -5 -3 6 -9 -9 -51 -90 -266 -14 -38
-27 -66 -30 -64 -7 8 78 288 109 357 35 78 51 97 103 121 44 20 82 24 105 9z
m12 -160 c-34 -20 -68 -51 -98 -93 -57 -78 -69 -100 -139 -272 -63 -155 -114
-260 -121 -252 -3 3 3 22 14 44 11 21 50 110 87 198 36 88 78 180 92 205 20
34 22 41 8 30 -17 -14 -18 -14 -7 7 7 12 17 25 24 29 7 5 8 3 3 -6 -5 -8 -4
-11 3 -6 6 4 9 13 6 20 -9 23 126 125 166 126 8 0 -9 -14 -38 -30z m-741 -62
c-20 -75 -65 -199 -57 -163 9 47 69 245 73 241 3 -2 -4 -37 -16 -78z m737 -23
c1 -14 -3 -25 -8 -25 -5 0 -6 -7 -3 -17 5 -11 3 -14 -6 -8 -10 6 -11 3 -1 -15
7 -12 8 -20 2 -16 -16 10 -23 -37 -8 -53 10 -9 12 -22 6 -42 -5 -16 -9 -33 -9
-36 0 -4 -4 -9 -10 -11 -6 -2 -11 6 -11 17 0 12 -5 20 -12 19 -7 -2 -12 6 -13
17 0 11 -5 19 -11 18 -17 -3 -8 49 10 63 9 6 13 13 10 17 -5 5 20 61 38 85 16
18 23 15 26 -13z m-2338 -90 c6 17 8 15 12 -12 4 -31 4 -32 -14 -16 -10 9 -17
28 -17 42 2 24 2 24 7 -4 4 -26 5 -27 12 -10z m1950 2 c-5 -12 -17 -62 -25
-112 -34 -187 -104 -429 -121 -413 -2 3 7 37 21 77 13 39 42 153 65 254 22
100 42 192 45 205 3 13 10 20 15 17 6 -3 6 -14 0 -28z m-1422 -44 c0 -5 1 -15
5 -23 30 -79 38 -177 15 -185 -39 -13 -69 -11 -98 6 -30 18 -31 21 -17 37 23
25 9 80 -16 65 -7 -3 -4 3 6 15 11 12 25 18 35 15 11 -5 13 -3 7 8 -8 12 -6
12 8 0 22 -18 22 -35 0 -27 -10 4 -14 4 -11 0 4 -4 3 -15 -3 -25 -6 -12 -6
-19 0 -19 13 0 51 55 50 72 0 11 -2 11 -6 -1 -4 -10 -7 -10 -13 -1 -8 13 19
70 33 70 4 0 6 -3 5 -7z m1696 -26 c2 -14 0 -30 -6 -33 -7 -4 -8 -2 -4 4 5 8
2 10 -8 6 -13 -5 -12 -9 6 -23 13 -11 18 -23 14 -30 -6 -9 -12 -7 -22 6 -10
12 -13 13 -12 4 4 -21 30 -51 40 -45 4 3 8 -2 8 -10 0 -8 11 -23 25 -34 31
-25 31 -32 -1 -79 -21 -30 -25 -33 -20 -13 5 17 4 21 -2 11 -8 -11 -12 -10
-21 5 -16 28 -13 12 4 -23 13 -26 13 -36 -6 -104 -24 -86 -40 -110 -35 -53 2
21 4 45 5 52 1 7 5 11 10 8 5 -4 7 4 3 16 -3 11 -1 19 4 16 13 -8 11 53 -3 76
-10 18 -11 18 -18 -5 -4 -13 -13 -27 -19 -31 -8 -5 -7 -8 2 -8 7 0 15 7 18 15
4 8 10 13 14 10 5 -3 0 -28 -10 -56 -22 -60 -26 -65 -33 -45 -3 8 1 17 9 20 8
3 14 13 14 21 0 15 -1 15 -16 1 -20 -21 -34 -20 -34 1 0 13 -3 14 -12 5 -12
-12 -68 -17 -68 -6 0 3 15 38 34 77 19 40 44 98 57 130 12 31 27 57 31 57 5 0
7 4 3 9 -3 5 1 16 9 24 8 8 12 17 9 21 -3 3 0 12 7 21 15 19 17 17 24 -18z
m-960 1 c-28 -49 -191 -228 -207 -228 -6 0 0 11 12 24 13 14 18 25 11 28 -6 2
18 30 52 63 34 33 56 52 49 42 -8 -9 -12 -20 -9 -22 3 -3 24 19 48 50 39 51
61 72 44 43z m1006 -104 c-9 -10 -16 -11 -30 -1 -17 10 -18 13 -4 28 11 13 12
18 3 21 -7 2 -9 9 -5 17 6 9 14 4 28 -19 14 -24 16 -35 8 -46z m-1840 -5 c-6
-10 -17 -19 -25 -19 -8 0 -15 -6 -15 -13 0 -7 -8 -13 -19 -13 -11 0 -17 6 -16
16 2 8 4 18 4 22 1 10 64 36 74 31 4 -2 2 -13 -3 -24z m796 9 c-9 -13 -21 -34
-27 -48 -19 -46 -153 -200 -173 -200 -6 0 16 28 49 62 l60 62 -75 -69 c-104
-96 -109 -101 -72 -76 17 12 32 20 32 17 0 -9 -113 -97 -118 -91 -3 3 3 11 13
19 10 7 14 15 9 19 -11 6 -75 -49 -67 -57 4 -3 -3 -6 -15 -6 -31 0 -28 1 -66
-15 -40 -17 -45 -10 -39 46 4 28 13 40 44 60 22 13 41 22 43 19 1 -3 9 0 17 6
8 5 30 11 49 13 l35 3 -39 -40 c-73 -76 -31 -60 71 27 56 47 113 94 128 104
14 11 54 52 87 93 57 70 90 101 54 52z m265 -124 c-16 -44 -36 -96 -45 -116
-9 -20 -12 -39 -7 -42 5 -3 11 3 14 14 8 31 29 24 25 -7 -4 -35 -42 -45 -51
-14 -5 20 85 271 91 253 1 -5 -10 -45 -27 -88z m1024 68 c-3 -9 0 -20 7 -25 9
-6 8 -7 -5 -3 -10 3 -27 1 -37 -4 -14 -7 -23 -6 -34 6 -9 9 -16 11 -16 4 0 -6
-5 -8 -10 -5 -15 9 0 27 17 21 8 -3 23 0 34 7 26 19 51 18 44 -1z m-1495 -47
c0 -8 -91 -67 -96 -62 -3 3 14 19 38 36 41 29 58 37 58 26z m1245 -136 c-18
-85 -35 -142 -41 -136 -2 2 5 44 16 93 26 111 31 127 36 121 2 -2 -3 -37 -11
-78z m-1111 39 c-17 -30 -107 -128 -112 -123 -3 3 10 22 29 42 32 35 31 35
-13 -5 -31 -27 -53 -40 -64 -35 -12 5 -3 17 43 59 45 41 60 50 67 39 8 -10 14
-8 29 11 19 25 33 33 21 12z m973 -70 c16 -15 23 -32 22 -57 l-1 -36 -8 30
c-4 17 -8 26 -9 21 0 -5 -10 3 -22 18 -19 24 -58 38 -44 16 4 -6 11 -7 17 -4
7 4 8 2 4 -4 -4 -7 -1 -12 6 -12 8 0 15 -13 16 -31 2 -19 -2 -28 -8 -24 -5 3
-10 15 -10 26 0 13 -11 25 -31 33 -23 10 -27 15 -17 23 7 6 22 13 33 16 11 2
22 5 24 6 3 0 15 -9 28 -21z m-89 -24 c12 -4 22 -10 22 -14 0 -12 -39 -19 -46
-9 -3 5 -9 9 -15 9 -5 0 0 -9 11 -20 11 -11 20 -30 19 -42 0 -22 -1 -22 -9 -3
-8 17 -9 16 -11 -10 l-2 -30 -4 28 c-3 19 -15 35 -33 45 l-29 17 32 17 c37 20
35 20 65 12z m-384 -69 c125 -15 176 -32 66 -22 -43 4 -54 3 -32 -2 18 -5 36
-12 40 -16 4 -5 -4 -5 -17 -2 -13 3 -38 3 -55 0 -25 -5 -27 -7 -11 -13 12 -4
-3 -10 -45 -15 -74 -9 -80 -9 -250 -2 -138 5 -202 15 -194 28 3 5 1 9 -5 9
-24 0 -19 -20 6 -25 15 -4 37 -10 48 -15 33 -14 -5 -12 -69 5 -33 9 -61 14
-63 11 -2 -2 19 -10 47 -17 l51 -13 -44 -13 c-25 -7 -50 -20 -57 -28 -11 -13
-6 -18 32 -35 24 -10 64 -22 88 -26 33 -6 39 -9 25 -14 -11 -4 37 -5 108 -2
104 4 131 2 145 -10 21 -19 62 -29 62 -16 0 5 13 7 33 3 21 -4 28 -3 18 3 -11
8 -10 12 8 21 12 7 27 9 33 5 7 -4 8 -3 4 5 -16 25 25 23 49 -3 13 -14 27 -26
31 -26 4 0 -3 12 -17 26 -13 14 -24 33 -24 42 0 20 31 46 45 37 18 -11 11 -25
-12 -25 -17 0 -20 -3 -9 -9 8 -5 24 -8 36 -7 24 3 30 -20 8 -28 -9 -4 -11 -1
-7 6 4 7 3 8 -5 4 -6 -4 -20 -2 -29 5 -9 7 0 -4 21 -24 38 -37 60 -50 37 -22
-9 11 -9 17 3 29 13 13 18 11 41 -13 l27 -28 -66 -18 c-71 -20 -83 -34 -13
-17 67 17 143 53 129 61 -9 6 -8 11 4 21 14 11 19 7 16 -13 -1 -5 3 -6 9 -2 6
3 7 11 4 17 -5 7 -2 8 7 3 8 -5 11 -4 6 1 -5 5 -14 9 -20 9 -7 0 -13 14 -14
30 -2 29 -2 29 7 5 8 -24 8 -23 7 7 -1 27 -4 30 -16 20 -12 -10 -14 -9 -8 6 4
10 3 16 -1 13 -4 -2 -14 -1 -22 5 -12 7 -10 9 8 9 13 0 39 -15 58 -34 30 -29
34 -38 25 -54 -18 -33 -68 -69 -126 -91 -84 -32 -124 -35 -170 -15 -46 20 -72
26 -59 15 5 -5 27 -15 49 -22 33 -11 36 -14 17 -17 -13 -2 -36 1 -53 7 -34 12
-39 5 -6 -10 16 -7 4 -8 -48 -5 -45 3 -59 1 -40 -4 18 -4 -42 -8 -150 -8 -101
0 -171 3 -160 7 12 5 -8 7 -50 5 -60 -3 -65 -2 -36 7 43 13 35 22 -10 9 -18
-6 -45 -10 -59 -9 -21 1 -19 2 10 11 19 5 41 14 48 20 7 6 31 8 55 5 26 -4 34
-3 22 2 -16 7 -12 10 23 16 24 4 41 9 39 12 -7 6 -159 -26 -172 -37 -6 -5 -31
-12 -55 -15 -35 -4 -40 -3 -25 5 17 9 16 9 -9 5 -37 -8 -148 29 -187 62 -51
43 -55 61 -22 95 15 16 41 37 57 45 27 14 30 14 53 -9 22 -22 22 -26 9 -38
-11 -8 -16 -9 -17 -1 -1 6 -3 16 -4 21 -1 6 -3 13 -4 18 -1 4 -5 1 -10 -7 -5
-8 -21 -15 -36 -15 -14 -1 -30 -8 -35 -16 -13 -21 -12 -38 1 -20 8 12 9 9 5
-12 -3 -15 -1 -30 4 -33 6 -4 7 -12 3 -18 -4 -7 1 -5 11 3 21 16 60 25 51 11
-11 -19 13 -20 30 -1 10 11 21 18 24 15 4 -2 7 5 7 16 0 10 -7 19 -14 19 -9 0
-12 -6 -8 -16 3 -9 2 -12 -5 -9 -18 12 -5 38 19 40 18 1 22 -2 19 -17 -3 -10
-1 -21 4 -24 6 -3 5 -12 -3 -22 -11 -14 -9 -14 8 1 23 19 39 23 29 7 -4 -6 -3
-10 2 -9 28 5 36 -2 18 -15 -11 -8 -32 -12 -47 -11 -16 2 -32 -4 -40 -13 -12
-15 -11 -16 5 -3 9 7 17 9 17 4 0 -5 6 -10 13 -11 6 0 21 -3 32 -7 14 -4 30 3
54 24 19 17 39 31 45 31 6 -1 0 -10 -13 -20 -32 -27 -11 -25 23 1 20 16 24 24
15 29 -7 5 -17 6 -23 4 -15 -6 -18 36 -5 52 7 8 6 15 -2 20 -9 5 -8 9 5 14 14
5 10 8 -18 17 -20 6 -34 7 -31 3 3 -5 -1 -11 -7 -14 -7 -3 1 -3 17 0 l30 5
-29 -16 c-22 -13 -30 -14 -36 -5 -6 9 -13 9 -26 2 -15 -8 -24 -6 -42 11 -22
20 -23 20 -16 2 7 -20 7 -20 -14 -1 -30 26 -28 31 16 44 l37 11 -39 -5 c-100
-14 -206 -75 -206 -119 0 -29 57 -80 117 -106 206 -88 680 -105 950 -34 225
59 287 146 155 215 -13 6 -22 14 -19 17 9 8 86 -36 97 -56 25 -48 -9 -106 -85
-144 -238 -117 -829 -125 -1094 -15 -236 98 -176 214 139 268 135 23 519 26
694 5z m316 6 c0 -9 -290 -94 -298 -87 -6 7 27 20 163 61 118 36 135 40 135
26z m155 -18 c-11 -2 -32 -8 -47 -13 -16 -5 -28 -5 -28 0 0 11 26 18 65 18 18
0 22 -2 10 -5z m-158 -10 c-4 -3 -64 -23 -134 -44 -71 -21 -123 -39 -118 -40
28 -4 41 -4 51 3 6 4 20 -1 32 -13 15 -13 22 -15 23 -7 1 7 4 2 8 -12 l7 -25
6 28 c5 27 -3 33 -42 27 -11 -1 -12 1 -4 10 19 19 63 1 70 -29 3 -14 7 -31 9
-38 2 -6 -3 -17 -10 -23 -8 -7 -13 -16 -10 -20 3 -4 -3 -11 -12 -14 -12 -5
-26 3 -46 24 -15 17 -33 28 -38 24 -5 -3 -9 -2 -8 3 4 23 -2 53 -11 53 -5 0
-7 -8 -4 -17 5 -16 4 -16 -6 0 -6 10 -21 22 -32 26 -14 5 17 18 114 48 134 41
167 49 155 36z m-1237 -21 c0 -5 -18 -17 -40 -27 -23 -10 -44 -23 -47 -28 -4
-6 -1 -7 8 -2 8 5 -7 -11 -33 -34 -64 -57 -71 -94 -33 -167 26 -49 64 -87 90
-89 26 -3 64 -18 60 -24 -3 -6 66 -29 113 -37 60 -10 -21 -14 -311 -14 -218 0
-337 4 -337 10 0 6 5 10 10 10 6 0 10 5 10 12 0 6 -9 3 -20 -7 -11 -10 -20
-14 -20 -9 1 15 30 49 43 49 7 0 12 7 12 16 0 9 5 23 11 30 6 8 23 32 39 54
l28 40 -29 -31 c-16 -17 -55 -65 -88 -105 l-58 -74 483 -5 484 -5 -515 -3
-514 -2 35 38 c40 42 140 163 253 304 l77 97 132 4 c73 1 138 4 145 5 6 1 12
-2 12 -6z m1338 -14 c-5 -15 -58 -24 -58 -9 0 9 20 17 48 20 8 0 12 -5 10 -11z
m262 -99 c47 -61 126 -161 177 -222 51 -61 91 -111 90 -112 -1 0 -238 2 -527
5 l-525 5 493 3 493 2 -29 38 c-16 20 -48 63 -71 95 -24 31 -45 57 -48 57 -6
0 5 -18 33 -56 13 -17 20 -34 17 -38 -4 -3 -1 -6 6 -6 7 0 9 -5 5 -12 -4 -7
-3 -8 4 -4 7 4 12 3 12 -3 0 -5 -8 -12 -17 -15 -11 -3 -9 -4 6 -3 15 1 29 -6
38 -20 l15 -23 -343 1 c-312 1 -340 2 -299 15 25 8 51 12 58 9 7 -3 10 0 7 5
-3 6 2 10 12 10 10 1 40 16 68 35 27 18 53 31 59 28 5 -3 6 -1 2 5 -4 7 -3 12
2 12 13 0 52 75 52 102 0 13 -7 34 -16 46 -15 22 -15 22 28 22 36 0 46 5 63
29 11 17 29 35 40 41 18 9 17 10 -6 5 -17 -3 -31 1 -39 10 -10 12 -9 15 8 15
12 0 24 5 28 11 4 7 -6 10 -29 8 -20 -2 -39 0 -43 4 -4 4 15 7 42 7 l49 0 85
-111z m-248 54 c33 -4 53 -1 64 8 15 12 17 12 12 -1 -7 -24 -130 -27 -149 -4
-13 16 -12 17 6 10 11 -4 41 -10 67 -13z m-1147 -3 c4 -7 13 -7 24 0 12 6 22
5 28 -1 8 -8 17 -8 30 -1 12 7 25 7 34 1 10 -6 10 -9 2 -9 -7 0 -13 -6 -13
-13 0 -8 -7 -14 -15 -14 -10 0 -14 6 -10 16 4 13 2 12 -9 -1 -16 -21 -30 -24
-23 -4 4 9 0 13 -11 12 -9 -2 -19 -14 -23 -27 -6 -23 -6 -23 -10 6 -3 21 -9
30 -21 29 -10 -1 -15 2 -12 7 7 12 21 11 29 -1z m516 -4 c-14 -8 -19 -16 -13
-20 5 -3 8 -15 5 -26 -6 -22 -29 -25 -143 -21 -92 4 -140 17 -140 40 0 28 55
39 195 40 105 0 117 -1 96 -13z m183 5 c6 -9 -28 -26 -77 -37 -34 -8 -100 4
-92 16 14 23 157 41 169 21z m-800 -30 c-5 -25 -4 -25 8 2 l13 29 16 -36 c15
-32 15 -37 1 -48 -10 -8 -13 -8 -9 -2 4 7 0 17 -8 24 -12 10 -15 10 -15 0 0
-8 -3 -10 -7 -7 -3 4 -12 2 -20 -4 -15 -13 -14 -15 -17 32 -2 31 0 35 20 35
20 0 23 -4 18 -25z m1337 9 c-18 -15 -37 -20 -80 -19 l-56 2 57 6 c31 3 63 12
70 19 6 6 17 12 23 12 5 -1 -1 -10 -14 -20z m-1163 -31 c9 4 23 6 31 3 10 -3
7 -9 -10 -19 l-24 -14 25 7 25 6 -25 -18 c-14 -10 -29 -24 -33 -31 -4 -7 -16
-13 -25 -13 -13 1 -10 6 11 24 l28 23 -25 17 c-14 9 -26 24 -26 33 0 14 3 13
16 -5 11 -16 20 -20 32 -13z m509 -19 c14 24 14 24 10 3 -6 -26 5 -30 23 -8
16 19 27 19 27 0 0 -8 -9 -17 -19 -21 -25 -8 -96 5 -105 18 -4 7 2 9 15 6 16
-5 22 -1 23 10 1 10 4 6 6 -8 l5 -24 15 24z m-884 -34 c-5 -38 -2 -46 23 -70
120 -111 593 -177 940 -131 320 42 476 110 461 202 -7 39 5 35 27 -9 20 -40 7
-70 -51 -114 -122 -93 -411 -142 -778 -131 -304 9 -520 60 -617 146 -32 29
-41 44 -41 68 0 26 25 83 37 83 2 0 1 -20 -1 -44z m1380 -18 c-22 -24 -92 -61
-151 -78 -23 -7 -40 -15 -38 -18 13 -12 -21 -29 -42 -21 -13 5 -31 9 -40 8 -9
0 -1 -7 18 -14 46 -18 18 -19 -40 -1 l-44 13 48 7 c71 11 196 53 239 82 21 14
43 37 50 51 10 21 13 23 15 9 2 -10 -5 -27 -15 -38z m-1330 16 c38 -48 217
-114 357 -131 45 -5 50 -8 30 -14 -14 -4 -40 -7 -59 -8 -19 -1 -32 -4 -28 -7
3 -3 148 -6 323 -7 246 -2 305 0 263 9 l-54 10 71 7 c47 5 85 3 115 -6 l44
-13 -80 -13 c-119 -20 -313 -28 -461 -20 -132 7 -295 32 -324 50 -11 7 -7 8
12 3 15 -3 35 -1 45 5 17 10 16 10 -4 11 -30 0 -159 47 -209 76 -23 13 -49 35
-58 49 -22 33 -10 32 17 -1z m56 -94 c57 -26 63 -38 8 -15 -40 16 -107 71
-107 87 0 5 11 -3 24 -19 13 -16 47 -39 75 -53z m1301 61 c-12 -23 -56 -56
-94 -71 -41 -15 -30 -4 20 20 25 12 52 33 61 46 18 29 28 32 13 5z m-890 -121
c-14 -4 -43 -8 -65 -8 -38 0 -39 1 -10 8 17 4 46 8 65 8 32 0 33 -1 10 -8z
m1500 -160 c0 -7 -442 -10 -1305 -10 -863 0 -1305 3 -1305 10 0 7 442 10 1305
10 863 0 1305 -3 1305 -10z m-2441 -90 l1 -60 -60 0 -60 0 0 40 c0 39 1 40 35
40 28 0 35 -4 35 -20 0 -11 -4 -20 -10 -20 -5 0 -10 5 -10 10 0 6 -7 10 -15
10 -8 0 -15 -9 -15 -20 0 -17 7 -20 40 -20 40 0 40 0 40 40 l0 40 -65 0 -65 0
0 -65 0 -65 85 0 85 0 0 75 0 75 75 0 75 0 0 -60 0 -60 -55 0 -55 0 0 40 c0
38 2 40 30 40 23 0 30 -4 30 -20 0 -11 -4 -20 -10 -20 -5 0 -10 5 -10 10 0 6
-4 10 -10 10 -5 0 -10 -9 -10 -20 0 -16 7 -20 35 -20 34 0 35 1 35 40 l0 40
-55 0 -55 0 0 -65 0 -65 75 0 75 0 0 75 0 75 75 0 75 0 1 -37 c0 -21 2 -48 3
-60 2 -22 -1 -23 -56 -23 l-59 0 3 38 c3 34 6 37 36 40 27 3 32 0 32 -17 0
-12 -4 -21 -10 -21 -5 0 -10 5 -10 10 0 6 -7 10 -15 10 -8 0 -15 -9 -15 -20 0
-17 7 -20 40 -20 40 0 40 0 40 40 l0 40 -60 0 -60 0 0 -65 0 -65 80 0 80 0 0
75 0 75 75 0 75 0 0 -60 0 -60 -55 0 -55 0 0 40 c0 39 1 40 35 40 28 0 35 -4
35 -20 0 -11 -4 -20 -10 -20 -5 0 -10 5 -10 10 0 6 -7 10 -15 10 -8 0 -15 -9
-15 -20 0 -16 7 -20 35 -20 34 0 35 1 35 40 l0 40 -55 0 -55 0 0 -65 0 -66 76
3 76 3 0 73 0 72 79 0 79 0 0 -60 0 -60 -55 0 -55 0 0 40 c0 38 2 40 30 40 23
0 30 -4 30 -20 0 -11 -4 -20 -10 -20 -5 0 -10 5 -10 10 0 6 -4 10 -10 10 -5 0
-10 -9 -10 -20 0 -15 7 -20 29 -20 26 0 29 3 33 40 l4 40 -58 0 -58 0 0 -65 0
-65 80 0 80 0 0 75 0 75 75 0 75 0 0 -37 c0 -74 -7 -83 -61 -83 l-49 0 0 40
c0 38 2 40 30 40 23 0 30 -4 30 -20 0 -11 -4 -20 -10 -20 -5 0 -10 5 -10 10 0
6 -4 10 -10 10 -5 0 -10 -9 -10 -20 0 -16 7 -20 35 -20 34 0 35 1 35 40 l0 40
-55 0 -55 0 0 -65 0 -65 75 0 75 0 0 75 0 75 75 0 75 0 0 -60 0 -60 -55 0 -55
0 0 40 c0 39 1 40 35 40 28 0 35 -4 35 -20 0 -11 -4 -20 -10 -20 -5 0 -10 5
-10 10 0 6 -7 10 -15 10 -8 0 -15 -9 -15 -20 0 -16 7 -20 35 -20 34 0 35 1 35
40 l0 40 -55 0 -55 0 0 -65 0 -66 78 3 c52 2 77 7 78 16 1 6 2 39 3 72 l1 60
70 0 70 0 0 -60 0 -60 -50 0 -50 0 0 40 c0 38 2 40 30 40 23 0 30 -4 30 -20 0
-11 -4 -20 -10 -20 -5 0 -10 5 -10 10 0 6 -7 10 -15 10 -8 0 -15 -9 -15 -20 0
-16 7 -20 35 -20 34 0 35 1 35 40 l0 40 -53 0 -53 0 0 -62 1 -63 75 0 75 0 3
73 3 72 74 0 75 0 0 -60 0 -60 -55 0 -55 0 0 40 c0 38 2 40 30 40 23 0 30 -4
30 -20 0 -11 -4 -20 -10 -20 -5 0 -10 5 -10 10 0 6 -4 10 -10 10 -5 0 -10 -9
-10 -20 0 -16 7 -20 33 -20 33 0 34 1 34 40 l0 40 -53 0 -52 0 -4 -61 c-1 -33
-1 -63 1 -65 2 -2 37 -4 78 -4 l73 0 0 75 0 75 75 0 75 0 0 -60 0 -60 -55 0
-55 0 0 40 c0 38 2 40 30 40 23 0 30 -4 30 -20 0 -11 -4 -20 -10 -20 -5 0 -10
5 -10 10 0 6 -4 10 -10 10 -5 0 -10 -9 -10 -20 0 -16 7 -20 35 -20 34 0 35 1
35 40 l0 40 -55 0 -55 0 0 -65 0 -65 75 0 75 0 0 75 0 75 75 0 75 0 0 -60 0
-60 -55 0 -55 0 0 40 c0 38 2 40 30 40 23 0 30 -4 30 -20 0 -11 -4 -20 -10
-20 -5 0 -10 5 -10 10 0 6 -4 10 -10 10 -5 0 -10 -9 -10 -20 0 -16 7 -20 35
-20 34 0 35 1 35 40 l0 40 -55 0 -55 0 0 -65 0 -65 75 0 75 0 0 75 0 75 75 0
75 0 0 -60 0 -60 -50 0 -50 0 0 40 c0 38 2 40 30 40 23 0 30 -4 30 -20 0 -11
-4 -20 -10 -20 -5 0 -10 5 -10 10 0 6 -4 10 -10 10 -5 0 -10 -9 -10 -20 0 -16
7 -20 33 -20 32 0 32 1 29 40 l-4 40 -54 0 -54 0 0 -65 0 -66 78 3 77 3 3 73
3 72 74 0 75 0 0 -60 0 -60 -55 0 -55 0 0 40 c0 39 1 40 35 40 28 0 35 -4 35
-20 0 -11 -4 -20 -10 -20 -5 0 -10 5 -10 10 0 6 -7 10 -15 10 -8 0 -15 -9 -15
-20 0 -16 7 -20 35 -20 34 0 35 1 35 40 l0 40 -55 0 -55 0 0 -65 0 -65 75 0
75 0 0 75 0 75 75 0 75 0 0 -60 0 -60 -50 0 -50 0 0 40 c0 38 2 40 30 40 23 0
30 -4 30 -20 0 -11 -4 -20 -10 -20 -5 0 -10 5 -10 10 0 6 -6 10 -14 10 -9 0
-12 -7 -9 -20 4 -14 14 -20 34 -20 27 0 29 3 29 40 l0 40 -55 0 -56 0 3 -62 3
-63 73 -3 72 -3 0 76 0 75 75 0 c41 0 75 -3 76 -7 0 -5 2 -32 2 -60 l2 -53
-52 0 -53 0 0 40 c0 38 2 40 30 40 23 0 30 -4 30 -20 0 -11 -4 -20 -10 -20 -5
0 -10 5 -10 10 0 6 -7 10 -15 10 -8 0 -15 -9 -15 -20 0 -16 7 -20 38 -20 37 0
37 0 37 40 l0 40 -57 0 -58 0 0 -65 0 -65 71 0 c44 0 68 -4 64 -10 -4 -7 -448
-10 -1301 -10 l-1294 0 0 85 0 85 84 0 83 0 2 -60z"/>
        <path d="M1735 3560 c-11 -5 -14 -9 -7 -9 7 -1 10 -5 7 -11 -3 -5 -1 -10 5
-10 6 0 8 -4 5 -10 -3 -5 1 -10 9 -10 22 0 28 16 12 33 -8 8 -12 17 -9 21 8 8
3 7 -22 -4z"/>
        <path d="M1452 3190 c-12 -5 -29 -7 -37 -4 -11 4 -15 0 -15 -16 0 -18 4 -20
18 -14 22 11 180 12 210 1 16 -6 22 -5 22 6 0 19 -13 23 -75 26 -27 1 -61 4
-75 6 -14 2 -35 0 -48 -5z"/>
        <path d="M1680 3153 c0 -39 -71 -80 -84 -47 -3 8 -2 12 4 9 6 -3 10 -3 10 2 0
11 -20 40 -20 29 0 -5 -8 -2 -17 5 -11 10 -14 10 -9 2 5 -10 -7 -13 -51 -13
-43 0 -54 3 -43 11 13 8 12 10 -3 7 -10 -2 -17 -6 -15 -9 2 -3 -3 -13 -11 -22
-12 -15 -11 -17 5 -18 18 0 18 -1 0 -8 -19 -7 -19 -8 -1 -15 10 -3 23 -2 29 4
13 13 82 13 107 -1 24 -12 91 -20 84 -9 -2 4 4 15 14 25 11 9 18 26 16 37 -6
29 -15 36 -15 11z"/>
        <path d="M1500 3030 c-8 -5 -10 -10 -5 -11 6 0 24 -2 40 -4 28 -4 29 -3 11 11
-23 17 -26 17 -46 4z"/>
        <path d="M1339 3028 c-6 -21 -5 -39 2 -44 5 -3 6 -10 3 -16 -4 -7 -2 -8 4 -4
7 4 12 2 12 -5 0 -7 3 -9 6 -6 4 4 1 13 -6 22 -12 14 -7 20 15 15 5 -1 1 8 -9
19 -18 20 -25 25 -27 19z"/>
        <path d="M1713 2978 c-12 -20 -11 -55 1 -55 7 0 11 15 11 34 0 37 -1 38 -12
21z"/>
        <path d="M2813 2790 c-28 -12 -30 -20 -3 -13 11 3 20 1 20 -5 0 -6 -10 -13
-22 -15 -21 -4 -21 -4 3 -6 19 -1 29 6 37 24 13 28 5 31 -35 15z"/>
        <path d="M2801 2380 c0 -15 -6 -31 -13 -38 -9 -9 -9 -15 1 -24 7 -7 11 -8 10
-3 -1 6 1 18 5 27 4 9 6 27 3 40 -4 22 -4 22 -6 -2z"/>
        <path d="M2826 2244 c-3 -9 -7 -37 -7 -62 -2 -45 -2 -45 -8 -12 -5 30 -8 22
-20 -55 -7 -49 -15 -96 -17 -103 -2 -7 1 -10 6 -7 6 3 10 19 10 35 0 16 5 32
11 35 6 4 8 13 5 20 -2 7 1 21 8 31 7 11 16 45 19 77 6 58 4 69 -7 41z"/>
        <path d="M2562 1958 c2 -31 6 -54 10 -51 5 2 8 -1 8 -8 0 -7 3 -9 6 -6 4 4 3
12 -3 19 -5 7 -11 31 -12 53 -4 62 -12 56 -9 -7z"/>
        <path d="M2716 1918 c-4 -24 -11 -50 -17 -58 -7 -11 -8 -7 -3 15 9 38 -4 28
-15 -12 -7 -23 -5 -30 6 -30 8 0 19 11 24 25 16 42 27 102 19 102 -4 0 -11
-19 -14 -42z"/>
        <path d="M1013 2748 c3 -7 37 -89 75 -183 75 -187 91 -221 92 -193 0 38 -149
388 -166 388 -3 0 -4 -6 -1 -12z"/>
        <path d="M809 2650 c-53 -73 -62 -94 -24 -60 29 27 80 108 73 116 -3 2 -25
-23 -49 -56z"/>
        <path d="M800 2426 c0 -2 11 -23 24 -47 13 -24 32 -72 42 -106 10 -35 19 -61
21 -59 9 8 -30 134 -53 174 -22 37 -34 51 -34 38z"/>
        <path d="M727 2292 c70 -61 142 -209 143 -296 1 -25 3 -28 10 -14 13 21 19 98
8 98 -4 0 -8 6 -8 13 0 8 -14 41 -31 75 -29 59 -117 152 -143 152 -6 -1 3 -13
21 -28z"/>
        <path d="M1111 2268 c-1 -9 84 -196 93 -205 10 -11 -6 29 -52 127 -22 47 -41
82 -41 78z"/>
        <path d="M1915 2170 c-4 -34 -5 -63 -2 -66 2 -3 7 23 11 57 4 33 5 63 3 66 -3
2 -8 -23 -12 -57z"/>
        <path d="M1864 1844 c-3 -16 -19 -81 -35 -144 -16 -63 -31 -126 -34 -140 l-6
-25 11 25 c17 38 82 301 76 307 -3 3 -8 -8 -12 -23z"/>
        <path d="M269 2592 c17 -11 19 -18 10 -34 -6 -11 -7 -27 -3 -36 4 -9 6 -24 5
-32 -2 -13 -1 -13 9 0 7 11 9 0 5 -40 -3 -41 -2 -49 5 -30 7 19 8 11 5 -30 -4
-52 -4 -53 6 -18 8 27 7 56 -4 115 -10 50 -12 84 -6 95 8 14 6 16 -7 11 -10
-4 -15 -2 -11 3 3 5 -4 10 -15 10 -20 0 -20 0 1 -14z"/>
        <path d="M386 2246 c-4 -16 -5 -31 -1 -34 3 -3 5 3 6 14 0 18 1 18 9 -1 5 -11
9 -27 9 -35 1 -13 0 -13 -9 0 -5 8 -10 11 -10 5 0 -5 4 -16 9 -23 6 -10 11 -5
20 19 6 18 8 29 4 25 -4 -4 -12 8 -19 26 l-11 33 -7 -29z"/>
        <path d="M1742 2313 c-18 -42 -30 -78 -29 -80 2 -2 18 31 36 73 18 42 30 78
28 80 -2 2 -18 -31 -35 -73z"/>
        <path d="M2032 2170 c-1 -14 5 -59 13 -100 l14 -75 -6 66 c-6 76 -21 151 -21
109z"/>
        <path d="M2022 2080 c-1 -19 -4 -53 -7 -75 l-5 -40 11 33 c5 19 8 53 6 75 -3
40 -4 40 -5 7z"/>
        <path d="M1617 2153 c-31 -70 -55 -128 -54 -130 2 -2 30 53 62 122 32 69 56
127 54 130 -3 2 -31 -53 -62 -122z"/>
        <path d="M1312 1480 c31 -4 73 -4 95 0 27 6 12 8 -57 8 -85 -1 -89 -1 -38 -8z"/>
        <path d="M1150 1471 c-19 -3 -30 -9 -25 -12 6 -3 33 0 60 6 52 13 27 17 -35 6z"/>
        <path d="M1220 1460 c-15 -5 3 -6 45 -3 38 2 72 6 74 9 7 7 -93 2 -119 -6z"/>
        <path d="M1660 1460 l-45 -7 45 -1 c25 0 54 3 65 8 20 9 20 9 0 8 -11 -1 -40
-4 -65 -8z"/>
        <path d="M1386 1451 c-4 -6 1 -11 11 -11 10 0 29 -3 43 -6 17 -5 22 -4 15 4
-15 16 -62 25 -69 13z"/>
        <path d="M1648 1423 c18 -2 45 -2 60 0 15 2 0 4 -33 4 -33 0 -45 -2 -27 -4z"/>
        <path d="M1265 1280 c-17 -18 -16 -19 9 -26 15 -3 30 -4 33 0 4 3 -5 6 -18 6
-22 1 -23 2 -6 14 9 7 17 16 17 20 0 12 -17 6 -35 -14z"/>
        <path d="M2021 1350 c0 -15 -6 -31 -12 -37 -7 -7 -7 -13 -1 -17 17 -10 29 18
21 49 -6 28 -7 28 -8 5z"/>
        <path d="M1958 1343 c-4 -16 2 -29 26 -50 27 -24 28 -25 9 -2 -19 20 -20 28
-10 39 8 9 8 11 0 6 -6 -3 -13 1 -15 11 -3 15 -5 14 -10 -4z"/>
        <path d="M613 1408 c-17 -23 -25 -44 -9 -23 12 14 30 20 64 21 38 2 42 1 22
-7 -21 -7 -19 -8 13 -4 22 2 35 0 32 -6 -9 -13 -82 -11 -91 2 -4 8 -10 6 -17
-6 -13 -23 6 -35 59 -35 55 0 81 19 65 48 -10 19 -20 22 -70 22 -35 0 -62 -5
-68 -12z"/>
        <path d="M577 1327 c-10 -7 -16 -22 -15 -37 2 -17 -3 -25 -15 -28 -17 -3 -17
-1 -6 20 11 21 11 22 -5 9 -9 -8 -24 -30 -32 -50 -22 -51 -5 -64 88 -65 88 0
121 14 109 47 -4 12 -20 28 -35 35 -21 10 -25 18 -20 37 4 17 0 26 -14 34 -26
14 -34 14 -55 -2z m21 -95 c19 -2 32 0 32 7 0 6 5 11 11 11 5 0 7 -6 3 -12 -6
-10 -4 -10 8 0 10 8 18 9 22 3 12 -19 -35 -33 -88 -27 -34 3 -44 2 -31 -4 19
-8 19 -9 -2 -9 -25 -1 -37 13 -29 36 4 10 12 13 24 8 9 -5 32 -10 50 -13z"/>
        <path d="M449 1127 c-54 -75 -51 -77 126 -77 115 0 157 3 160 13 3 6 -1 32 -9
56 l-13 45 -54 -3 c-30 -1 -57 -8 -61 -14 -6 -9 -10 -9 -15 -1 -5 6 -30 13
-56 16 -47 6 -49 5 -78 -35z m115 8 c-4 -10 -20 -15 -50 -15 -32 0 -44 4 -44
15 0 11 12 15 50 15 40 0 48 -3 44 -15z m140 0 c4 -12 -5 -15 -49 -15 -44 0
-53 3 -49 15 4 10 20 15 49 15 29 0 45 -5 49 -15z m-111 -34 c-4 -16 114 -15
121 2 3 6 5 3 3 -8 -2 -19 -11 -20 -131 -23 -71 -1 -133 1 -137 5 -5 5 -4 15
1 23 7 10 10 11 10 3 0 -9 19 -13 61 -13 52 0 60 2 55 16 -4 10 -2 14 6 11 7
-2 12 -10 11 -16z"/>
        <path d="M2403 1303 c-15 -6 -17 -59 -3 -68 20 -12 10 -23 -27 -29 -54 -9 -64
-18 -73 -65 -5 -31 -4 -46 6 -56 34 -34 205 -43 241 -13 18 14 16 79 -2 105
-8 12 -29 24 -46 28 -21 5 -29 11 -25 22 18 46 17 62 -2 72 -21 11 -48 13 -69
4z m65 -30 c2 -9 -8 -13 -35 -12 -21 0 -32 3 -25 6 6 2 9 9 6 15 -4 6 5 8 22
6 15 -2 29 -9 32 -15z m-90 -85 c-21 -6 -38 -15 -38 -20 0 -6 8 -7 18 -3 28
12 45 11 50 -4 3 -10 -2 -11 -19 -6 -19 5 -21 4 -9 -4 32 -22 140 -8 140 18 0
5 -12 12 -26 15 -15 4 -24 10 -21 13 10 10 67 -18 67 -33 0 -38 -129 -52 -187
-21 -18 10 -33 22 -33 26 0 11 48 30 75 29 11 0 3 -5 -17 -10z m62 -78 c25 0
39 -4 35 -10 -15 -24 -145 2 -145 29 0 6 15 4 35 -5 19 -7 53 -14 75 -14z"/>
        <path d="M1495 1370 c-3 -5 -16 -10 -27 -10 -40 0 -7 -14 37 -16 49 -2 52 0
31 22 -17 16 -32 18 -41 4z"/>
        <path d="M770 1243 c0 -24 59 -79 112 -105 95 -47 347 -100 458 -97 19 0 -26
9 -101 19 -239 32 -406 92 -449 163 -11 18 -20 27 -20 20z"/>
        <path d="M2204 1194 c-68 -67 -250 -120 -489 -143 -80 -7 -84 -8 -31 -10 137
-3 401 55 485 107 40 25 91 78 80 84 -2 2 -22 -15 -45 -38z"/>
        <path d="M1458 1033 c28 -2 76 -2 105 0 28 2 5 3 -53 3 -58 0 -81 -1 -52 -3z"/>
        <path d="M1343 1093 c20 -2 54 -2 75 0 20 2 3 4 -38 4 -41 0 -58 -2 -37 -4z"/>
        <path d="M1598 1093 c18 -2 45 -2 60 0 15 2 0 4 -33 4 -33 0 -45 -2 -27 -4z"/>
        <path d="M523 3873 c-11 -26 -14 -56 -10 -96 5 -53 3 -62 -29 -108 -48 -71
-48 -127 0 -175 26 -26 43 -34 69 -34 32 0 35 -3 40 -36 7 -39 -6 -74 -26 -74
-7 0 -12 13 -12 32 0 39 -28 50 -45 18 -9 -17 -8 -26 5 -46 18 -28 41 -31 74
-8 21 15 23 23 19 70 -4 43 -1 57 14 71 42 38 12 143 -42 143 -28 0 -38 45
-14 71 25 28 31 123 11 172 -20 47 -34 47 -54 0z m47 -48 c0 -14 -8 -42 -17
-63 l-17 -37 -4 39 c-2 22 -1 50 2 63 9 32 36 30 36 -2z m-30 -186 c0 -11 -7
-27 -15 -35 -18 -18 -20 -75 -3 -92 20 -20 28 -14 16 13 -8 19 -8 28 2 40 12
14 15 10 26 -32 7 -26 13 -49 14 -50 0 -2 -13 -3 -30 -3 -47 0 -73 33 -68 84
8 64 58 130 58 75z m74 -91 c7 -20 6 -31 -4 -43 -13 -16 -15 -14 -26 16 -17
48 -17 61 3 57 10 -2 22 -15 27 -30z"/>
        <path d="M2447 3890 c-3 -8 -17 -71 -30 -140 l-24 -125 -27 3 c-53 7 -89 -55
-46 -78 43 -23 82 12 95 85 3 22 11 62 17 88 10 47 11 48 29 31 13 -12 19 -31
20 -63 0 -48 4 -44 28 30 16 53 14 74 -14 107 -14 16 -29 40 -34 53 -7 18 -10
20 -14 9z m53 -124 c0 -19 -3 -18 -25 9 -33 41 -33 66 0 35 14 -13 25 -33 25
-44z"/>
        <path d="M1894 3833 c7 -8 141 -42 166 -43 34 -1 -10 19 -77 34 -79 18 -100
20 -89 9z"/>
        <path d="M865 3789 c-101 -37 -268 -120 -272 -135 -2 -7 29 5 69 27 41 21 128
59 193 85 66 25 122 48 124 50 14 13 -45 -1 -114 -27z"/>
        <path d="M2120 3781 c0 -5 35 -24 78 -41 42 -18 98 -43 124 -56 57 -29 82 -31
48 -4 -38 30 -250 115 -250 101z"/>
        <path d="M2172 3591 c-18 -61 -32 -117 -32 -125 0 -12 -7 -14 -30 -9 -22 4
-36 0 -50 -12 -24 -22 -26 -60 -4 -69 48 -18 76 5 95 76 l13 48 86 -46 c101
-55 189 -116 247 -172 23 -23 45 -37 48 -33 17 29 -304 251 -363 251 -10 0
-12 9 -7 33 9 42 16 48 38 33 14 -11 16 -19 7 -40 -14 -37 5 -32 21 6 11 26
10 38 -3 74 l-15 43 29 -15 c16 -8 35 -13 41 -11 7 3 -7 13 -30 23 -27 12 -43
26 -43 37 0 44 -20 7 -48 -92z"/>
        <path d="M858 3648 c-16 -5 -28 -14 -28 -18 0 -11 58 8 66 21 6 11 -3 10 -38
-3z"/>
        <path d="M1970 3650 c0 -5 17 -14 38 -19 21 -6 64 -20 95 -30 31 -11 57 -16
57 -11 0 9 -54 31 -137 54 -29 8 -53 11 -53 6z"/>
        <path d="M968 3612 c-84 -26 -117 -42 -87 -42 8 0 39 9 69 19 30 11 72 22 93
26 20 4 37 11 37 16 0 13 -16 10 -112 -19z"/>
        <path d="M2421 3636 c8 -8 142 -96 145 -96 2 0 4 4 4 9 0 12 -121 91 -139 91
-8 0 -12 -2 -10 -4z"/>
        <path d="M2591 3565 c-6 -16 -22 -56 -34 -87 -20 -52 -23 -56 -38 -42 -23 20
-58 14 -76 -12 -20 -31 8 -58 52 -51 29 5 38 -1 81 -45 27 -27 58 -54 69 -60
11 -5 -11 21 -48 58 -60 59 -66 69 -54 83 21 24 69 150 64 169 -3 12 -7 9 -16
-13z"/>
        <path d="M1966 3561 c8 -9 150 -51 169 -51 25 0 -18 20 -81 39 -77 23 -104 26
-88 12z"/>
        <path d="M2410 3562 c0 -11 130 -95 137 -89 5 6 -66 61 -109 83 -16 8 -28 11
-28 6z"/>
        <path d="M2260 3550 c0 -6 12 -15 26 -20 14 -6 53 -26 86 -45 60 -36 100 -47
63 -19 -36 28 -175 95 -175 84z"/>
        <path d="M341 3484 c-40 -37 -69 -69 -67 -72 3 -2 38 24 78 59 40 34 77 67 83
71 5 5 2 8 -7 8 -8 0 -48 -30 -87 -66z"/>
        <path d="M981 3524 c-66 -20 -111 -44 -86 -44 20 0 175 55 175 62 0 10 -3 10
-89 -18z"/>
        <path d="M2660 3455 c35 -36 69 -65 74 -65 6 0 -19 29 -54 65 -35 36 -69 65
-74 65 -6 0 19 -29 54 -65z"/>
        <path d="M397 3445 c-26 -25 -47 -51 -47 -57 0 -11 107 81 109 95 2 16 -17 5
-62 -38z"/>
        <path d="M1940 3479 c0 -10 26 -21 73 -33 47 -11 29 9 -23 26 -27 9 -50 12
-50 7z"/>
        <path d="M1045 3454 l-30 -14 34 5 c18 3 37 5 42 5 5 0 9 5 9 10 0 14 -19 12
-55 -6z"/>
        <path d="M484 3428 c-51 -38 -104 -92 -104 -105 0 -8 17 3 38 24 20 22 55 53
77 71 44 35 34 45 -11 10z"/>
        <path d="M744 3424 c-69 -37 -162 -105 -209 -153 -55 -57 -34 -51 32 9 46 42
192 141 227 153 6 2 8 7 5 11 -3 3 -28 -6 -55 -20z"/>
        <path d="M2570 3444 c0 -11 93 -94 99 -89 2 3 -11 21 -30 41 -35 36 -69 60
-69 48z"/>
        <path d="M2150 3402 c0 -6 12 -15 28 -20 15 -5 35 -13 45 -17 9 -4 17 -3 17 2
0 5 -17 15 -37 23 -21 8 -41 16 -45 18 -5 2 -8 -1 -8 -6z"/>
        <path d="M2340 3345 c0 -9 164 -164 169 -159 6 6 -127 141 -151 155 -10 5 -18
7 -18 4z"/>
        <path d="M455 3309 c-37 -45 -23 -48 20 -5 21 21 30 36 21 36 -8 0 -26 -14
-41 -31z"/>
    </g>
</svg>
