<svg version="1.1" id="Layer_1" xmlns="http://www.w3.org/2000/svg" xmlns:xlink="http://www.w3.org/1999/xlink" x="0px" y="0px"
	 width="100%" viewBox="0 0 500 500" enable-background="new 0 0 500 500" xml:space="preserve">

<path fill="#5D0808" opacity="1.000000" stroke="none" 
	d="
M121.108994,342.498596 
	C111.522392,331.872345 101.596626,321.528351 92.448654,310.536987 
	C84.023262,300.413818 75.561325,290.131317 68.687660,278.952332 
	C59.193836,263.511993 48.961067,248.065475 46.251625,229.549973 
	C42.092983,201.131012 46.968643,174.488953 63.844425,150.754471 
	C68.991943,143.514877 74.281540,136.086472 80.815056,130.196579 
	C88.733047,123.058617 97.533714,116.536316 106.872368,111.430000 
	C118.469574,105.088699 130.910812,100.325615 144.341202,98.692322 
	C155.685944,97.312668 166.816635,98.153976 177.822388,100.773453 
	C208.543747,108.085426 231.084778,126.528503 247.863235,152.703735 
	C248.734085,154.062317 249.755173,155.324585 251.151215,157.243088 
	C254.011414,153.160339 256.576599,149.620117 259.016174,145.995346 
	C269.320740,130.684402 282.582916,118.528183 298.860474,109.960449 
	C312.769165,102.639587 327.446411,97.819870 343.550446,98.003036 
	C373.331848,98.341759 398.197083,110.303200 420.121124,129.504929 
	C429.876709,138.049103 438.178345,147.797577 444.023102,160.257721 
	C441.756378,162.004364 439.408966,163.026505 436.914551,163.722809 
	C429.951721,154.243820 424.236176,143.930847 416.078735,136.191788 
	C401.499969,122.360756 384.385162,112.328720 364.182556,108.030075 
	C335.792511,101.989349 310.588837,108.966988 288.131775,126.208969 
	C273.471985,137.464417 261.929749,151.668045 254.288925,168.758606 
	C253.656830,170.172440 252.441040,171.325287 251.379547,172.757095 
	C250.378845,172.057358 249.652313,171.809311 249.372818,171.310699 
	C247.832092,168.561859 246.537979,165.668747 244.910156,162.975723 
	C229.659393,137.745300 210.158005,117.712830 180.681931,109.369041 
	C168.250122,105.849960 155.792542,104.613487 143.161728,106.933144 
	C125.550415,110.167442 109.619820,117.163933 95.422920,128.393646 
	C79.851204,140.710831 67.348740,155.090012 59.755978,173.690643 
	C54.234638,187.216766 52.023220,201.241898 52.347622,215.609711 
	C52.849819,237.851990 63.654152,256.371674 75.297020,274.325806 
	C87.989571,293.898682 103.225761,311.524323 119.132225,328.497711 
	C140.900299,351.725830 164.394577,373.196991 189.130264,393.198761 
	C207.601059,408.134583 226.931885,422.004425 245.795959,436.458282 
	C249.401260,439.220734 252.439270,439.352448 256.091888,436.515900 
	C273.812195,422.754883 291.986237,409.555573 309.340881,395.352478 
	C326.822144,381.045868 344.070099,366.363403 360.451721,350.824554 
	C387.174652,325.476349 411.975403,298.322876 431.046814,266.522949 
	C436.338959,257.698730 442.242676,248.807724 445.246246,239.134018 
	C451.675323,218.427567 450.849945,197.355286 443.341034,176.829742 
	C442.728333,175.154938 440.442780,174.092117 439.191376,172.518372 
	C442.556793,171.095352 445.665344,169.898880 448.773895,168.702408 
	C451.286896,176.903854 454.424866,184.973862 456.183167,193.334045 
	C459.877258,210.898773 458.611359,228.273544 451.684784,244.977081 
	C443.528229,264.646606 431.993286,282.334412 418.671692,298.808044 
	C409.038086,310.721130 398.845367,322.193665 388.639526,333.628448 
	C381.741089,341.357544 374.785370,349.115997 367.152222,356.092010 
	C351.688843,370.224182 335.834106,383.933716 319.969910,397.619537 
	C311.107910,405.264648 302.103546,412.774963 292.803802,419.875122 
	C280.351227,429.382477 267.679932,438.623047 254.752274,447.466187 
	C252.918488,448.720551 248.401154,448.093170 246.331543,446.630615 
	C232.774536,437.050293 219.359085,427.244385 206.270020,417.034454 
	C193.689346,407.221069 181.474289,396.931152 169.255936,386.663391 
	C158.648911,377.749725 148.202744,368.641357 137.810562,359.477173 
	C134.244400,356.332367 131.056671,352.758423 127.494965,348.765350 
	C125.232254,346.266327 123.170624,344.382446 121.108994,342.498596 
z"/>
<path fill="#FCBE5F" opacity="1.000000" stroke="none" 
	d="
M120.807861,342.753204 
	C123.170624,344.382446 125.232254,346.266327 127.296402,348.506653 
	C118.697350,353.525421 109.957695,357.959869 101.599800,363.024353 
	C99.716949,364.165314 98.741455,367.390533 98.085159,369.852692 
	C96.468185,375.918976 96.050529,382.427551 93.631638,388.111908 
	C92.160110,391.570007 88.214996,394.386200 84.780403,396.527222 
	C69.893990,405.806732 54.786514,414.731628 39.187763,423.885376 
	C38.092598,424.364655 37.569084,424.744049 37.045570,425.123413 
	C37.045570,425.123413 37.032578,425.058380 36.753151,424.916992 
	C35.904957,423.731873 34.817566,422.663666 34.865467,421.649078 
	C35.004555,418.702881 35.598885,415.778137 36.014610,412.845001 
	C36.991058,408.308716 37.646473,403.669617 39.054951,399.271698 
	C40.020279,396.257477 39.689819,395.526611 36.451584,394.871857 
	C28.115635,393.186371 19.897865,390.909851 11.654202,388.786713 
	C10.982592,388.613739 10.473484,387.809845 9.552228,387.005035 
	C23.291176,378.678436 36.673199,370.608459 50.009552,362.463745 
	C54.702267,359.597809 59.172935,356.350037 63.973171,353.688080 
	C65.715164,352.722107 68.232819,352.375244 70.205444,352.750488 
	C76.207802,353.892212 82.087425,355.664062 88.070793,356.925049 
	C93.898552,358.153168 98.294785,354.725220 102.989647,352.052551 
	C108.695778,348.804199 114.656273,346.002655 120.807861,342.753204 
z"/>
<path fill="#FAB861" opacity="1.000000" stroke="none" 
	d="
M449.018433,168.442459 
	C445.665344,169.898880 442.556793,171.095352 438.808838,172.543518 
	C429.712524,177.021515 421.242737,181.222275 412.801392,185.479385 
	C394.898010,194.508362 376.922302,203.399551 359.142303,212.665802 
	C344.867981,220.105042 330.591309,227.600220 316.781586,235.850433 
	C306.566772,241.952972 294.773071,245.401825 286.060242,254.124146 
	C284.595490,255.590500 281.813049,255.740677 279.639465,256.498993 
	C279.317963,256.086151 278.996460,255.673325 278.674988,255.260498 
	C279.696014,253.284653 280.230988,250.684097 281.824646,249.444199 
	C287.813049,244.784988 293.873932,240.102234 300.409302,236.287689 
	C312.977661,228.951782 325.909119,222.240005 338.649811,215.196686 
	C348.924347,209.516739 358.972839,203.402252 369.424896,198.075638 
	C381.734558,191.802307 394.410461,186.251694 406.850037,180.227570 
	C413.439514,177.036469 419.889008,173.551773 426.354187,170.110413 
	C429.973389,168.183914 433.495636,166.075211 437.061554,164.048615 
	C439.408966,163.026505 441.756378,162.004364 444.084900,160.629837 
	C450.563110,158.240875 457.060242,156.204300 463.709778,154.119965 
	C458.817810,151.065979 454.515656,148.380203 449.928802,145.081909 
	C448.722870,143.996674 447.801636,143.524002 446.880432,143.051331 
	C446.880432,143.051315 446.957977,143.050934 446.874756,142.755005 
	C445.363892,141.585114 443.936249,140.711136 442.508636,139.837143 
	C442.508636,139.837143 442.169586,139.698395 442.510132,139.316986 
	C443.946075,138.617035 445.041443,138.298492 446.136810,137.979919 
	C446.136810,137.979919 446.554871,138.030258 446.968567,138.257629 
	C447.867401,138.690323 448.352509,138.895615 448.837616,139.100906 
	C448.837616,139.100906 448.986694,139.458618 449.201019,139.936798 
	C450.664948,140.940155 451.914551,141.465332 453.164154,141.990509 
	C454.030701,142.090546 454.897247,142.190598 456.169800,142.784485 
	C457.416199,143.504700 458.256592,143.731079 459.096954,143.957443 
	C459.096954,143.957443 458.998596,143.986847 459.170898,144.131409 
	C459.613647,144.510803 459.884064,144.745651 460.154510,144.980515 
	C465.011078,146.081970 469.824982,147.481781 474.738525,148.185150 
	C478.305878,148.695801 482.005188,148.284882 486.663483,148.284882 
	C485.447815,151.912170 484.321838,155.140671 483.282715,158.396881 
	C480.175232,168.134674 476.864655,177.818344 474.164398,187.668716 
	C473.389679,190.494843 472.124084,191.670151 469.902954,190.837830 
	C468.310120,190.240952 465.979370,187.911270 466.198273,186.786865 
	C467.544617,179.870407 465.758759,172.302002 470.775604,166.043854 
	C472.293427,164.150436 472.209991,160.973343 473.075256,157.526917 
	C464.681580,161.282928 456.972260,164.732727 449.018433,168.442459 
z"/>
<path fill="#F2C277" opacity="1.000000" stroke="none" 
	d="
M445.993591,137.649139 
	C445.041443,138.298492 443.946075,138.617035 442.471069,139.138031 
	C439.681885,137.391266 435.840546,136.583572 436.195129,131.669006 
	C439.690155,133.713959 442.770264,135.516144 445.993591,137.649139 
z"/>
<path fill="#FDF1D3" opacity="1.000000" stroke="none" 
	d="
M35.654686,413.025085 
	C35.598885,415.778137 35.004555,418.702881 34.865467,421.649078 
	C34.817566,422.663666 35.904957,423.731873 36.784832,424.926758 
	C35.614460,425.873932 34.132984,426.669922 31.729733,427.961212 
	C33.143852,422.108032 34.219307,417.656586 35.654686,413.025085 
z"/>
<path fill="#F2C277" opacity="1.000000" stroke="none" 
	d="
M442.701172,140.092972 
	C443.936249,140.711136 445.363892,141.585114 446.874664,142.793762 
	C445.603119,142.201904 444.248413,141.275360 442.701172,140.092972 
z"/>
<path fill="#F2C277" opacity="1.000000" stroke="none" 
	d="
M453.022064,141.656143 
	C451.914551,141.465332 450.664948,140.940155 449.211914,140.130249 
	C450.299011,140.337616 451.589478,140.829697 453.022064,141.656143 
z"/>
<path fill="#F2C277" opacity="1.000000" stroke="none" 
	d="
M446.932617,143.421906 
	C447.801636,143.524002 448.722870,143.996674 449.779114,144.764099 
	C448.937683,144.636719 447.961212,144.214600 446.932617,143.421906 
z"/>
<path fill="#F2C277" opacity="1.000000" stroke="none" 
	d="
M458.942261,143.640747 
	C458.256592,143.731079 457.416199,143.504700 456.307648,143.086029 
	C456.955505,143.037155 457.871521,143.180603 458.942261,143.640747 
z"/>
<path fill="#FDF1D3" opacity="1.000000" stroke="none" 
	d="
M37.364929,425.069672 
	C37.569084,424.744049 38.092598,424.364655 38.862766,424.010437 
	C38.634377,424.362396 38.159332,424.689148 37.364929,425.069672 
z"/>
<path fill="#F2C277" opacity="1.000000" stroke="none" 
	d="
M448.844147,138.762268 
	C448.352509,138.895615 447.867401,138.690323 447.165405,138.332367 
	C447.582581,138.261017 448.216644,138.342331 448.844147,138.762268 
z"/>
<path fill="#F2C277" opacity="1.000000" stroke="none" 
	d="
M460.046936,144.713623 
	C459.884064,144.745651 459.613647,144.510803 459.156250,144.082214 
	C459.292633,144.074554 459.616028,144.260635 460.046936,144.713623 
z"/>
<path fill="#8B0101" opacity="1.000000" stroke="none" 
	d="
M436.914551,163.722809 
	C433.495636,166.075211 429.973389,168.183914 426.354187,170.110413 
	C419.889008,173.551773 413.439514,177.036469 406.850037,180.227570 
	C394.410461,186.251694 381.734558,191.802307 369.424896,198.075638 
	C358.972839,203.402252 348.924347,209.516739 338.649811,215.196686 
	C325.909119,222.240005 312.977661,228.951782 300.409302,236.287689 
	C293.873932,240.102234 287.813049,244.784988 281.824646,249.444199 
	C280.230988,250.684097 279.696014,253.284653 278.674988,255.260498 
	C278.996460,255.673325 279.317963,256.086151 279.639465,256.498993 
	C281.813049,255.740677 284.595490,255.590500 286.060242,254.124146 
	C294.773071,245.401825 306.566772,241.952972 316.781586,235.850433 
	C330.591309,227.600220 344.867981,220.105042 359.142303,212.665802 
	C376.922302,203.399551 394.898010,194.508362 412.801392,185.479385 
	C421.242737,181.222275 429.712524,177.021515 438.551941,172.770065 
	C440.442780,174.092117 442.728333,175.154938 443.341034,176.829742 
	C450.849945,197.355286 451.675323,218.427567 445.246246,239.134018 
	C442.242676,248.807724 436.338959,257.698730 431.046814,266.522949 
	C411.975403,298.322876 387.174652,325.476349 360.451721,350.824554 
	C344.070099,366.363403 326.822144,381.045868 309.340881,395.352478 
	C291.986237,409.555573 273.812195,422.754883 256.091888,436.515900 
	C252.439270,439.352448 249.401260,439.220734 245.795959,436.458282 
	C226.931885,422.004425 207.601059,408.134583 189.130264,393.198761 
	C164.394577,373.196991 140.900299,351.725830 119.132225,328.497711 
	C103.225761,311.524323 87.989571,293.898682 75.297020,274.325806 
	C63.654152,256.371674 52.849819,237.851990 52.347622,215.609711 
	C52.023220,201.241898 54.234638,187.216766 59.755978,173.690643 
	C67.348740,155.090012 79.851204,140.710831 95.422920,128.393646 
	C109.619820,117.163933 125.550415,110.167442 143.161728,106.933144 
	C155.792542,104.613487 168.250122,105.849960 180.681931,109.369041 
	C210.158005,117.712830 229.659393,137.745300 244.910156,162.975723 
	C246.537979,165.668747 247.832092,168.561859 249.372818,171.310699 
	C249.652313,171.809311 250.378845,172.057358 251.379547,172.757095 
	C252.441040,171.325287 253.656830,170.172440 254.288925,168.758606 
	C261.929749,151.668045 273.471985,137.464417 288.131775,126.208969 
	C310.588837,108.966988 335.792511,101.989349 364.182556,108.030075 
	C384.385162,112.328720 401.499969,122.360756 416.078735,136.191788 
	C424.236176,143.930847 429.951721,154.243820 436.914551,163.722809 
z"/>
</svg>