<svg xmlns="http://www.w3.org/2000/svg" viewBox="272.3 232.2 310.4 120">
    <g fill="#403532">
        <path d="M288.5 238.8h-13c-1.8 0-3.2-1.5-3.2-3.3 0-1.8 1.5-3.2 3.2-3.3h13c1.8 0 3.2 1.5 3.2 3.3 0 1.8-1.4 3.3-3.2 3.3zM288.5 264.8h-13c-1.8 0-3.2-1.5-3.2-3.2 0-1.8 1.5-3.2 3.2-3.3h13c1.8 0 3.2 1.5 3.2 3.3 0 1.7-1.4 3.2-3.2 3.2zM288.5 277.8h-13c-1.8 0-3.2-1.5-3.2-3.3 0-1.8 1.5-3.2 3.2-3.3h13c1.8 0 3.2 1.5 3.2 3.3 0 1.9-1.4 3.3-3.2 3.3zM314.5 251.8h-13c-1.8 0-3.2-1.5-3.2-3.3s1.5-3.2 3.2-3.3h13c1.8 0 3.2 1.5 3.2 3.3 0 1.8-1.5 3.3-3.2 3.3zM314.5 264.8h-13c-1.8 0-3.2-1.5-3.2-3.3s1.5-3.2 3.2-3.3h13c1.8 0 3.2 1.5 3.2 3.3 0 1.8-1.5 3.3-3.2 3.3zM340.4 238.8h-13c-1.8 0-3.2-1.5-3.2-3.3s1.5-3.2 3.2-3.3h13c1.8 0 3.2 1.5 3.2 3.3 0 1.8-1.4 3.3-3.2 3.3zM340.4 251.8h-13c-1.8 0-3.2-1.5-3.2-3.3s1.5-3.2 3.2-3.3h13c1.8 0 3.2 1.5 3.2 3.3 0 1.8-1.4 3.3-3.2 3.3zM340.4 277.8h-13c-1.8 0-3.2-1.5-3.2-3.3s1.4-3.2 3.2-3.2h13c1.8 0 3.2 1.5 3.2 3.3 0 1.8-1.4 3.2-3.2 3.2zM371.3 260.7c0 6.9 3.9 10.6 8.4 10.6s8.6-3.5 8.6-10.6-4.3-10.4-8.4-10.4c-4.5 0-8.6 3.2-8.6 10.4zm0-28.4v16.9c2.4-3.9 6.7-6.2 11.2-6.1 6.5 0 14.3 5.4 14.3 17.4s-7.3 18.4-14.9 18.4c-4.3.1-8.2-2.2-10.4-5.9v4.8h-8.4v-45.5h8.2zM409.1 260.9c0 7.2 4.3 10.4 8.4 10.4s8.4-3 8.4-10.4-3.9-10.6-8.4-10.6c-3.9 0-8.4 3.2-8.4 10.6zm-8.2-.4c0-11.7 7.6-17.6 15.1-17.6 4.1-.2 7.9 1.8 10.2 5.2v-4.3h8.2v34h-8.2V273c-2.5 3.7-6.8 5.8-11.2 5.6-6.6.1-14.1-5.5-14.1-18.1M450.6 258.5v19.3h-8.2V244h8.2v5c2.1-3.7 6.1-6 10.4-5.9 5.8 0 11.5 3 11.5 12.1v22.6h-8.2v-19.5c0-5.6-2.8-7.8-6.5-7.8s-6 2-6.9 5c-.4 1-.4 2-.3 3M480.2 232.3v45.5h8.2v-8.2l4.6-5.6 9.3 13.9h9l-13.4-19.7 11.7-14.1h-9.3l-11.9 15.5v-27.3h-8.2zM527.7 233.8h-8.4v44h8.4v-44zM552.1 233.8h-16v44h16c9.1.6 17.5-4.9 20.6-13.4 1-2.8 1.4-5.7 1.2-8.7.1-14.7-9.9-21.9-21.8-21.9zm0 36.2h-7.6v-28.4h7.6c6.9 0 12.7 4.6 12.7 14.3 0 9.6-5.7 14.1-12.7 14.1z"/>
    </g>
    <g fill="#403532">
        <path d="M305 324.6c0 12-7.2 17.9-14.5 17.9-4.1.1-8-2.1-10.1-5.7v4.9h-8.1v-44.4h8v16.5c2.2-3.8 6.3-6.2 10.8-6.1 6.4 0 13.9 5.4 13.9 16.9zm-24.6.4c0 6.8 3.9 10.3 8.2 10.3s8.3-3.3 8.3-10.3-4.2-10.2-8.3-10.2-8.2 3.1-8.2 10.2zM309.1 324.7c0-11.5 7.3-17.1 14.7-17.1 4-.1 7.8 1.8 10 5.2v-4.2h8v33h-8V337c-2.5 3.5-6.6 5.6-10.9 5.5-6.4 0-13.8-5.7-13.8-17.8zm8.1.4c0 7 4.2 10.1 8.3 10.1s8.3-2.9 8.3-10.1-3.9-10.4-8.2-10.4c-4.1.1-8.4 3.3-8.4 10.4zM357.6 322.7v18.8h-8v-33h8v4.9c2.1-3.7 6-5.9 10.2-5.8 5.7 0 11.1 2.9 11.1 11.8v22.1h-8v-19c0-5.5-2.7-7.5-6.2-7.5-3.1-.2-5.9 1.8-6.8 4.7-.4 1-.4 2.1-.3 3zM386.3 297.2h8v26.6l11.6-15.2h9l-11.3 13.7 13.1 19.3h-8.9l-9-13.6-4.5 5.4v8.1h-8v-44.3zM418.5 323.8c0-11.5 7.3-17.1 14.7-17.1 4-.1 7.8 1.8 10 5.2v-4.2h8v33h-8v-4.6c-2.5 3.5-6.6 5.6-10.9 5.5-6.5 0-13.8-5.7-13.8-17.8zm8.1.4c0 7 4.2 10.1 8.3 10.1s8.3-2.9 8.3-10.1-3.9-10.4-8.2-10.4c-4.2.1-8.4 3.3-8.4 10.4zM476.9 338.3l-4.4-4.5c-.4-.6-1.1-.9-1.8-1-.6 0-1.1.3-1.8 1.1l-10.6 11.2c-1.1 1.4-2.7 2.2-4.4 2.4-1.2.1-2.3-.6-2.8-1.8-.2-.4-.2-.8-.2-1.1.2-1.5 1-3 2.2-3.9l10.9-11.6c1.5-2.1 4-3.4 6.6-3.5 2.7.1 5.2 1.4 6.8 3.6l4.3 4.5c1.3 1 2.1 2.5 2.3 4.2.1 1.5-1.1 2.9-2.7 2.9h-.3c-1.6-.3-3.2-1.1-4.1-2.5zm-12.8-28.4 4.4 4.5c.4.6 1.1.9 1.8 1 .6 0 1.1-.3 1.8-1.1l10.6-11.2c1.1-1.4 2.7-2.2 4.4-2.4 1.6-.1 2.9 1.2 3 2.7v.2c-.2 1.5-1 3-2.2 3.9L477 319.1c-1.5 2.1-4 3.4-6.6 3.5-2.7-.1-5.2-1.4-6.8-3.6l-4.3-4.5c-1.3-1-2.1-2.5-2.3-4.2-.1-1.2.7-2.3 1.8-2.7.4-.1.8-.2 1.1-.2 1.8.2 3.3 1.1 4.2 2.5zM495.3 325.9c0 2.3.9 4.5 2.5 6.1s3.9 2.5 6.2 2.4c5 0 7-2 7.6-5.2l7.3 1.1c-1.5 6.8-7.7 11.5-14.6 11.1-7.1.3-13.7-4-16.2-10.7-.8-2.2-1.2-4.5-1-6.8-.5-6.9 3.5-13.4 9.9-16.1 2.1-.9 4.3-1.3 6.5-1.2 8.8 0 15.1 6.9 15.1 16.6v2.5h-23.3v.2zm.3-5.8h15.3c0-1.9-1-3.7-2.4-4.9-1.4-1.2-3.3-1.8-5.2-1.7-3.9-.2-7.3 2.7-7.7 6.6zM532.9 307.7v4.5c2.4-3.5 6.5-5.6 10.8-5.4 6.4 0 13.9 5.4 13.9 16.9s-7.2 17.9-14.5 17.9c-4 .1-7.8-1.9-10.1-5.2v15.8h-8v-44.4h7.9zm0 16.4c0 6.8 3.9 10.3 8.2 10.3s8.3-3.3 8.3-10.3-4.2-10.2-8.3-10.2c-4.3 0-8.2 3.1-8.2 10.2zM566 307.7v-8l8-1.1v9.1h8.1v6.7H574v16c0 2.3.7 3.5 3.2 3.5s3-.2 4.4-.6l1.1 6.2c-2.5 1.1-5.2 1.6-7.9 1.7-4.3.6-8.3-2.4-8.9-6.6v-20.2h-5.6v-6.7h5.7z"/>
    </g>
</svg>