<?xml version="1.0" encoding="UTF-8"?>
<svg id="Layer_1" xmlns="http://www.w3.org/2000/svg" version="1.1" viewBox="0 0 43.2 43.2">
  <!-- Generator: Adobe Illustrator 29.3.1, SVG Export Plug-In . SVG Version: 2.1.0 Build 151)  -->
  <path d="M21.6,43.2C9.7,43.2,0,33.6,0,21.6S9.7,0,21.6,0s21.6,9.7,21.6,21.6-9.7,21.6-21.6,21.6ZM21.6,1C10.2,1,1,10.2,1,21.6s9.2,20.6,20.6,20.6,20.6-9.2,20.6-20.6S33,1,21.6,1ZM39.9,27.8h-.1s0,0,0,0c0,0,.7-2.2.7-4.6,0-2.6-1.1-4.3-2.5-4.3s-1.4.6-1.4,1.5c0,1.6,2,1.7,2,5.3s-.3,2.8-.8,4.3c-2.2,7.5-9.3,11-16.2,11s-5.4-.7-6.1-1c0,0,0,0,0-.1h0c.3,0,2.2.7,4.6.7s4.2-1.1,4.2-2.4-.7-1.5-1.5-1.5c-1.6,0-1.7,2-5.2,2s-2.8-.3-4.4-.8c-7.4-2.3-11-9.3-11-16.2,0-3.4,1-6.1,1-6.1h.1s0,0,0,0c0,.3-.7,2.2-.7,4.6s1.1,4.2,2.5,4.2,1.4-.6,1.4-1.4c0-1.6-2-1.8-2-5.3s.3-2.8.8-4.4C7.7,5.9,14.7,2.4,21.6,2.3c3.2,0,6,.9,6.1,1h0c0,.1,0,.2,0,.2,0,0-1.9-.8-4.6-.8-2.6,0-4.2,1.1-4.2,2.5s.6,1.4,1.5,1.4c1.6,0,1.7-2,5.2-2s2.8.3,4.4.8c7.5,2.3,10.9,9.3,11,16.2,0,3.5-1,6.1-1,6.2ZM29.6,22.6c-2,0-3.6,1.5-3.6,3.3s.9,2.7,2.1,2.7.8-.2.8-.8c0-.8-1-1-1-2.1,0-.8.8-1.3,1.5-1.3,1.4,0,2.1,1.4,2.1,2.8,0,2.2-1.7,3.8-3.6,3.8s-4.1-2.4-4.1-5c0-3.8,2.5-5.3,3.8-5.7,0,0,3.4.6,3.3-.9,0-.7-1-.9-1.8-.9-.8,0-1.6.3-1.6.3-.4-.2-.7-.6-.9-1.1,2.5-1.9,4.2-3.7,4.2-5.7s-.7-2-2.1-2c-2.5,0-4.3,3.1-4.3,5.9s0,1,.1,1.4c-1.6,1.1-2.7,1.8-4.8,3.1,0-.3,0-.9.2-1.8.7-.8,1.7-1.9,1.7-2.8s-.2-.8-.7-.8c-1.2,0-2.1,1.8-2.3,3.1-.5.7-1.6,1.5-2.5,1.5s-1-.7-1-.9c2.3-.8,5.1-3.9,5.1-6.7s-.2-1.9-2-1.9c-2.7,0-5,4-5,7.1-1,0-1.3-1-1.3-1.8s.3-1.6.3-1.8-.1-.5-.5-.5c-.9,0-1.4,1.2-1.4,2.6,0,1.9,1.3,3.1,3,3.2.2,1.1,1.3,2.2,2.5,2.2s1.7-.2,2.4-.8c0,.4-.1.8-.2,1.1-2.6,1.4-4.6,2.3-6.3,3.9-1.4,1.3-2.2,2.9-2.2,4.2s1.1,3.5,3.5,3.5,4.9-2.2,5.9-5.3c.5-1.4.7-3.5.8-5.4,2.8-1.6,4.1-2.5,5.5-3.5.2.3.4.5.6.7-1.3.7-4.3,2.5-4.3,6.9s2.1,6.6,6.2,6.6,5.7-2.8,5.7-5.5c0-2.5-1.4-4.7-4-4.7ZM13.2,31c-.9,0-1.5-.5-1.5-1.5,0-2.6,3.6-5,6.3-6.4-.5,3.6-1.7,7.7-4.8,7.8ZM15.2,16.9c0-2,2-5.7,3.1-5.3,1.4.5-1.2,4.3-3.1,5.3ZM26.5,16c0-2.5,1.7-4.8,2.6-4.4,1,.5-.8,2.8-2.6,4.4Z"/>
</svg>