<?xml version="1.0" encoding="utf-8"?>
<!-- Generator: Adobe Illustrator 27.4.1, SVG Export Plug-In . SVG Version: 6.00 Build 0)  -->
<svg version="1.1" id="Layer_2_00000089572710769334978820000016841987522419469997_"
     xmlns="http://www.w3.org/2000/svg" x="0px" y="0px" viewBox="0 0 209.5 143.7"
     style="enable-background:new 0 0 209.5 143.7;" xml:space="preserve">
<style type="text/css">
	.st0{fill:#650729;}
</style>
<g id="jPro_Standard">
	<path class="st0" d="M6.8,82.2c-3.4,0-5.1-1.5-5.9-2.9c-1.3-2.3-1.1-5.9,0.5-9.1c2.3-4.5,25.7-36.3,29-40.6l0.9-1.2v0.1
		c2.6-3.1,5.4-4.9,9.9-6.7C45.8,20,97.6,2.9,104.1,1.1c6.7-1.9,9.4-1,11.3,0.3c3.4,2.2,4.5,6.8,2.7,11.6c-1.1,3-8.6,16.3-8.9,16.9
		l-0.1,0.2L62.1,44.2L43.1,73.3l-0.2,0c-0.3,0.1-26.7,7-32.2,8.3C9.2,82,7.9,82.2,6.8,82.2z M30.2,31.3c-5.7,7.7-26,35.3-28,39.3
		c-1.5,2.9-1.7,6.1-0.5,8.2c1.3,2.3,4.3,3,8.8,1.9c5.2-1.3,29.6-7.7,32-8.3l18.9-29.1l47-14.1c0.9-1.6,7.7-13.8,8.7-16.6
		c1.6-4.4,0.7-8.5-2.3-10.4c-1.7-1.1-4.2-1.9-10.5-0.2c-6.5,1.8-58.2,18.9-62.8,20.6c-4.9,1.8-7.6,3.8-10.4,7.5L30.2,31.3L30.2,31.3
		z"/>
	<path class="st0" d="M20.1,47.3l36.1-10.8l14.2-21.8c0,0-21,6.8-25.2,8.3c-8,2.9-9.2,3.6-14.6,10.6C26.4,38.9,20.1,47.3,20.1,47.3z
		"/>
	<path class="st0" d="M74.7,13.2L60.9,35l43.2-13.2c0,0,6-11.2,7.3-14.8s-0.7-5.2-6.2-3.8C99.7,4.8,74.7,13.2,74.7,13.2L74.7,13.2z"
		/>
	<path class="st0" d="M18.1,50.7L54,39.9l-16.5,26c0,0-25,6.6-28.5,7.4S2.7,73,5.1,69C7.8,64.3,18.1,50.7,18.1,50.7L18.1,50.7z"/>
	<path class="st0" d="M90.8,61.6H78.7V71h8.4c2.5,0,3.8-1.2,3.8-3.5S90.8,61.6,90.8,61.6z"/>
	<path class="st0" d="M96.7,61.1c3.9-0.8,9.1-1.3,15.7-1.3c8.1,0,14,1.9,17.8,5.3c3.5,3,5.6,7.6,5.6,13.2s-1.7,10.2-5,13.5
		c-4.3,4.6-11.4,7-19.4,7c-2.4,0-4.7-0.1-6.6-0.6v25.4h-8.2L96.7,61.1L96.7,61.1z M104.9,91.6c1.8,0.5,4.1,0.7,6.8,0.7
		c10,0,15.9-4.9,15.9-13.4s-5.9-12.5-14.9-12.5c-3.6,0-6.3,0.4-7.7,0.7V91.6L104.9,91.6z"/>
	<path class="st0" d="M142.5,91.9c0-5.5-0.1-10.2-0.4-14.5h7.2l0.4,9.1h0.3c2.1-6.2,7.1-10.2,12.7-10.2c0.9,0,1.5,0.1,2.3,0.3v7.9
		c-0.9-0.1-1.8-0.2-2.9-0.2c-5.8,0-10,4.5-11.1,10.7c-0.2,1.2-0.3,2.6-0.3,4v24.7h-8.3L142.5,91.9L142.5,91.9z"/>
	<path class="st0" d="M186.9,124.9c-12.2,0-21.8-9.2-21.8-23.9c0-15.5,10.1-24.6,22.6-24.6s21.9,9.7,21.9,23.8
		C209.5,117.4,197.8,124.9,186.9,124.9L186.9,124.9L186.9,124.9z M187.2,118.6c7.9,0,13.8-7.6,13.8-18.1c0-7.9-3.9-17.7-13.6-17.7
		s-13.9,9.2-13.9,18C173.4,110.9,179.1,118.6,187.2,118.6L187.2,118.6z"/>
	<path class="st0" d="M72.3,136.6c1.1-0.6,2.7-1.4,3.8-2.5c2.3-2.5,3.2-6.4,3.2-17.6v-39h8.3v42.3c0,9-1.2,15.1-5.4,19.2
		c-3.1,3-5.2,3.7-7.9,4.7L72.3,136.6L72.3,136.6z"/>
</g>
</svg>
