<?xml version="1.0" encoding="UTF-8"?><svg id="Layer_2" xmlns="http://www.w3.org/2000/svg" viewBox="0 0 116.48 90.64"><defs><style>.cls-1{fill:#650729;}</style></defs><g id="Layer_1-2"><g id="Layer_2-2"><g id="Layer_1-2"><path class="cls-1" d="m21.2,90.13v-6c.14-1.96-1.34-3.66-3.31-3.8-.15-.01-.3-.01-.45,0-1.35-.09-2.63.56-3.36,1.7-.66-1.1-1.87-1.76-3.16-1.7-1.12-.06-2.18.48-2.8,1.42v-1.18h-2.08v9.56h2.1v-5.26c-.17-1.23.69-2.36,1.92-2.52.14-.02.28-.03.42-.02,1.38,0,2.08.9,2.08,2.52v5.32h2.1v-5.3c-.16-1.23.71-2.36,1.94-2.52.13-.02.27-.02.4-.02,1.42,0,2.1.9,2.1,2.52v5.32l2.1-.04Zm31.07-9.56h-3.42v-2.9h-2.1v2.9h-1.9v1.9h1.94v4.4c0,2.22.86,3.54,3.32,3.54.92,0,1.82-.25,2.6-.74l-.6-1.78c-.56.33-1.19.52-1.84.54-1,0-1.38-.64-1.38-1.6v-4.36h3.4l-.02-1.9Zm17.74-.24c-1.03-.03-2,.51-2.52,1.4v-1.16h-2.06v9.56h2.08v-5.36c0-1.58.68-2.46,2-2.46.44,0,.89.08,1.3.24l.64-2c-.47-.17-.98-.26-1.48-.26l.04.04Zm-26.82,1c-1.18-.7-2.53-1.05-3.9-1-2.42,0-4,1.16-4,3.06,0,1.56,1.16,2.52,3.3,2.82l1,.14c1.14.16,1.68.46,1.68,1,0,.74-.76,1.16-2.18,1.16-1.14.03-2.26-.32-3.18-1l-1,1.62c1.21.85,2.66,1.28,4.14,1.24,2.76,0,4.36-1.3,4.36-3.12s-1.26-2.56-3.34-2.86l-1-.14c-.9-.12-1.62-.3-1.62-.94s.68-1.12,1.82-1.12c1.05.01,2.09.29,3,.82l.92-1.68Zm55.71-1c-1.03-.03-2,.51-2.52,1.4v-1.16h-2v9.56h2.07v-5.36c0-1.58.68-2.46,2-2.46.44,0,.89.08,1.3.24l.64-2c-.47-.17-.98-.26-1.48-.26v.04Zm-26.79,5c-.1,2.67,1.98,4.91,4.65,5,.15,0,.3,0,.45,0,1.25.06,2.48-.34,3.44-1.14l-1-1.68c-.72.55-1.6.85-2.5.86-1.69-.14-2.95-1.62-2.81-3.31.12-1.5,1.31-2.69,2.81-2.81.9.01,1.78.31,2.5.86l1-1.68c-.96-.8-2.19-1.2-3.44-1.14-2.66-.15-4.94,1.89-5.1,4.55,0,.15-.01.3,0,.45v.04Zm19.48,0v-4.76h-2.08v1.16c-.72-.92-1.83-1.44-3-1.4-2.76,0-5,2.24-5,5s2.24,5,5,5c1.17.04,2.28-.48,3-1.4v1.16h2.08v-4.76Zm-7.74,0c.09-1.59,1.46-2.81,3.06-2.71s2.81,1.46,2.71,3.06c-.09,1.52-1.35,2.71-2.87,2.72-1.58.02-2.89-1.25-2.91-2.83,0-.08,0-.15,0-.23Zm-25.1-5c-2.76.04-4.97,2.31-4.93,5.07s2.31,4.97,5.07,4.93h0c1.44.07,2.85-.39,3.96-1.3l-1-1.54c-.79.63-1.77.99-2.78,1-1.43.12-2.69-.92-2.86-2.34h7.1v-.8c0-3-1.86-5-4.54-5l-.02-.02Zm0,1.86c1.31-.03,2.39,1.01,2.42,2.32h0s-5,0-5,0c.08-1.34,1.2-2.37,2.54-2.32h.04Zm52.1,3.16v-8.62h-2v5c-.72-.92-1.83-1.44-3-1.4-2.76,0-5,2.24-5,5s2.24,5,5,5c1.17.04,2.28-.48,3-1.4v1.16h2v-4.74Zm-7.74,0c.09-1.59,1.46-2.81,3.06-2.71s2.81,1.46,2.71,3.06c-.09,1.52-1.35,2.71-2.87,2.72-1.58.02-2.89-1.25-2.91-2.83,0-.08,0-.15,0-.23Zm-70.23,0v-4.78h-2.03v1.16c-.72-.92-1.83-1.44-3-1.4-2.76,0-5,2.24-5,5s2.24,5,5,5c1.17.04,2.28-.48,3-1.4v1.16h2.08l-.05-4.74Zm-7.74,0c.09-1.59,1.46-2.81,3.06-2.71s2.81,1.46,2.71,3.06c-.09,1.52-1.35,2.71-2.87,2.72-1.59,0-2.87-1.28-2.88-2.86,0-.07,0-.13,0-.2h-.03Zm89.18,3.39c.13,0,.26.03.38.08.11.05.21.12.3.2.09.09.16.19.21.3.05.12.08.24.08.37,0,.13-.03.25-.08.37-.05.11-.12.22-.21.3-.08.09-.19.16-.3.21-.12.05-.25.07-.38.07-.26,0-.51-.09-.69-.28-.09-.08-.16-.19-.21-.3-.05-.12-.07-.24-.07-.37,0-.13.02-.25.07-.37.05-.11.12-.21.21-.3.09-.08.2-.15.31-.2.13-.06.27-.08.41-.08h-.03Zm0,1.69c.1.02.19.02.29,0,.08-.04.16-.1.23-.16.07-.07.12-.15.16-.24.02-.1.02-.19,0-.29.02-.1.02-.19,0-.29-.04-.09-.09-.16-.16-.23-.07-.07-.15-.12-.23-.16-.19-.07-.39-.07-.58,0-.09.04-.17.09-.24.16-.07.07-.12.14-.16.23-.03.09-.05.19-.05.29,0,.1.02.2.05.29.04.09.09.17.16.24.07.06.15.12.24.16.11.02.21.02.32,0h-.03Zm.06-1.18c.09,0,.18.02.26.07.06.05.09.13.09.21,0,.07-.02.13-.07.18-.06.05-.13.09-.21.09l.29.33h-.23l-.27-.33h-.08v.33h-.19v-.88h.41Zm-.22.16v.24h.21s.08.01.12,0c.05-.03.06-.1.03-.15,0-.01-.02-.02-.03-.03-.04-.01-.08-.01-.12,0l-.21-.06Zm-1.13-31.08v-1.16h.47v-.23h-1.19v.23h.54v1.16h.18Zm2.31,0v-1.39h-.36l-.42,1-.42-1h-.29v1.39h.26v-1l.39.91h.27l.39-.91v1h.18Zm-60.31,7l.87.72c-16.57,10.99-38.91,6.47-49.9-10.1C-4.99,39.38-.46,17.04,16.1,6.05,28.16-1.95,43.84-1.95,55.9,6.05l-.87.72c-16.16,14.04-17.88,38.53-3.84,54.69,1.19,1.37,2.47,2.65,3.84,3.84v.03ZM80.5.03c-7.09-.02-14.03,2.07-19.93,6l.87.72c16.16,14.03,17.89,38.5,3.87,54.66-1.2,1.38-2.49,2.67-3.87,3.87l-.87.72c16.57,10.99,38.91,6.47,49.9-10.1s6.47-38.91-10.1-49.9C94.48,2.09,87.57,0,80.5,0v.03Zm-22.25,7.71c-.46.36-.92.74-1.36,1.12-15,13.05-16.59,35.79-3.54,50.79,1.1,1.26,2.28,2.44,3.54,3.54.44.38.9.76,1.36,1.13.47-.37.92-.75,1.36-1.13,15-13.05,16.59-35.79,3.54-50.79-1.1-1.26-2.28-2.44-3.54-3.54-.44-.38-.89-.76-1.36-1.12"/></g></g></g></svg>
