<svg xmlns="http://www.w3.org/2000/svg" xmlns:xlink="http://www.w3.org/1999/xlink" version="1.1" id="Layer_1" x="0px" y="0px" style="enable-background:new 0 0 686.8 252.3;" xml:space="preserve" viewBox="137.1 84.3 411.7 83.7"><style type="text/css">	.st0{fill:#000000;}</style><g>	<path class="st0" d="M232,84.6v15c15.7,0,28.3,13.7,26.5,29.7c-1.4,12.2-11.2,22.1-23.5,23.5c-16.1,1.8-29.7-10.8-29.7-26.5h-15   c0,23,18.7,41.7,41.7,41.7s41.7-18.7,41.7-41.7C273.7,103.3,255,84.6,232,84.6"></path>	<polygon class="st0" points="484.4,84.3 468.5,84.3 468.5,168 484.4,168 484.4,117.1 515.3,101.7 515.3,84.6 484.4,100.9  "></polygon>	<path class="st0" d="M205.5,126.3h15c0-23.9-20.2-43.2-44.4-41.6c-22.1,1.4-39,20.3-39,42.4v40.7h15v-40.9   c0-14,10.6-26.1,24.6-27.2C192.3,98.5,205.5,110.9,205.5,126.3"></path>	<path class="st0" d="M409,84.5c-23,0-41.7,18.7-41.7,41.7s18.7,41.7,41.7,41.7c10.1,0,19.4-3.6,26.7-9.7v9.7h15v-42h0   C450.5,103,431.9,84.5,409,84.5 M409,152.1c-14.7,0-26.7-12-26.7-26.7s12-26.7,26.7-26.7c14.7,0,26.7,12,26.7,26.7   S423.7,152.1,409,152.1"></path>	<rect x="532.9" y="84.5" class="st0" width="15.9" height="83.3"></rect>	<polygon class="st0" points="321.5,148.8 296.8,84.6 279.2,84.6 312.4,167.7 329.9,167.7 362.8,84.6 345.1,84.6  "></polygon></g></svg>