<?xml version="1.0" encoding="utf-8"?>
<!-- Generator: Adobe Illustrator 27.4.1, SVG Export Plug-In . SVG Version: 6.00 Build 0)  -->
<svg version="1.1" id="Layer_1" xmlns="http://www.w3.org/2000/svg" xmlns:xlink="http://www.w3.org/1999/xlink" x="0px" y="0px"
	 viewBox="0 0 1100 200" style="enable-background:new 0 0 1100 200;" xml:space="preserve">
<style type="text/css">
	.st0{fill:#000000;}
</style>
<g>
	<g>
		<g>
			<path class="st0" d="M370.7,119l14.1-9.1c5.6,10.4,17.3,20.1,31.6,20.1c10.3,0,17.9-4,17.9-13c0-23.3-57.4-6.7-57.4-44.3
				c0-15.9,12.7-28,32.9-28c16,0,30.3,7.3,37.9,20.4l-14.1,9c-5.6-8.7-14-14.3-23.9-14.3c-9.3,0-14.4,5-14.4,11.7
				c0,21.1,57.6,5.6,57.6,43.6c0,19.7-17.4,30.4-36.6,30.4C396.4,145.5,377.6,134.5,370.7,119z"/>
			<path class="st0" d="M468.9,124.1V85.5h-9.1v-13h3.6c4.1,0,5.6-1.7,5.6-6.6V55.4H486v17.1h18l-2.4,13H486v36.6c0,5.9,2.1,9,7.6,9
				c3.3,0,6.9-1,8.7-2.6v14c-2.6,1.4-6.6,2.9-11.9,2.9C476.4,145.4,468.9,138.7,468.9,124.1z"/>
			<path class="st0" d="M509.2,108.1c0-22.9,14.4-37.9,35-37.9c20.7,0,35,15,35,37.6c0,23-14.3,37.9-35,37.9
				C523.6,145.7,509.2,131,509.2,108.1z M544.2,131.3c10.6,0,17.7-9,17.7-23.3c0-14.4-7.1-23.3-17.7-23.3
				c-10.6,0-17.7,8.9-17.7,23.3C526.4,122.3,533.6,131.3,544.2,131.3z"/>
			<path class="st0" d="M593.6,72.5h16.6v14.1c3.9-8.4,10-15.4,22-15.9v17c-15.4,0.6-21.4,11.4-21.4,26.6v29.3h-17.1V72.5z"/>
			<path class="st0" d="M637.9,109.1c0-23.6,14-38.9,34.7-38.9c23.6,0,33.7,19.3,32,41.7h-49.7c1.1,13.9,8,20.7,18.7,20.7
				c9.3,0,15.9-5.7,19.1-11.4l11.1,7.6c-5.9,9.9-16.9,16.7-31,16.7C650.6,145.5,637.9,131.1,637.9,109.1z M688,100.3
				c-0.9-11.9-7.4-17.3-15.9-17.3c-8.7,0-15,5.7-16.9,17.3H688z"/>
			<path class="st0" d="M735.2,133.3l-1.3,10.4h-14.7V46.5h17V83c5.1-8,13.6-12.7,22.9-12.7c17.6,0,31,14.4,31,36.9
				c0,22.4-14.3,38.4-31.9,38.4C748.3,145.5,740,141,735.2,133.3z M754.3,132.4c10.6,0,18-9.4,18-24.4c0-14.9-7.6-24.3-18-24.3
				c-10.7,0-18.1,9.4-18.1,24.3C736.2,123,743.6,132.4,754.3,132.4z"/>
			<path class="st0" d="M803.6,72.5h16.6v14.1c3.9-8.4,10-15.4,22-15.9v17c-15.4,0.6-21.4,11.4-21.4,26.6v29.3h-17.1V72.5z"/>
			<path class="st0" d="M848.3,127c0-13.6,9.1-19,33.7-27c7.9-2.7,10-5.4,10-9.1c0-4.9-4.7-7.3-11.3-7.3c-8,0-15.4,4.9-18.4,11.1
				l-12.1-8c5.6-9.9,16.6-16.4,31.3-16.4c15.1,0,27.3,5.9,27.3,22.9V122c0,7.9,2.1,10,6.9,10.3v12.3c-12,0.9-19.1-2.9-21.7-12.1
				c-4,7-12.1,13.3-23.1,13.3C859.7,145.7,848.3,141.4,848.3,127z M875.5,133.4c9.4,0,16.7-9,16.7-19.9v-7.9
				c-2.1,1.6-4.9,2.9-8.7,4.3c-12.7,5.1-18.1,8.7-18.1,15.4C865.3,131.7,870.3,133.4,875.5,133.4z"/>
			<path class="st0" d="M927.9,72.5H945v9c3.7-5.1,10.4-10.9,21.6-10.9c16.7,0,24,11.9,24,31v42h-17v-41.1
				c0-10.6-3.9-18.1-13.9-18.1c-9.3,0-14.7,7.1-14.7,17.7v41.6h-17.1V72.5z"/>
			<path class="st0" d="M1004,108.5c0-21.4,13-38.3,32-38.3c9.9,0,17.3,4.1,22,11V46.5h17v97.1h-17v-9.1c-4.7,7-11.9,11.1-21.7,11.1
				C1017.6,145.7,1004,130.4,1004,108.5z M1039.9,132.3c11,0,18.1-9.7,18.1-24.6c0-14.7-7.1-24-18.1-24c-10.9,0-18.1,9.3-18.1,24
				C1021.7,122.5,1029,132.3,1039.9,132.3z"/>
		</g>
	</g>
	<path class="st0" d="M173.2,137.9c32.1,0,77.9-13.3,77.9-45c0-9.5-4.6-18-12.5-25.1c-6.6,3.8-11.8,9.5-14.6,16.7
		c3.4,2.8,5.1,5.5,5.1,8.4c0,15.2-33.1,23-55.9,23s-55.9-7.8-55.9-23c0-2.8,1.7-5.5,5.1-8.4c-2.8-7.2-8.2-13.1-14.6-16.7
		c-8,7-12.5,15.6-12.5,25.1C95.3,124.6,141.1,137.9,173.2,137.9z M254.9,30.4c-36.7,0-69.7,32.3-66.3,73.1
		c8.5-0.9,16.9-3.8,21.8-6.5c0-24.7,19.9-44.6,44.5-44.6s44.3,19.9,44.3,44.5s-19.8,44.5-44.3,44.5c-8,0-15.4-2.3-21.8-6.1
		c-9.1,4.9-16.5,7.4-24.3,9.3c12,11.6,28.1,18.8,46.2,18.8c36.7,0,66.5-29.8,66.5-66.5S291.6,30.4,254.9,30.4z M113.4,135.3
		c-6.5,3.8-13.9,6.1-21.8,6.1c-24.5,0-44.3-19.9-44.3-44.5S67,52.4,91.5,52.4S136,72.4,136,97.1c4.9,2.7,13.3,5.5,21.8,6.5
		c3.4-40.8-29.6-73.1-66.3-73.1S25,60.2,25,96.9s29.8,66.5,66.5,66.5c18,0,34.2-7.2,46.2-18.8C129.9,142.7,122.5,140.2,113.4,135.3z
		 M181.8,70.7c2.7-7.6,6.6-14.8,11.6-21.1c-11-1.9-29.3-1.9-40.3,0c4.9,6.3,8.9,13.5,11.6,21.1C170.2,70.3,176.3,70.3,181.8,70.7z"
		/>
</g>
</svg>
