<?xml version="1.0" encoding="UTF-8"?><svg id="Layer_2" xmlns="http://www.w3.org/2000/svg" viewBox="0 0 218.06 38.51"><defs><style>.cls-1{fill:#650729;}</style></defs><g id="Layer_1-2"><polygon class="cls-1" points="173.88 33.17 162.85 22.26 162.85 28.85 167.27 33.17 173.88 33.17"/><path class="cls-1" d="m180.09,9.73s-.01,0-.01-.01c0,0,0,0,0,0h0Z"/><path class="cls-1" d="m188.9,33.17l3.37-6.24h16.58l3.39,6.24h5.82l-13.74-25.48c-1.53-3.02-5.98-2.99-7.52.01,0,0-7.49,13.92-11.39,21.18l-8.2-8.2c2.41-1.48,4-3.72,4-6.97,0-5.18-3.85-8.25-8.61-8.3h-14.26c-4.06,0-7.35,3.28-7.35,7.32v16.46c0,2.39,1.25,3.98,3.58,3.99h1.14V12.61c0-1.36,1.17-2.54,2.54-2.54h14.66c1.99,0,3.64,1.62,3.64,3.64s-1.63,3.65-3.64,3.65h-5.6l15.79,15.8h5.8Zm5.75-10.85c.68-1.29,5.22-9.97,5.92-11.28.69,1.32,5.24,10,5.92,11.28h-11.83Z"/><path class="cls-1" d="m75.01,19.27c0,7.14,5.6,14.36,16.32,14.36s16.32-7.23,16.32-14.36-5.61-14.36-16.32-14.36-16.32,7.22-16.32,14.36m4.95,0c0-4.79,2.99-9.91,11.37-9.91s11.37,5.12,11.37,9.91-2.99,9.91-11.37,9.91-11.37-5.12-11.37-9.91Z"/><path class="cls-1" d="m49.21,5.38c-3.43,0-3.48,4.61,0,4.69h9.37v23.1h5.27V10.08h9.36c3.39,0,3.44-4.7,0-4.7h-23.99Z"/><path class="cls-1" d="m139.25,7.35s-8.49,13.55-10.47,16.71c-.77-1.22-10.47-16.71-10.47-16.71-.82-1.3-1.56-1.92-3.59-1.92s-3.6.83-3.7,2.84l-.02,24.9h4.95s-.01-17.07-.01-20.19c1.64,2.63,10.15,16.3,10.15,16.3,1.26,1.98,4.13,1.99,5.39,0,0,0,7.43-11.93,10.15-16.3,0,3.11-.01,20.19-.01,20.19h4.96V8.33c-.01-1.77-1.73-2.9-3.73-2.9s-2.77.62-3.59,1.92"/><path class="cls-1" d="m38.51,14.42V0s-13.89,0-13.89,0H7.21s-.02,0-.03,0c-.93,0-1.81.18-2.62.5-.04.01-.07.03-.11.04-.13.06-.26.12-.39.18-.1.05-.19.09-.29.14-.06.03-.11.06-.16.1-.55.31-1.07.69-1.53,1.16C.7,3.52,0,5.34,0,7.17c0,.03,0,.06,0,.1v17.35s0,13.89,0,13.89h14.42s0-13.89,0-13.89h0s13.89,13.89,13.89,13.89l10.2-10.19-13.89-13.89h13.9Zm-31.24-1.5c-1.65,0-3.14-.69-4.2-1.8-.22-.23-.42-.47-.59-.73,0-.01-.02-.03-.03-.04-.8-1.22-1.08-2.68-.87-4.06.02-.14.05-.27.08-.4.04-.16.09-.33.14-.49.09-.27.2-.53.33-.77.02-.05.05-.1.08-.15.16-.29.34-.57.55-.82.02-.02.03-.04.05-.06.21-.25.44-.49.69-.7.04-.04.09-.07.14-.11.22-.18.45-.34.69-.48.13-.08.27-.15.41-.22.16-.08.32-.15.48-.21.26-.1.53-.19.8-.24.05-.01.1-.02.15-.02.34-.06.68-.1,1.03-.1s.72.04,1.07.1c.01,0,.02,0,.03,0,.31.06.6.15.89.26.09.03.18.07.27.11.21.09.42.2.62.32.15.09.29.18.43.28.14.1.28.21.42.33,1.18,1.03,1.94,2.53,1.97,4.2v.03s0,.07,0,.07v5.7s-5.65,0-5.65,0Zm5.65,1.5v6.57s-6.65-6.65-6.65-6.65c.33.05.66.08,1,.08h5.65Zm1.5-7.22s0-.02,0-.04c0-.3-.03-.59-.07-.88l6.64,6.64h-6.57s0-5.72,0-5.72Zm-1.5,29.81H1.5s0-12.39,0-12.39v-13.03c.2.26.41.52.65.75l10.77,10.77v1.51s0,12.39,0,12.39Zm10.63-21.53l12.83,12.83-8.08,8.07-12.83-12.83-1.06-1.06v-8.07s8.07,0,8.07,0l1.06,1.06Zm-.44-2.56L12.29,2.1s-.02-.02-.03-.03c-.21-.21-.44-.4-.67-.57h13.02s12.39,0,12.39,0v11.42s-12.39,0-12.39,0h-1.51Z"/></g></svg>