<?xml version="1.0" encoding="UTF-8"?><svg id="Layer_2" xmlns="http://www.w3.org/2000/svg" viewBox="0 0 174.12 70.04"><defs><style>.cls-1{fill:#650729;}</style></defs><g id="Layer_1-2"><path class="cls-1" d="m38.12,70.04c-9.7,0-17.5-7.9-17.5-17.6v-29.5h5.4v29.5c0,6.7,5.4,12.2,12.1,12.2s12.1-5.5,12.1-12.2v-7.1h5.4v7.1c0,9.7-7.8,17.6-17.5,17.6Z"/><path class="cls-1" d="m16.22,36.54l-6.4-3.1C1.12,29.14-2.48,18.64,1.82,9.94,6.02,1.24,16.52-2.46,25.22,1.84l26.4,13-2.4,4.9L22.82,6.74c-6-2.9-13.3-.4-16.2,5.6-2.9,6-.4,13.3,5.6,16.3l6.4,3.1-2.4,4.8Z"/><path class="cls-1" d="m39.92,46.24l-2.3-4.9,26.4-12.8c2.9-1.4,5.1-3.9,6.2-6.9,1.1-3.1.9-6.4-.5-9.3s-3.9-5.1-6.9-6.2c-3.1-1.1-6.3-.9-9.3.5l-6.4,3.1-2.3-4.9,6.4-3.1c4.2-2,9-2.3,13.4-.8,4.4,1.5,8,4.7,10,8.9s2.3,9,.8,13.4c-1.5,4.4-4.7,8-8.9,10l-26.6,13Z"/><path class="cls-1" d="m90.82,44.44h5.3c1,2.5,3.2,3.6,6.4,3.6,4.2,0,6.8-2,6.8-7.1v-3.3c-1.5,2.9-4.2,4.4-7.6,4.4-5.8,0-11-3.7-11-12.3v-12.4h5.3v12.4c0,4.9,2.7,7.3,6.7,7.3s6.7-2.5,6.7-7.3v-12.4h5.3v23.5c0,8.5-5.4,11.9-12.1,11.9-5.8,0-10.4-2.6-11.8-8.3Z"/><path class="cls-1" d="m120.22,29.04c0-8.1,4.8-12.3,12-12.3s12,4.1,12,12.3v12.7h-5.3v-12.7c0-4.9-2.7-7.4-6.7-7.4s-6.7,2.5-6.7,7.4v12.7h-5.3v-12.7h0Z"/><path class="cls-1" d="m148.02,29.54c0-7.4,5.4-12.8,13.1-12.8s13,5.4,13,12.8v1.9h-20.4c.7,3.9,3.7,6,7.5,6,2.8,0,4.9-.8,6.2-2.7h5.7c-1.9,4.6-6.3,7.5-12,7.5-7.7.1-13.1-5.3-13.1-12.7Zm20.4-2.6c-.9-3.5-3.8-5.4-7.4-5.4s-6.4,1.9-7.3,5.4h14.7Z"/></g></svg>