<?xml version="1.0" standalone="no"?>
<!DOCTYPE svg PUBLIC "-//W3C//DTD SVG 20010904//EN"
 "http://www.w3.org/TR/2001/REC-SVG-20010904/DTD/svg10.dtd">
<svg version="1.0" xmlns="http://www.w3.org/2000/svg"
 width="300.000000pt" height="300.000000pt" viewBox="0 0 300.000000 300.000000"
 preserveAspectRatio="xMidYMid meet">
<metadata>
Created by potrace 1.10, written by Peter Selinger 2001-2011
</metadata>
<g transform="translate(0.000000,300.000000) scale(0.100000,-0.100000)"
fill="#FCAF17" stroke="none">
<path d="M982 2812 c-44 -13 -91 -61 -102 -105 -7 -23 -19 -53 -27 -66 -15
-23 -15 -24 13 -18 16 3 48 1 71 -5 34 -8 59 -7 118 7 74 18 107 35 65 35 -11
0 -49 5 -83 12 l-63 12 17 49 c9 26 21 53 28 60 25 25 10 32 -37 19z m-18 -93
c-6 -36 -4 -44 17 -60 23 -18 23 -19 3 -19 -12 0 -36 3 -54 6 -30 7 -32 9 -26
42 6 37 31 72 53 72 10 0 12 -10 7 -41z"/>
<path d="M1990 2802 c0 -5 7 -15 15 -22 8 -7 18 -30 21 -52 4 -21 11 -41 15
-44 24 -14 1 -22 -82 -29 -50 -3 -87 -10 -83 -14 21 -18 144 -41 211 -38 73 2
89 12 58 37 -8 7 -17 28 -21 49 -8 47 -28 77 -62 95 -41 21 -72 28 -72 18z
m101 -101 c16 -53 7 -71 -33 -71 l-32 0 22 20 c16 15 20 27 15 55 -8 49 13 45
28 -4z"/>
<path d="M1120 2784 c-35 -15 -90 -61 -90 -75 0 -4 15 -3 32 2 18 5 65 9 105
9 83 0 103 6 103 30 0 46 -79 65 -150 34z m95 -24 c4 -6 -11 -10 -37 -9 -33 0
-38 2 -23 9 28 12 53 12 60 0z"/>
<path d="M1762 2780 c-47 -44 -18 -61 116 -70 59 -4 109 -5 112 -3 10 9 -56
54 -108 73 -67 25 -93 25 -120 0z m113 -31 c5 -5 -3 -9 -22 -9 -38 0 -65 9
-58 20 6 10 66 2 80 -11z"/>
<path d="M795 2741 c-46 -27 -83 -77 -90 -119 -4 -20 -12 -55 -18 -77 l-13
-40 78 -2 c82 -3 164 19 209 56 22 17 20 18 -79 17 -109 -1 -117 3 -83 46 11
13 28 50 39 81 17 51 17 57 3 57 -9 0 -30 -8 -46 -19z m5 -57 c-6 -14 -17 -36
-25 -47 -33 -47 -10 -86 52 -88 l28 -1 -34 -14 c-26 -12 -40 -13 -68 -3 -34
11 -34 12 -28 53 8 48 20 72 48 104 27 29 39 28 27 -4z"/>
<path d="M2164 2733 c8 -16 19 -46 25 -68 12 -42 47 -92 58 -82 3 4 -1 17 -9
29 -19 29 -33 88 -20 88 35 0 88 -154 59 -172 -14 -9 -59 -10 -81 -2 -22 9
-20 24 3 24 22 0 39 19 19 21 -58 5 -177 2 -175 -4 1 -5 34 -22 72 -39 58 -26
84 -31 147 -32 43 -1 78 0 78 2 0 2 -6 15 -14 30 -8 15 -17 49 -21 75 -9 60
-40 105 -90 134 -56 32 -69 30 -51 -4z"/>
<path d="M598 2627 c-65 -58 -76 -87 -84 -213 l-7 -108 24 15 c13 9 49 19 79
23 74 10 127 35 174 84 l39 41 -86 -4 c-59 -2 -93 -9 -109 -20 -23 -16 -23
-16 17 -14 60 3 85 0 85 -10 0 -14 -92 -49 -140 -52 l-45 -3 0 64 c0 36 4 77
8 91 6 25 39 69 50 69 12 0 12 -37 0 -74 -15 -43 -17 -66 -5 -66 16 1 42 74
42 121 0 28 5 59 10 69 19 35 -5 29 -52 -13z"/>
<path d="M2354 2639 c4 -19 9 -54 12 -79 3 -25 13 -62 21 -83 18 -42 12 -58
-14 -35 -12 10 -49 17 -106 21 l-88 6 52 -47 c68 -61 86 -70 155 -78 33 -3 69
-12 81 -20 l22 -14 -3 113 c-2 132 -17 166 -93 219 l-46 31 7 -34z m91 -103
c10 -27 15 -64 13 -106 -3 -72 2 -69 -88 -56 -53 8 -103 41 -82 55 8 5 33 4
60 -2 62 -13 76 4 56 71 -27 89 9 123 41 38z"/>
<path d="M414 2454 c-64 -77 -68 -87 -59 -178 4 -45 8 -100 9 -123 0 -24 2
-43 4 -43 1 0 13 6 25 14 12 8 44 18 70 21 55 9 119 54 180 128 44 54 41 55
-69 27 -52 -13 -88 -29 -104 -45 -21 -21 -22 -25 -7 -25 10 0 29 7 42 16 29
19 85 29 85 15 0 -13 -58 -61 -89 -73 -14 -6 -43 -14 -63 -18 -37 -7 -38 -7
-47 29 -20 77 -17 147 10 190 26 43 39 28 32 -38 -2 -25 -5 -55 -6 -66 -1 -11
2 -21 8 -23 17 -5 26 55 23 149 l-3 91 -41 -48z"/>
<path d="M2540 2390 c0 -54 5 -111 12 -125 16 -35 5 -41 -31 -16 -26 19 -171
64 -179 56 -2 -1 16 -28 39 -60 48 -63 103 -100 166 -110 23 -4 54 -16 69 -27
l26 -21 -6 29 c-4 16 -2 52 4 79 24 110 24 142 0 187 -22 43 -77 108 -92 108
-4 0 -8 -45 -8 -100z m68 -9 c25 -44 26 -79 8 -166 -13 -58 -14 -60 -42 -57
-63 7 -163 69 -149 92 6 10 58 -5 92 -27 19 -13 24 -12 42 6 14 14 19 29 16
44 -3 12 -6 40 -7 62 -3 97 6 107 40 46z"/>
<path d="M1291 2394 c-6 -15 -9 -36 -5 -48 4 -11 3 -18 -1 -14 -25 23 -47 -46
-23 -70 17 -17 3 -25 -21 -12 -12 6 -21 21 -21 33 -1 20 -2 20 -16 -6 -21 -39
-11 -71 31 -97 36 -22 55 -47 55 -73 0 -8 -25 9 -55 38 -30 29 -55 58 -55 65
0 6 -5 8 -11 4 -8 -5 -10 3 -7 24 4 28 2 30 -11 19 -25 -19 -31 -30 -31 -59 0
-14 -11 -49 -25 -76 -14 -28 -30 -73 -35 -101 -5 -28 -17 -63 -27 -77 -9 -14
-20 -51 -24 -81 -5 -33 -18 -70 -34 -93 -14 -21 -33 -59 -41 -85 -7 -26 -27
-68 -44 -93 -43 -65 -38 -76 34 -80 l58 -3 -6 -31 c-4 -22 -1 -37 11 -50 14
-16 14 -22 3 -43 -10 -19 -11 -28 -2 -37 7 -7 9 -33 5 -73 -5 -58 -4 -64 18
-78 13 -8 58 -21 99 -27 62 -11 80 -18 107 -45 18 -18 33 -44 34 -57 1 -45 5
-74 18 -138 12 -57 12 -73 -2 -118 -13 -47 -13 -54 -1 -59 32 -12 134 20 249
77 145 73 206 89 353 97 62 3 115 10 118 15 12 19 -7 76 -46 141 -22 36 -45
86 -52 112 -12 45 -12 48 11 66 18 14 19 19 7 19 -25 0 -19 13 13 32 22 12 28
22 24 36 -4 16 3 22 31 32 30 10 36 16 36 40 0 46 -31 56 -89 31 -51 -22 -105
-28 -133 -16 -27 11 -22 -10 7 -29 33 -22 62 -20 111 6 40 21 74 20 74 -3 0
-6 -6 -9 -14 -6 -7 3 -35 -5 -62 -18 -64 -32 -90 -31 -124 4 -28 28 -30 28
-36 8 -5 -15 1 -27 22 -45 23 -20 35 -23 71 -19 46 5 59 -9 18 -19 -37 -9 -85
3 -112 28 -26 24 -32 8 -6 -17 22 -22 57 -35 98 -35 l33 0 -5 -57 c-4 -47 0
-66 18 -98 94 -169 94 -175 9 -175 -118 0 -272 -42 -390 -107 -62 -34 -161
-72 -188 -73 -9 0 -12 21 -11 74 1 41 -2 79 -5 85 -4 6 -10 41 -13 78 -9 113
-46 156 -150 174 -106 20 -108 21 -109 124 -1 50 -4 101 -8 113 -5 13 -9 36
-11 50 -3 31 -38 62 -71 62 -33 0 -38 15 -15 47 12 16 30 54 40 86 11 32 28
70 39 85 27 40 42 79 42 110 0 15 7 40 15 56 8 16 22 56 31 90 9 33 23 77 32
96 9 19 18 46 21 59 6 23 8 22 74 -34 57 -50 67 -64 67 -91 0 -36 32 -81 74
-103 14 -8 26 -20 26 -26 0 -7 9 -20 20 -30 11 -10 20 -24 20 -32 0 -16 32
-17 48 -1 28 28 14 71 -43 128 -63 63 -97 112 -49 70 16 -14 31 -27 34 -31 3
-3 22 -18 43 -34 48 -36 70 -77 62 -116 -8 -35 -35 -52 -78 -47 -26 2 -32 -1
-32 -17 0 -29 73 -33 135 -6 45 19 109 19 78 0 -7 -5 -21 -9 -30 -9 -9 0 -39
-14 -66 -31 -56 -35 -90 -33 -122 8 -17 22 -20 23 -20 7 0 -10 12 -31 27 -46
36 -38 79 -37 128 2 37 30 60 39 53 21 -1 -5 -23 -25 -47 -46 -44 -36 -58 -39
-106 -20 -20 8 -20 8 0 -14 14 -17 28 -22 57 -20 20 2 40 0 44 -4 10 -10 84
-9 84 2 0 12 113 61 141 61 32 0 15 -12 -58 -40 -63 -25 -76 -44 -23 -33 29 5
42 -9 20 -22 -6 -4 -6 -15 1 -32 5 -14 8 -39 5 -56 -2 -16 -2 -36 1 -45 6 -13
8 -13 14 4 12 30 10 99 -3 112 -6 6 -8 15 -4 19 10 10 56 -43 56 -63 0 -8 -9
-33 -21 -55 -21 -43 -21 -61 1 -34 16 19 25 19 46 -2 21 -22 74 -19 117 7 63
39 134 11 121 -48 -5 -26 -5 -26 10 -8 9 11 16 32 16 48 0 17 7 31 20 38 28
15 26 32 -2 21 -13 -4 -29 -6 -37 -3 -8 3 -11 0 -7 -7 9 -14 -14 -14 -48 -1
-31 12 -66 65 -66 102 0 17 -11 35 -31 52 -30 26 -30 26 -6 26 13 0 36 -10 51
-21 35 -28 45 -17 14 14 -17 17 -42 27 -79 32 -30 4 -61 11 -71 16 -16 9 -58
69 -58 84 0 4 21 5 47 1 36 -5 44 -3 36 5 -7 7 -36 14 -65 16 -29 3 -74 15
-99 29 -26 13 -58 24 -73 24 -14 0 -26 4 -26 10 0 10 63 30 98 30 14 0 21 4
17 10 -4 7 -24 8 -50 5 -45 -7 -73 2 -112 38 -32 29 -29 37 13 30 27 -4 36 -3
33 6 -3 7 -26 14 -54 15 -63 4 -113 29 -125 64 -6 15 -15 35 -20 44 -6 10 -10
20 -10 24 0 9 43 -7 72 -27 35 -25 46 -24 22 2 -10 12 -42 32 -71 44 -54 24
-74 48 -72 87 0 13 3 17 6 11 2 -7 9 -13 14 -13 5 0 3 13 -6 30 -16 32 -20 76
-6 84 4 3 29 -14 54 -38 45 -43 45 -44 51 -20 6 23 9 21 66 -38 37 -39 64 -78
72 -103 7 -22 20 -46 30 -53 11 -8 18 -26 18 -48 0 -33 26 -101 36 -92 2 2 -1
18 -8 34 -11 31 -4 104 11 104 18 0 53 -65 61 -113 10 -61 26 -107 38 -107 4
0 6 15 4 34 -4 35 11 76 28 76 6 0 10 -15 10 -33 0 -27 8 -40 41 -66 40 -33
62 -70 74 -124 7 -35 25 -25 25 14 0 31 15 69 28 69 7 0 24 -43 44 -113 8 -27
8 -49 0 -73 -13 -43 5 -47 21 -4 6 17 15 30 19 30 15 0 19 -48 8 -90 -15 -56
-7 -90 23 -90 31 0 47 18 47 55 0 17 6 37 13 44 10 11 8 12 -12 6 -21 -6 -23
-5 -16 11 5 11 10 39 13 64 4 44 4 45 -15 28 -20 -19 -53 -24 -53 -10 0 5 11
14 25 20 31 14 55 60 62 122 5 42 2 56 -20 89 -14 21 -31 58 -37 82 -6 24 -20
59 -30 77 -11 17 -15 32 -10 32 17 0 49 -62 56 -107 3 -24 11 -46 17 -50 15
-9 0 72 -22 122 -33 73 -119 143 -198 160 -18 3 -33 11 -33 16 0 12 11 11 59
-6 55 -19 43 -2 -22 33 -50 26 -58 27 -200 27 -143 0 -149 -1 -165 -23 -18
-23 -32 -21 -32 5 0 18 46 35 93 35 20 -1 37 3 37 9 0 14 -50 11 -106 -6 -58
-17 -100 -19 -109 -5 -5 8 -11 7 -21 -1 -11 -9 -20 -5 -43 20 -16 17 -31 31
-33 31 -3 0 -10 -12 -17 -26z m312 -77 c-7 -36 26 -56 121 -74 91 -16 135 -39
169 -85 29 -39 16 -44 -23 -8 -36 33 -113 60 -175 60 -64 0 -143 27 -161 56
-19 28 -9 48 10 21 17 -22 30 -22 17 0 -12 23 4 53 28 53 14 0 17 -6 14 -23z
m197 14 c21 -6 22 -8 8 -14 -24 -9 -23 -37 2 -37 37 0 125 -40 161 -74 35 -32
57 -76 38 -76 -5 0 -9 4 -9 9 0 18 -65 74 -105 92 -23 10 -75 23 -116 30 -40
6 -82 15 -91 20 -59 31 33 72 112 50z m-530 -132 c51 -32 59 -47 60 -116 0
-61 0 -62 42 -90 46 -31 66 -69 53 -99 -8 -17 -9 -15 -13 9 -2 19 -19 39 -59
68 l-55 41 6 52 c7 49 -6 106 -23 106 -11 0 -66 49 -56 50 6 0 26 -10 45 -21z
m398 -18 c50 -26 69 -49 80 -98 13 -58 -3 -78 -19 -24 -13 45 -58 94 -112 123
-28 15 -29 17 -9 18 12 0 39 -9 60 -19z m94 1 c2 -5 30 -26 63 -46 33 -21 70
-50 83 -65 l23 -26 -6 40 c-4 26 -3 36 3 30 12 -12 23 -195 12 -195 -5 0 -14
23 -20 51 -13 53 -38 83 -146 176 -32 27 -43 42 -32 43 9 0 18 -4 20 -8z m213
-52 c7 -14 18 -51 25 -83 7 -35 21 -68 37 -85 19 -21 23 -23 17 -7 -13 34 -17
112 -5 95 6 -8 11 -24 11 -35 0 -11 9 -35 20 -53 25 -40 25 -42 0 -42 -58 0
-110 56 -110 118 0 21 -11 61 -25 88 -14 27 -25 53 -25 58 0 14 40 -26 55 -54z
m-140 -86 c8 -19 18 -34 24 -34 21 0 51 -68 50 -116 0 -42 -2 -46 -12 -30 -7
10 -27 38 -45 62 -33 45 -34 58 0 27 28 -25 21 0 -7 27 -21 20 -45 74 -45 103
0 18 21 -6 35 -39z m182 -132 c28 -15 66 -15 81 0 6 6 15 8 19 4 11 -11 -35
-46 -61 -46 -12 0 -32 7 -44 16 -27 19 -31 1 -6 -34 26 -37 53 -46 75 -26 25
23 37 10 14 -16 -41 -45 -101 -3 -122 87 -11 44 -5 63 12 40 5 -7 20 -19 32
-25z m-371 -68 c18 -9 49 -35 67 -58 30 -35 33 -44 22 -59 -7 -9 -22 -17 -34
-17 -12 0 -51 -14 -87 -31 -72 -35 -95 -31 -49 8 45 38 84 51 128 45 37 -5 39
-4 28 16 -21 40 -79 75 -133 80 -46 4 -49 6 -33 18 25 18 49 18 91 -2z m13
-68 c9 -11 6 -15 -19 -18 -38 -6 -50 9 -18 21 13 6 24 10 24 10 1 1 7 -5 13
-13z m200 -112 c12 -15 21 -31 21 -35 0 -18 -16 -8 -43 26 -20 25 -24 35 -13
35 8 0 24 -12 35 -26z m-66 -5 c29 -16 37 -28 37 -61 0 -15 7 -33 15 -42 20
-19 19 -28 -2 -24 -10 2 -24 22 -33 48 -11 33 -23 49 -47 60 -18 8 -33 18 -33
23 0 11 39 8 63 -4z m111 -110 c-2 -5 -16 -3 -29 3 -17 8 -25 19 -25 36 l0 26
30 -29 c16 -15 27 -32 24 -36z m-45 -49 c18 0 30 4 27 9 -8 13 25 24 37 12 7
-7 2 -14 -15 -20 -15 -5 -29 -15 -33 -20 -9 -15 -58 -14 -73 1 -7 7 -12 21
-12 32 0 18 1 18 18 3 10 -10 33 -17 51 -17z"/>
<path d="M229 2238 c-27 -53 -31 -70 -26 -114 3 -28 19 -81 36 -117 17 -36 31
-74 31 -84 0 -10 4 -24 9 -31 6 -11 13 -7 29 16 13 18 34 32 54 36 54 11 102
50 147 120 45 69 49 96 8 58 -13 -12 -52 -31 -88 -43 -35 -11 -68 -27 -72 -35
-4 -8 -14 -14 -21 -14 -9 0 -13 21 -14 69 -1 44 -9 85 -22 113 -11 23 -20 53
-20 66 0 38 -19 24 -51 -40z m54 -61 c9 -23 17 -62 17 -86 0 -26 6 -52 16 -62
15 -16 18 -16 57 2 43 19 87 25 87 11 0 -25 -140 -99 -162 -86 -19 12 -62 121
-66 170 -4 47 9 94 26 94 4 0 15 -19 25 -43z"/>
<path d="M2724 2263 c-3 -16 -14 -49 -25 -75 -11 -28 -19 -71 -19 -107 0 -34
-3 -61 -6 -61 -4 0 -21 8 -38 19 -17 10 -47 21 -67 25 -20 4 -55 20 -78 36
-50 37 -52 25 -6 -37 81 -109 95 -123 141 -134 30 -8 53 -22 69 -43 23 -29 25
-29 25 -9 0 13 18 63 40 112 51 112 52 158 9 241 -17 33 -33 60 -35 60 -2 0
-6 -12 -10 -27z m36 -78 c20 -24 13 -101 -16 -168 -34 -76 -48 -94 -66 -80 -7
6 -26 13 -43 17 -33 8 -85 52 -85 73 0 15 37 9 84 -14 26 -13 30 -13 46 4 10
10 21 41 24 68 6 58 24 115 36 115 4 0 13 -7 20 -15z"/>
<path d="M140 2015 c-40 -106 -34 -161 29 -244 21 -29 47 -69 57 -91 21 -44
29 -49 37 -21 2 11 28 36 57 57 44 31 59 51 85 109 18 38 36 80 39 93 9 28 -9
30 -24 2 -6 -11 -34 -32 -62 -46 -29 -15 -60 -37 -71 -50 -24 -31 -33 -24 -41
29 -4 25 -21 63 -41 92 -19 27 -35 56 -35 66 0 30 -19 32 -30 4z m46 -92 c11
-16 25 -46 33 -68 25 -73 48 -82 97 -40 26 22 64 34 64 20 0 -22 -37 -68 -79
-99 l-50 -35 -45 62 c-55 78 -69 112 -61 154 7 40 15 41 41 6z"/>
<path d="M2846 2015 c-4 -16 -24 -51 -43 -78 -21 -28 -40 -68 -44 -94 -5 -26
-11 -48 -14 -51 -2 -3 -20 9 -40 27 -20 17 -41 31 -47 31 -7 0 -33 18 -59 40
-26 22 -50 40 -53 40 -9 0 32 -108 59 -154 17 -29 45 -57 77 -76 27 -17 52
-40 55 -51 8 -28 19 -24 34 13 7 18 32 55 55 84 23 28 47 60 53 72 17 31 12
141 -8 187 l-18 40 -7 -30z m14 -169 c-9 -28 -30 -57 -95 -133 l-20 -23 -43
29 c-24 15 -54 44 -68 64 -22 32 -30 57 -20 57 8 0 52 -26 85 -49 42 -30 60
-21 81 40 20 56 39 91 59 106 14 10 17 6 24 -24 4 -21 3 -50 -3 -67z"/>
<path d="M66 1745 c-8 -48 1 -128 16 -160 9 -18 175 -185 184 -185 2 0 4 9 4
21 0 11 22 43 50 70 27 28 51 58 54 67 15 52 37 173 34 183 -2 6 -15 -5 -29
-25 -14 -19 -46 -51 -71 -70 -25 -19 -48 -47 -52 -61 -7 -29 -26 -34 -26 -6 0
23 -40 82 -96 143 -24 26 -44 52 -44 58 0 5 -4 10 -9 10 -5 0 -12 -20 -15 -45z
m89 -87 c15 -18 34 -47 43 -65 24 -51 56 -53 86 -7 9 13 30 31 47 40 l32 16
-8 -39 c-8 -43 -14 -52 -68 -106 l-39 -39 -56 50 c-68 59 -90 93 -98 157 -7
45 -6 47 13 36 12 -6 33 -25 48 -43z"/>
<path d="M2846 1692 c-38 -43 -75 -93 -81 -112 l-12 -35 -13 25 c-7 14 -38 50
-70 80 -31 30 -62 64 -68 75 -19 36 -22 10 -7 -66 19 -103 27 -120 79 -172 25
-25 46 -54 46 -65 0 -28 20 -39 32 -17 13 22 74 80 115 108 35 24 60 69 69
127 7 42 -3 131 -14 129 -4 0 -38 -35 -76 -77z m64 -27 c0 -58 -24 -99 -94
-158 l-67 -57 -43 42 c-23 24 -48 52 -54 64 -15 28 -23 74 -12 74 4 0 31 -21
60 -47 l53 -47 21 28 c38 50 119 136 127 136 5 0 9 -16 9 -35z"/>
<path d="M347 1447 c-32 -39 -61 -84 -64 -99 -7 -36 -17 -35 -44 3 -12 17 -49
48 -82 69 -32 21 -67 50 -78 66 -16 25 -19 26 -25 9 -11 -27 14 -132 40 -174
29 -45 47 -60 121 -100 33 -18 70 -42 82 -53 l21 -20 7 34 c4 18 23 56 42 84
33 48 35 58 40 153 3 55 4 101 2 101 -2 0 -30 -33 -62 -73z m23 -109 c-11 -40
-66 -128 -79 -128 -18 0 -129 74 -153 102 -28 32 -55 95 -45 104 10 10 73 -29
120 -74 53 -52 70 -51 96 4 7 16 25 42 40 57 l26 29 3 -29 c2 -15 -1 -45 -8
-65z"/>
<path d="M2592 1410 c3 -103 4 -106 41 -159 22 -32 37 -65 37 -82 0 -36 4 -36
47 1 18 17 57 42 86 56 29 15 60 34 71 43 32 28 64 106 72 172 l6 64 -39 -37
c-21 -21 -46 -38 -54 -38 -27 0 -95 -56 -108 -89 -14 -32 -31 -33 -31 -1 0 11
-19 41 -42 68 -24 27 -53 62 -66 78 l-22 29 2 -105z m100 -67 c16 -24 33 -43
38 -43 5 0 26 17 47 39 30 30 111 81 130 81 10 0 0 -46 -16 -78 -24 -46 -39
-60 -123 -105 l-66 -36 -37 54 c-36 52 -55 111 -47 148 4 18 4 18 24 0 11 -10
34 -37 50 -60z"/>
<path d="M430 1311 c0 -7 -13 -46 -30 -88 -16 -41 -30 -92 -30 -114 0 -21 -2
-39 -5 -39 -3 0 -24 13 -47 30 -26 19 -54 30 -77 31 -50 1 -75 10 -105 36 -38
33 -39 13 -3 -58 38 -76 81 -109 142 -109 48 0 129 -25 146 -46 18 -22 30 -17
23 11 -4 16 3 48 20 90 31 79 32 88 5 178 -21 69 -39 106 -39 78z m27 -153 c6
-57 -38 -162 -65 -154 -9 3 -53 12 -97 21 -62 11 -85 20 -102 40 -13 15 -23
31 -23 37 0 15 76 2 126 -22 67 -33 88 -24 101 41 3 19 13 49 20 68 18 42 33
30 40 -31z"/>
<path d="M2536 1233 c-32 -96 -32 -106 -1 -189 15 -40 22 -76 19 -90 -8 -29
-1 -30 35 -3 31 23 88 38 144 39 48 0 86 19 125 64 26 30 52 89 52 119 0 5
-13 -2 -29 -16 -19 -15 -47 -26 -79 -30 -53 -6 -132 -40 -132 -57 0 -6 -7 -10
-15 -10 -10 0 -15 10 -15 33 0 17 -13 57 -30 87 -16 30 -29 69 -30 87 0 58
-18 44 -44 -34z m54 -69 c8 -16 16 -37 18 -48 6 -36 22 -67 37 -72 8 -3 34 5
58 19 45 27 147 47 147 30 0 -12 -38 -47 -68 -62 -13 -7 -50 -14 -84 -17 -33
-2 -68 -9 -78 -14 -10 -6 -23 -10 -28 -10 -18 0 -54 119 -48 158 3 20 5 41 6
45 0 17 25 0 40 -29z"/>
<path d="M520 1102 c0 -21 -7 -63 -16 -92 -9 -31 -14 -73 -11 -97 5 -47 -5
-54 -36 -26 -14 14 -38 18 -102 19 -59 1 -90 6 -106 18 -30 20 -39 20 -39 0 0
-33 41 -81 92 -110 47 -25 63 -29 148 -30 68 0 104 -6 128 -18 34 -17 40 -10
21 25 -8 15 -6 38 7 89 l18 68 -48 96 c-27 53 -50 96 -52 96 -2 0 -4 -17 -4
-38z m55 -118 c15 -31 15 -43 4 -105 l-12 -69 -71 -1 c-39 -1 -82 0 -96 1 -31
2 -113 41 -117 56 -6 19 127 17 166 -2 30 -15 34 -15 49 -1 9 9 16 37 18 64 3
55 20 107 33 99 5 -3 16 -22 26 -42z"/>
<path d="M2442 1083 c-59 -93 -67 -124 -52 -217 10 -66 10 -87 0 -106 -11 -21
-11 -22 6 -15 74 31 101 36 160 30 55 -6 69 -4 116 18 29 14 61 32 70 40 20
16 52 86 43 95 -3 3 -23 -5 -46 -17 -34 -19 -46 -22 -78 -14 -38 10 -124 -7
-136 -27 -3 -6 -13 -10 -20 -10 -11 0 -13 10 -8 45 3 27 1 56 -7 76 -7 17 -13
58 -13 90 0 32 -1 59 -3 59 -1 0 -16 -21 -32 -47z m30 -168 c0 -28 7 -50 17
-59 16 -14 23 -14 72 3 68 24 178 19 157 -7 -28 -33 -93 -52 -176 -51 -43 1
-84 -1 -89 -4 -19 -12 -32 19 -39 89 -5 57 -3 77 11 105 l18 34 14 -33 c8 -19
14 -53 15 -77z"/>
<path d="M646 862 c0 -64 4 -126 9 -136 7 -17 5 -18 -21 -12 -67 17 -96 17
-158 2 -36 -9 -76 -14 -90 -10 -69 17 6 -54 89 -85 65 -24 93 -26 155 -7 36
11 55 11 98 1 53 -13 54 -12 46 9 -4 11 -8 59 -8 106 -1 92 -3 96 -79 199 -22
28 -40 51 -40 51 -1 0 -2 -53 -1 -118z m76 -33 c14 -26 18 -47 14 -89 -3 -30
-5 -62 -5 -71 -1 -12 -14 -18 -53 -22 -29 -3 -73 -9 -98 -12 -48 -7 -121 11
-127 32 -7 19 65 36 131 30 82 -7 99 3 91 54 -8 48 3 121 18 116 5 -1 19 -19
29 -38z"/>
<path d="M2310 918 c-64 -77 -82 -125 -74 -194 4 -47 2 -69 -10 -93 -18 -34
-13 -37 31 -20 21 8 53 8 123 -1 89 -11 98 -11 151 9 50 19 109 62 109 80 0 3
-26 6 -57 7 -32 0 -86 4 -120 9 -51 6 -67 5 -89 -9 -33 -23 -39 -16 -24 29 9
27 9 52 1 98 -7 40 -8 74 -2 95 13 43 3 40 -39 -10z m16 -154 c-8 -80 4 -93
72 -75 39 9 56 9 100 -4 29 -9 50 -19 48 -24 -3 -4 -24 -14 -46 -21 -34 -11
-57 -11 -133 -1 -51 7 -94 15 -96 17 -3 3 -5 37 -5 77 -1 55 4 80 18 102 18
27 19 28 33 9 11 -14 13 -35 9 -80z"/>
<path d="M790 836 c0 -2 7 -23 15 -46 8 -23 15 -65 15 -92 0 -29 8 -65 20 -89
l21 -40 -63 7 c-51 5 -72 2 -111 -15 -28 -12 -70 -21 -99 -21 -50 0 -51 -1
-34 -19 24 -27 102 -58 162 -66 37 -5 70 -1 129 15 50 14 95 20 122 17 24 -2
43 -3 43 -1 0 2 -9 18 -20 36 -12 20 -20 51 -20 78 0 59 -25 99 -108 178 -63
59 -72 67 -72 58z m101 -123 c34 -38 47 -69 54 -130 6 -45 4 -53 -14 -63 -12
-6 -21 -9 -21 -6 0 2 -28 -4 -62 -15 -75 -23 -134 -24 -179 -5 l-34 15 48 21
c33 15 64 21 100 19 30 -1 61 3 73 11 21 13 21 16 8 53 -15 43 -19 127 -6 127
5 0 19 -12 33 -27z"/>
<path d="M2134 771 c-81 -73 -97 -101 -105 -178 -4 -44 -14 -75 -29 -95 l-23
-31 49 7 c35 4 70 0 121 -14 40 -11 93 -20 118 -20 70 0 185 51 185 82 0 4
-22 8 -50 8 -31 0 -65 8 -90 21 -35 18 -52 21 -106 16 -35 -4 -64 -3 -64 1 1
4 7 18 15 32 8 14 14 48 15 77 0 29 7 73 16 99 8 25 14 47 12 49 -2 2 -31 -22
-64 -54z m8 -73 c2 -18 -3 -53 -10 -77 -18 -64 0 -81 85 -81 72 0 155 -32 135
-52 -17 -17 -111 -21 -162 -8 -25 7 -65 15 -90 18 l-45 7 1 47 c2 76 12 112
42 146 15 17 30 32 34 32 4 0 8 -15 10 -32z"/>
<path d="M1003 678 c13 -24 27 -65 31 -93 10 -74 25 -114 47 -125 23 -13 24
-3 4 38 -18 36 -32 132 -19 132 10 -1 41 -27 67 -57 10 -12 26 -53 36 -93 17
-68 17 -71 0 -80 -10 -6 -23 -10 -29 -10 -6 0 -36 -11 -66 -25 -39 -18 -72
-25 -112 -25 -51 0 -97 4 -112 9 -3 1 24 17 60 36 49 26 78 34 117 35 59 0 78
15 33 25 -45 10 -108 -4 -169 -36 -32 -18 -69 -29 -92 -29 -22 0 -39 -4 -39
-8 0 -5 19 -19 42 -32 34 -19 62 -25 130 -28 81 -4 91 -2 156 28 55 25 80 31
116 29 25 -3 46 -3 46 -1 0 1 -9 16 -21 31 -11 16 -27 59 -35 96 -8 37 -23 79
-34 95 -18 25 -159 130 -175 130 -4 0 4 -19 18 -42z"/>
<path d="M1932 653 c-95 -72 -109 -94 -136 -216 -4 -15 -15 -36 -26 -47 -29
-29 -25 -32 25 -25 37 6 55 2 112 -25 37 -17 91 -34 118 -37 66 -7 154 12 194
41 l31 23 -39 7 c-21 3 -63 17 -92 31 -42 19 -70 25 -127 25 l-73 0 24 43 c14
23 27 66 30 94 3 29 15 73 26 98 11 25 17 45 13 45 -4 -1 -40 -26 -80 -57z
m14 -85 c-4 -29 -14 -66 -22 -82 -29 -58 -14 -73 80 -81 42 -3 85 -14 114 -29
l47 -24 -30 -12 c-52 -21 -132 -13 -204 19 -36 17 -76 33 -88 36 -27 7 -28 24
-7 94 10 34 29 66 55 92 53 53 63 51 55 -13z"/>
<path d="M1210 601 c0 -7 9 -30 21 -52 11 -23 25 -67 31 -99 6 -38 19 -69 38
-91 33 -40 52 -33 24 8 -22 32 -44 98 -44 131 0 34 26 27 73 -20 31 -32 47
-59 60 -103 9 -34 17 -64 17 -67 0 -4 -16 -12 -36 -18 -20 -7 -52 -23 -72 -36
-56 -38 -132 -53 -189 -38 -28 8 -22 18 26 48 34 22 84 35 139 36 12 0 22 5
22 11 0 8 -22 10 -67 7 -54 -3 -77 -10 -111 -33 -24 -16 -62 -31 -85 -34 -81
-11 -49 -41 68 -62 82 -16 158 0 210 41 46 36 83 44 188 38 72 -4 90 -9 150
-42 63 -36 75 -39 145 -38 79 0 163 19 169 38 2 6 -17 17 -43 23 -26 7 -61 22
-78 35 -38 29 -65 38 -139 45 l-59 6 31 39 c17 21 31 49 31 62 0 37 30 117 53
142 36 39 -1 25 -89 -33 -92 -61 -107 -78 -129 -153 -9 -28 -27 -64 -40 -79
-34 -40 -54 -23 -87 72 -30 86 -59 123 -133 166 -27 17 -60 37 -72 46 -15 10
-23 11 -23 4z m499 -132 c-5 -23 -20 -58 -32 -80 -31 -54 -18 -70 68 -87 63
-13 145 -54 145 -73 0 -32 -135 -19 -205 20 -27 15 -67 34 -88 41 -30 9 -37
16 -31 29 4 9 15 40 26 70 20 60 38 85 82 112 39 24 46 17 35 -32z"/>
</g>
</svg>
