<?xml version="1.0" encoding="UTF-8"?><svg id="Layer_2" xmlns="http://www.w3.org/2000/svg" viewBox="0 0 46.11 46.11"><defs><style>.cls-1{fill:#fbae17;}.cls-2{fill:#f9a51a;}.cls-3{fill:#f6921e;}.cls-4{fill:#ffd300;}.cls-5{fill:#403431;}</style></defs><g id="Layer_1-2"><polygon class="cls-4" points="23.06 6.37 23.06 0 0 23.06 6.36 23.06 23.06 6.37"/><polyline class="cls-2" points="6.36 23.06 0 23.06 23.06 46.11 23.06 39.75"/><polygon class="cls-1" points="39.75 23.06 46.11 23.06 23.06 0 23.06 6.37 39.75 23.06"/><polygon class="cls-3" points="39.75 23.06 23.06 39.75 23.06 46.11 46.11 23.06 39.75 23.06"/><path class="cls-5" d="M26.41,17.69c-.22.04-.45.07-.7.1-.25.03-.49.04-.72.04h-5.9v.15h.2c.27,0,.5.09.69.28.19.18.29.41.3.67v8.3c-.01.26-.11.48-.3.67-.19.18-.42.28-.69.28h-.2v.15h4.71v-.15h-.2c-.27,0-.5-.09-.69-.28-.19-.18-.29-.41-.3-.67v-3.76h2.04c.38.01.7.13.95.37.25.24.37.54.37.91v.12h.15v-3.45h-.15v.1c0,.37-.12.68-.37.92-.25.24-.56.37-.95.38h-2.04v-4.36h2.6c.46,0,.83.13,1.11.4.27.26.41.62.41,1.07v.15h.15v-2.53c-.09.04-.25.08-.46.12Z"/></g></svg>