<?xml version="1.0" encoding="UTF-8"?><svg id="Layer_2" xmlns="http://www.w3.org/2000/svg" viewBox="0 0 40.94 40.94"><defs><style>.cls-1{fill:#403532;}</style></defs><g id="Layer_1-2"><path class="cls-1" d="M20.47,0L0,20.47l20.47,20.47,20.47-20.47L20.47,0ZM22.07,32.08c-.48.49-1.07.74-1.75.74s-1.28-.25-1.78-.74-.75-1.08-.75-1.77.25-1.3.75-1.78c.5-.48,1.09-.72,1.78-.72s1.27.24,1.75.72c.48.48.72,1.08.72,1.78s-.24,1.27-.72,1.77ZM26.28,19.84c-.21.34-.48.68-.81,1.02-.32.33-.71.68-1.15,1.04-.45.36-.95.75-1.5,1.15-.37.28-.72.56-1.04.85-.33.29-.54.62-.64,1-.1.38-.01.84.26,1.38l-.25.17c-.8-.2-1.48-.6-2.06-1.18-.57-.58-.82-1.34-.72-2.27.06-.46.18-.85.36-1.15.19-.31.4-.59.65-.86.25-.27.5-.56.74-.86.24-.31.44-.69.6-1.14.16-.45.23-1.03.21-1.74-.02-1.06-.24-1.87-.67-2.43-.43-.57-1.05-.85-1.86-.85s-1.52.34-1.99,1.03c-.47.69-.71,1.77-.71,3.25h-.28l-1.39-3.2c.43-.72,1.18-1.32,2.25-1.78,1.07-.46,2.37-.7,3.89-.7,2.19,0,3.86.43,5.01,1.29,1.15.86,1.72,2.07,1.72,3.63,0,.46-.05.89-.15,1.27-.1.38-.26.74-.47,1.09Z"/></g></svg>