<?xml version="1.0" encoding="UTF-8"?><svg id="Layer_2" xmlns="http://www.w3.org/2000/svg" viewBox="0 0 47.82 38.13"><defs><style>.cls-1{fill:#fbae17;}</style></defs><g id="Layer_1-2"><path class="cls-1" d="M10.15,20.5s1.1-4.12-2.27-6.67c-3.37-2.55-3.26-7.95-3.26-7.95-8.76,17.32,5.53,14.62,5.53,14.62Z"/><path class="cls-1" d="M14.91,24.59s-2.55-3.41-6.64-2.35C4.18,23.3,0,19.88,0,19.88c8.17,17.61,14.91,4.72,14.91,4.72Z"/><path class="cls-1" d="M20.18,28.36s-3.82-1.88-6.98.93c-3.16,2.8-8.44,1.65-8.44,1.65,15.28,11.97,15.42-2.57,15.42-2.57Z"/><path class="cls-1" d="M10.86,13.16s2.72-2.98,1.47-5.93C11.09,4.27,13.69,0,13.69,0c-14.43,11.4-2.82,13.16-2.82,13.16Z"/><path class="cls-1" d="M37.67,20.5s-1.1-4.12,2.27-6.67c3.37-2.55,3.26-7.95,3.26-7.95,8.76,17.32-5.53,14.62-5.53,14.62Z"/><path class="cls-1" d="M32.92,24.59s2.55-3.41,6.64-2.35c4.09,1.06,8.26-2.37,8.26-2.37-8.17,17.61-14.91,4.72-14.91,4.72Z"/><path class="cls-1" d="M27.64,28.36s3.82-1.88,6.98.93c3.16,2.8,8.44,1.65,8.44,1.65-15.28,11.97-15.42-2.57-15.42-2.57Z"/><path class="cls-1" d="M36.96,13.16s-2.72-2.98-1.47-5.93c1.24-2.95-1.35-7.23-1.35-7.23,14.43,11.4,2.82,13.16,2.82,13.16Z"/><rect class="cls-1" x="20.87" y="30.83" width="6.05" height="6.05" transform="translate(-16.94 26.81) rotate(-45)"/></g></svg>