<?xml version="1.0" encoding="UTF-8"?><svg id="Layer_2" xmlns="http://www.w3.org/2000/svg" viewBox="0 0 38.69 35.97"><defs><style>.cls-1{fill:#403532;}</style></defs><g id="Layer_1-2"><path class="cls-1" d="M34.09.02l-29.25-.02h-.15,0C1.69.06.63,1.45.27,2.3c-.57,1.34-.15,2.84.55,3.57,1.83,1.92,5.02.65,5.15.59l-.69-1.71s-2.18.83-3.13-.16c-.21-.22-.46-.94-.19-1.57.33-.76,1.35-1.18,2.88-1.18.91,0,3.03,5.49,3.03,16.15s-2.12,16.15-3.03,16.15c-1.53,0-2.55-.42-2.88-1.18-.27-.63-.03-1.35.19-1.57.94-.99,3.1-.17,3.12-.16l.69-1.71c-.13-.05-3.33-1.32-5.15.59-.69.73-1.12,2.23-.55,3.57.35.81,1.36,2.13,4.11,2.27l-.02.03h29.74v-.02c3.63-.54,4.6-11.89,4.6-17.97S37.72.55,34.09.02ZM13.38,8.21h19.98c.29,0,.52.23.52.52s-.23.52-.52.52H13.38c-.29,0-.52-.23-.52-.52s.23-.52.52-.52ZM33.36,27.76H13.38c-.29,0-.52-.23-.52-.52s.23-.52.52-.52h19.98c.29,0,.52.23.52.52s-.23.52-.52.52ZM34.32,21.59H14.34c-.29,0-.52-.23-.52-.52s.23-.52.52-.52h19.98c.29,0,.52.23.52.52s-.23.52-.52.52ZM34.32,15.42H14.34c-.29,0-.52-.23-.52-.52s.23-.52.52-.52h19.98c.29,0,.52.23.52.52s-.23.52-.52.52Z"/></g></svg>