<?xml version="1.0" encoding="UTF-8"?><svg id="Layer_2" xmlns="http://www.w3.org/2000/svg" viewBox="0 0 33.04 37.45"><defs><style>.cls-1{fill:#fbae17;}</style></defs><g id="Layer_1-2"><path class="cls-1" d="M22.72,37.21c-.13-.79-1.46-4.8-.84-5.28s5.94-.72,6.67-1.16,1.46-1.52,1.46-2.06-.59-1.26-.59-1.26c0,0,.4-.26.59-.61s.09-.28,0-.72c-.06-.28.2-.73.4-1.03.13-.19.17-.42.12-.65l-.34-1.45h1.83s1.37-.27.91-1.07-3.29-5.9-3.29-5.9l.09-1.07.18-.81c.06-.27,0-.56-.17-.78-.3-.4-.77-1.06-1.01-1.53-.37-.72-.93-2.69-.93-2.69,0,0,.65.9,1.2-.26s.57-1.59.29-2.75-2.92-3.43-4.38-4.32c-1.17-.71-8.07-2.5-10.35-1.51s-1.64.57-3.65.75-2.95.89-4.33,1.96c-.83.64-1.6,1.75-2.33,2.28s-1.47,1.99-2.02,3.15-.91,1.7-1.19,2.86-1.83,2.95-.55,4.56.28,2.21.65,3.4c.33,1.04.56,1.26,1.66,2.69s.62,1.12,1.31,1.99c.83,1.04.95.23,1.59,2.2s1.68,2.28.27,5.08c-.65,1.29,8.44,7.55,16.74,6.02Z"/></g></svg>