<?xml version="1.0" standalone="no"?>
<!DOCTYPE svg PUBLIC "-//W3C//DTD SVG 20010904//EN"
 "http://www.w3.org/TR/2001/REC-SVG-20010904/DTD/svg10.dtd">
<svg version="1.0" xmlns="http://www.w3.org/2000/svg"
 width="1280.000000pt" height="640.000000pt" viewBox="0 0 1280.000000 640.000000"
 preserveAspectRatio="xMidYMid meet">
<metadata>
Created by potrace 1.15, written by Peter Selinger 2001-2017
</metadata>
<g transform="translate(0.000000,640.000000) scale(0.100000,-0.100000)"
   fill="#1B4D3E" stroke="none">
<path d="M4216 4213 l-24 -38 33 -10 34 -10 -31 -40 c-36 -49 -65 -104 -89
-170 -18 -50 -18 -50 -19 -15 -1 61 -10 64 -76 24 -32 -19 -70 -45 -84 -58
-20 -18 -29 -20 -47 -12 -32 15 -29 20 20 33 79 22 277 163 277 198 0 39 -256
70 -369 45 -79 -17 -195 -80 -268 -146 -35 -30 -63 -60 -63 -66 0 -5 18 -17
40 -25 54 -21 38 -34 -25 -22 -65 13 -171 4 -248 -22 -69 -23 -189 -94 -226
-132 l-23 -25 33 -18 c18 -9 56 -24 83 -34 l50 -17 -65 -6 c-78 -7 -154 -34
-235 -83 -56 -34 -63 -36 -120 -30 -98 10 -198 -8 -289 -54 -82 -40 -166 -103
-205 -152 l-21 -28 28 -11 c44 -17 154 -39 198 -39 l40 -1 -68 -36 c-37 -20
-86 -52 -109 -73 l-41 -36 54 -24 54 -24 -85 -7 c-47 -4 -105 -14 -129 -23
-63 -23 -124 -4 -67 22 55 25 210 191 194 207 -2 3 -40 10 -84 16 -151 21
-286 -8 -406 -87 -74 -49 -175 -155 -184 -191 -4 -13 -19 -30 -35 -39 -28 -14
-30 -14 -53 13 l-24 27 49 35 c27 18 49 37 49 41 0 4 -29 21 -63 38 -180 87
-368 87 -536 -2 l-45 -23 -51 23 c-77 34 -164 47 -261 41 -82 -5 -89 -3 -159
29 -98 45 -193 60 -294 46 -85 -12 -211 -50 -211 -63 0 -17 133 -118 194 -148
97 -47 184 -64 295 -56 61 4 91 3 87 -4 -20 -32 100 -240 177 -306 88 -76 212
-129 332 -141 80 -8 81 -7 19 115 -44 90 -122 183 -199 238 l-30 22 42 0 c23
1 48 4 56 7 11 4 27 -17 58 -77 79 -152 197 -251 347 -294 95 -27 182 -40 182
-26 0 25 -44 125 -80 180 -73 112 -159 182 -283 226 l-59 22 73 -1 c41 -1 95
3 121 7 l48 8 0 -40 c0 -22 -5 -42 -12 -45 -22 -9 102 -115 177 -152 39 -19
108 -42 154 -51 71 -14 96 -15 167 -5 82 12 204 50 204 63 0 8 -62 65 -104 95
l-28 21 37 22 37 22 64 -26 c181 -72 374 -51 536 58 34 23 64 47 66 54 1 6
-24 25 -58 41 l-61 29 88 5 c81 5 122 16 229 64 8 4 8 -9 -1 -43 -7 -26 -16
-72 -20 -102 -7 -52 -7 -53 16 -46 13 3 61 24 107 46 175 85 282 229 319 427
16 84 21 96 48 115 72 50 115 91 107 99 -6 6 -38 20 -73 33 -60 22 -62 24 -29
24 94 2 223 56 334 141 l66 51 0 -34 c0 -20 9 -46 22 -62 27 -35 16 -56 -38
-68 -21 -4 -77 -26 -124 -49 -118 -57 -206 -145 -260 -260 -37 -81 -70 -201
-58 -214 11 -10 119 26 189 62 89 47 167 118 209 192 37 64 47 74 47 45 -1
-10 0 -37 1 -61 l2 -43 53 28 c28 15 89 64 133 108 81 80 119 139 145 223 l13
43 17 -85 c17 -85 60 -196 76 -196 11 0 72 81 106 140 83 145 93 340 25 498
-10 24 -18 45 -18 47 0 1 35 6 77 10 87 8 176 34 243 70 l45 24 -217 1 -218 0
-24 -37z m-413 -341 c-20 -21 -28 -20 -20 3 4 8 13 15 22 15 13 0 12 -3 -2
-18z m-788 -489 l100 -6 -73 -73 -73 -73 -57 20 c-31 11 -88 23 -127 27 l-69
7 67 39 c37 22 75 48 84 58 10 11 23 16 32 12 9 -3 61 -8 116 -11z"/>
<path d="M9330 4210 c17 -22 44 -48 59 -59 16 -11 33 -37 39 -59 16 -53 51
-76 106 -67 55 8 125 7 143 -4 11 -6 3 -10 -27 -14 -23 -3 -44 -8 -47 -11 -15
-14 131 -166 197 -204 52 -29 80 -52 80 -63 0 -4 -13 0 -29 9 -16 9 -33 13
-38 9 -16 -16 -8 -229 11 -292 39 -131 134 -257 251 -333 l49 -33 9 23 c10 25
3 248 -8 288 -4 14 10 -4 31 -39 51 -84 156 -182 236 -219 98 -47 308 -82 308
-52 0 29 -70 145 -143 237 -7 10 -3 12 19 8 40 -8 89 25 105 68 10 30 18 36
52 41 54 9 56 2 8 -25 -23 -12 -41 -26 -41 -29 0 -4 12 -13 26 -20 22 -12 54
-56 54 -75 0 -3 -30 -5 -66 -5 -76 0 -75 5 -17 -100 47 -84 161 -198 233 -233
76 -37 201 -67 277 -67 62 0 64 1 58 23 -4 12 -15 37 -26 55 -21 37 -22 37 31
16 32 -13 40 -21 40 -43 1 -51 30 -165 59 -226 37 -80 148 -197 232 -248 l64
-37 8 32 c11 48 -2 183 -25 258 -23 76 -73 163 -118 205 -29 27 -76 112 -67
121 2 2 21 -1 43 -7 57 -16 226 -5 302 19 l62 20 -42 -39 c-24 -21 -46 -38
-50 -39 -5 0 -8 -4 -8 -9 0 -12 119 -56 188 -70 74 -15 177 -13 242 4 79 21
189 79 246 130 58 52 58 52 -61 92 -65 21 -100 26 -185 27 -108 1 -138 -5
-242 -51 l-57 -25 -57 50 c-64 57 -162 112 -243 136 -63 19 -197 21 -271 5
-84 -18 -95 -2 -22 31 68 31 122 67 122 80 0 14 -153 88 -220 105 -50 13 -91
16 -174 12 l-109 -5 -64 54 c-158 135 -334 174 -544 123 -84 -21 -87 -21 -114
-3 l-28 18 24 7 c13 4 36 10 52 13 15 4 27 10 27 15 0 19 -83 113 -138 156
-69 55 -139 91 -210 107 -49 12 -54 16 -89 75 -20 34 -58 87 -85 118 l-50 55
-205 0 -205 0 32 -40z m1131 -739 c22 -8 28 -17 31 -49 l3 -40 -38 22 c-22 12
-47 37 -58 58 -25 48 -24 49 9 33 15 -8 39 -18 53 -24z m499 -206 c20 -24 7
-33 -29 -18 -27 11 -31 17 -20 24 20 13 35 11 49 -6z"/>
<path d="M8922 4140 c-137 -36 -245 -116 -329 -243 l-48 -72 -70 12 c-130 24
-262 -3 -385 -78 -83 -50 -124 -84 -116 -97 3 -5 40 -22 81 -37 41 -15 75 -29
75 -31 0 -2 -13 -10 -30 -19 -24 -12 -38 -13 -81 -4 -77 17 -232 6 -300 -20
-71 -27 -159 -84 -221 -143 -54 -50 -58 -61 -26 -75 20 -9 18 -11 -30 -41 -28
-17 -69 -48 -92 -68 l-40 -37 -74 22 c-151 45 -291 35 -419 -29 l-61 -31 -26
20 c-115 92 -220 133 -356 139 -115 5 -193 -11 -289 -58 -33 -16 -61 -26 -63
-22 -15 43 -90 150 -143 203 -106 107 -259 168 -424 168 -77 1 -81 -6 -37 -78
54 -89 122 -163 193 -209 l62 -41 -44 -11 c-24 -6 -57 -16 -74 -24 -28 -12
-34 -10 -75 16 -38 24 -41 28 -20 28 36 0 70 11 70 22 0 20 -89 145 -136 191
-100 97 -191 138 -349 158 -48 6 -87 17 -99 27 -14 13 -20 14 -23 4 -3 -7 -10
-18 -16 -25 -7 -7 -14 -19 -15 -27 -2 -8 -11 -42 -20 -75 -25 -92 -22 -243 7
-327 24 -71 100 -197 143 -236 l25 -23 23 53 c12 29 30 90 40 136 l16 83 29
-41 c70 -101 187 -184 306 -216 76 -20 234 -30 243 -15 7 11 -16 60 -59 124
-18 28 -16 27 45 -12 110 -72 255 -103 379 -82 59 10 66 9 78 -9 19 -27 74
-43 106 -31 36 14 67 51 67 79 0 22 3 24 31 18 17 -3 66 -6 108 -7 l76 0 -60
-18 c-33 -9 -78 -27 -99 -38 l-39 -20 59 -47 c152 -121 326 -162 502 -121 71
17 162 53 162 65 0 9 -52 55 -90 82 l-25 17 37 0 c20 1 45 4 55 7 15 6 16 4 6
-7 -22 -22 -15 -29 54 -61 172 -77 339 -76 501 6 74 38 152 91 152 105 0 5
-29 22 -65 37 -42 19 -61 32 -55 38 7 7 37 -4 87 -31 107 -56 170 -73 276 -73
93 0 178 17 260 52 l48 21 -22 23 c-12 13 -46 40 -76 61 -29 20 -53 37 -53 38
0 1 26 3 58 4 192 5 348 91 463 254 l49 70 0 -62 0 -61 38 15 c111 47 235 150
288 240 16 28 38 78 50 112 18 53 29 68 75 103 29 22 57 40 60 40 4 0 17 -15
29 -34 37 -60 140 -148 215 -181 80 -37 132 -51 228 -60 81 -9 82 -7 31 95
-70 139 -197 248 -344 295 -30 10 -56 19 -58 20 -2 1 7 22 19 45 18 35 20 44
8 51 -13 10 -106 5 -178 -8 -30 -5 -33 -4 -26 16 6 20 4 21 -77 20 -48 0 -114
-8 -156 -19z m-259 -530 c18 -11 43 -20 57 -20 14 0 20 -4 15 -9 -10 -9 -195
-22 -195 -14 0 3 9 16 20 30 25 31 25 41 3 45 -13 2 -9 9 17 25 l35 22 8 -30
c5 -18 21 -38 40 -49z m-3513 -255 l25 -14 -26 -1 c-15 0 -29 7 -33 15 -7 18
2 18 34 0z m3025 -40 c-13 -16 -32 -48 -43 -71 l-21 -41 -68 23 c-39 14 -92
24 -125 24 -32 0 -58 3 -58 6 0 3 13 25 29 48 l30 43 139 -1 139 -1 -22 -30z
m-1516 -240 c-8 -9 -40 -18 -70 -20 l-54 -5 65 18 c36 11 67 20 70 21 2 0 -3
-6 -11 -14z"/>
<path d="M4556 4131 c-16 -25 -36 -146 -36 -216 0 -138 44 -258 134 -363 51
-60 115 -117 122 -109 17 17 35 126 36 217 1 151 -38 255 -140 377 -46 54
-109 106 -116 94z"/>
<path d="M4741 4018 c51 -133 156 -258 264 -315 74 -39 194 -73 257 -73 l47 0
-14 41 c-49 137 -161 272 -274 328 -74 38 -195 71 -257 71 l-44 0 21 -52z"/>
<path d="M12417 2986 c-43 -13 -83 -28 -88 -33 -24 -24 219 -193 277 -193 11
0 14 -19 14 -82 l0 -83 -27 35 c-136 178 -339 261 -558 230 -47 -7 -87 -15
-90 -19 -7 -13 90 -125 146 -168 140 -108 295 -141 499 -107 l35 6 12 -57 c14
-67 66 -162 122 -225 l40 -45 1 219 0 220 -27 28 -27 28 27 0 27 0 0 120 0
119 -52 16 c-80 23 -235 19 -331 -9z"/>
<path d="M23 2993 c-21 -4 -23 -10 -23 -78 0 -73 0 -73 39 -104 51 -41 147
-88 207 -102 93 -21 309 -8 338 21 17 17 -150 171 -226 208 -103 50 -242 73
-335 55z"/>
<path d="M5850 2965 c-30 -7 -73 -21 -95 -31 l-40 -16 52 -47 c112 -101 229
-151 365 -159 92 -5 199 13 272 46 l40 18 -45 43 c-52 50 -132 100 -209 132
-70 28 -255 36 -340 14z"/>
<path d="M11726 2954 c-11 -29 -6 -134 10 -212 24 -117 66 -195 154 -282 67
-67 174 -140 186 -127 14 14 14 122 1 202 -29 165 -119 299 -266 394 -72 46
-76 47 -85 25z"/>
</g>
</svg>
