<?xml version="1.0" standalone="no"?>
<!DOCTYPE svg PUBLIC "-//W3C//DTD SVG 20010904//EN"
 "http://www.w3.org/TR/2001/REC-SVG-20010904/DTD/svg10.dtd">
<svg version="1.0" xmlns="http://www.w3.org/2000/svg"
 width="640.000000pt" height="1280.000000pt" viewBox="0 0 640.000000 1280.000000"
 preserveAspectRatio="xMidYMid meet">
<metadata>
Created by potrace 1.15, written by Peter Selinger 2001-2017
</metadata>
<g transform="translate(0.000000,1280.000000) scale(0.100000,-0.100000)"
   fill="#1B4D3E" stroke="none">
<path d="M4470 12750 c-72 -11 -125 -29 -154 -51 -23 -18 -27 -28 -24 -63 3
-38 6 -42 46 -56 40 -14 58 -40 27 -40 -9 0 -23 -16 -32 -35 -12 -25 -22 -34
-32 -29 -74 29 -179 48 -221 39 l-30 -6 26 -52 c15 -29 33 -60 42 -70 21 -24
7 -33 -28 -20 -24 9 -32 8 -42 -5 -7 -8 -28 -21 -46 -29 -31 -13 -39 -12 -97
12 -138 55 -376 102 -447 88 l-28 -5 31 -39 c17 -21 73 -76 124 -121 l94 -83
-62 -6 c-34 -4 -106 -7 -159 -8 -54 0 -98 -4 -98 -8 1 -35 32 -131 54 -163
l26 -39 -26 9 c-17 7 -72 6 -165 -2 l-140 -11 28 -30 c15 -16 48 -43 72 -58
25 -16 43 -29 40 -30 -2 0 -20 -3 -39 -5 -19 -3 -49 -9 -66 -15 -21 -6 -48 -6
-85 2 -30 7 -98 12 -151 13 l-98 1 0 34 0 34 -57 -6 c-32 -4 -79 -9 -105 -13
-46 -6 -47 -6 -61 28 -30 71 -115 128 -266 177 -73 24 -74 23 -93 -46 -14 -49
-18 -51 -43 -23 -11 12 -14 20 -6 20 14 0 65 107 76 160 4 19 18 48 30 65 33
44 45 90 45 166 0 69 -12 119 -29 119 -19 0 -41 -32 -52 -76 -12 -47 -19 -53
-38 -30 -15 18 -88 36 -144 36 -37 0 -46 4 -55 25 -17 38 -15 45 16 45 43 0
136 28 148 44 12 17 12 38 0 73 -17 51 -162 89 -314 80 -167 -9 -255 -51 -249
-119 2 -32 7 -36 76 -68 8 -3 20 -31 27 -62 19 -84 57 -159 102 -202 33 -32
42 -48 47 -90 4 -28 11 -61 16 -73 l9 -23 -128 0 c-70 0 -189 -5 -265 -12
-138 -12 -138 -12 -132 -36 4 -16 2 -21 -5 -17 -7 4 1 -12 15 -36 15 -23 33
-57 41 -74 l13 -32 -107 -7 c-59 -3 -203 -16 -319 -28 -244 -25 -234 -19 -183
-116 90 -167 126 -202 265 -258 l66 -27 -44 -42 c-47 -45 -91 -113 -102 -157
-5 -19 -25 -37 -73 -65 -68 -39 -182 -141 -182 -163 0 -9 23 -11 88 -8 78 4
143 21 247 63 11 4 -22 -35 -74 -87 -130 -131 -191 -235 -191 -325 0 -44 25
-49 160 -36 58 6 106 9 108 8 2 -1 -27 -49 -63 -105 -37 -56 -65 -104 -63
-106 3 -2 39 2 81 10 42 7 77 11 77 9 0 -2 -14 -16 -31 -30 -32 -27 -119 -196
-182 -355 -30 -75 -33 -88 -19 -88 27 1 243 37 295 50 26 7 50 10 53 7 4 -3
16 -2 29 3 21 8 23 6 30 -38 3 -26 11 -66 17 -90 l11 -44 60 4 60 3 -7 -87
c-5 -83 -35 -245 -58 -316 l-10 -34 -22 20 c-31 30 -153 62 -231 62 -59 0 -77
-5 -134 -36 -58 -31 -161 -117 -161 -134 0 -3 44 -11 97 -18 53 -7 99 -15 101
-17 3 -3 -7 -14 -21 -25 -29 -23 -43 -70 -28 -97 6 -10 19 -40 30 -68 28 -76
54 -90 165 -90 l92 0 -8 -50 c-15 -90 -17 -95 -39 -95 -20 0 -21 -4 -15 -47
23 -158 26 -140 -57 -266 -42 -62 -87 -136 -101 -163 -24 -48 -61 -172 -53
-180 2 -2 17 16 34 40 17 24 62 70 100 101 l68 56 6 -203 c8 -261 23 -326 89
-382 65 -54 168 -15 217 82 l21 43 36 -36 c36 -35 36 -36 20 -66 -11 -23 -16
-62 -16 -153 0 -104 3 -129 22 -173 34 -80 38 -80 118 -28 78 50 87 52 96 29
12 -31 5 -40 -57 -82 -34 -23 -78 -56 -96 -73 -34 -31 -35 -35 -39 -122 -5
-106 22 -262 44 -253 9 3 11 0 6 -12 -3 -9 25 10 63 44 39 33 89 75 112 92
l41 32 7 -29 c4 -21 -5 -55 -40 -135 -29 -70 -54 -150 -70 -230 -14 -68 -25
-126 -25 -128 0 -3 -37 -28 -83 -56 -132 -82 -129 -79 -134 -180 -6 -88 10
-202 28 -202 9 0 145 98 217 156 53 43 64 75 67 193 2 62 10 129 20 161 16 54
70 150 84 150 4 0 13 -24 21 -52 12 -50 155 -528 165 -557 4 -11 -3 -12 -34
-7 -62 10 -309 -36 -378 -71 -84 -41 -147 -108 -193 -205 -54 -114 -95 -280
-75 -300 3 -3 44 14 92 38 102 51 138 63 303 100 148 33 279 92 329 149 18 21
34 36 36 34 8 -9 77 -275 99 -384 30 -143 66 -373 66 -415 0 -23 -4 -30 -20
-30 -11 0 -52 -9 -90 -19 -56 -16 -87 -33 -155 -87 -165 -128 -189 -231 -103
-447 19 -46 40 -83 48 -85 9 -1 24 12 34 30 39 67 90 127 163 189 44 38 89 88
111 123 l37 60 7 -60 c3 -32 9 -126 13 -209 3 -82 8 -164 11 -181 4 -27 1 -33
-25 -43 l-29 -12 14 -57 c8 -31 22 -74 31 -95 14 -32 14 -43 4 -79 -32 -107
-100 -160 -226 -178 -47 -7 -85 -15 -85 -19 1 -3 24 -24 53 -46 49 -38 55 -40
123 -40 62 0 75 3 107 28 45 34 82 95 98 162 6 28 13 52 15 53 1 2 22 -7 46
-21 24 -14 81 -37 128 -52 47 -16 111 -45 142 -67 31 -21 62 -38 68 -38 8 0 9
15 5 48 -21 149 -62 267 -115 334 -17 20 -30 39 -30 42 0 2 15 8 32 11 94 21
181 126 171 207 -4 32 -10 39 -40 49 -94 31 -258 4 -347 -56 l-35 -24 -5 32
c-3 18 -10 115 -16 217 -40 689 -50 792 -109 1110 -19 103 -76 375 -87 415 -7
28 87 -76 142 -158 42 -62 113 -202 129 -254 4 -17 2 -23 -8 -23 -19 0 -27
-21 -27 -71 0 -35 7 -48 53 -96 34 -37 73 -65 112 -83 33 -15 100 -57 148 -94
49 -36 92 -66 96 -66 6 0 41 -149 41 -176 0 -6 -41 0 -107 18 -60 15 -111 28
-114 28 -3 0 -16 -23 -30 -52 -35 -76 -33 -153 7 -210 37 -54 134 -120 218
-148 l65 -21 -25 -52 c-13 -29 -29 -76 -35 -105 -16 -71 -7 -80 61 -57 28 9
53 15 55 13 3 -2 0 -29 -5 -60 -10 -63 -4 -98 16 -98 8 0 14 -6 14 -12 0 -7 7
-80 15 -163 20 -209 35 -460 35 -591 l0 -110 -126 -99 c-89 -70 -145 -124
-195 -187 l-71 -88 -45 39 c-88 78 -219 97 -344 48 -81 -31 -252 -135 -243
-148 16 -27 220 -109 271 -109 14 0 23 -3 21 -7 -46 -90 -51 -108 -45 -177 6
-76 37 -178 86 -288 l31 -68 33 19 c139 78 270 199 314 289 36 72 35 131 -1
232 -15 41 -29 82 -32 90 -3 11 39 37 157 98 88 46 163 81 166 79 10 -11 -29
-195 -66 -310 -55 -170 -76 -250 -110 -422 -62 -313 -112 -706 -137 -1078 -6
-90 -8 -97 -28 -97 -11 0 -58 -12 -103 -26 -76 -24 -84 -29 -112 -73 -48 -75
-96 -241 -69 -241 15 0 256 79 281 91 16 9 17 -2 17 -176 l0 -185 -41 0 c-56
0 -223 -74 -267 -119 -48 -47 -73 -110 -79 -195 -6 -82 3 -166 18 -166 6 0 36
21 67 46 31 25 97 66 146 91 50 25 110 61 133 80 l42 34 6 -48 c30 -219 87
-400 155 -496 65 -90 201 -167 294 -167 47 1 107 32 150 80 111 123 201 495
151 625 -34 89 -96 138 -194 151 -69 9 -130 -15 -171 -66 -31 -39 -65 -109
-57 -117 3 -2 33 3 68 12 158 41 229 -9 229 -162 -1 -201 -109 -363 -241 -363
-49 0 -88 28 -129 92 -73 111 -123 270 -157 498 -22 144 -23 666 -1 885 l14
140 18 -52 c25 -73 107 -148 212 -192 43 -18 95 -36 115 -38 l36 -5 -8 63
c-24 193 -61 270 -161 333 -32 21 -121 46 -164 46 l-31 0 8 57 c34 241 77 469
118 633 l19 75 1 -55 c1 -72 27 -202 47 -243 34 -64 133 -155 234 -212 104
-59 156 -80 165 -64 4 5 6 78 7 161 0 131 -3 163 -22 222 -42 132 -177 234
-342 258 -56 9 -68 14 -64 27 106 397 174 788 217 1246 13 145 17 549 5 608
l-7 38 38 -24 c75 -47 284 -159 289 -154 9 9 6 243 -4 282 -6 22 -13 61 -17
87 -9 68 -36 88 -194 144 -17 5 -19 3 77 83 71 59 72 61 47 67 -15 4 -94 5
-175 2 -128 -4 -164 -1 -188 17 -9 7 -150 558 -202 790 -63 284 -117 576 -156
840 -33 233 -29 645 12 1115 7 91 14 170 14 175 1 16 109 -154 150 -235 44
-89 77 -187 123 -365 l34 -130 -39 -90 c-39 -87 -89 -215 -85 -215 1 0 40 7
87 14 47 8 87 13 89 11 4 -5 42 -188 39 -189 -114 -57 -180 -197 -148 -315
l11 -44 65 6 c47 3 75 12 104 31 29 19 40 22 40 12 0 -8 16 -69 35 -136 71
-246 145 -370 220 -370 21 0 100 74 150 141 l41 56 35 -29 c18 -16 63 -43 98
-59 59 -27 224 -141 251 -174 10 -12 50 -206 50 -243 0 -13 -3 -13 -18 1 -10
10 -22 17 -27 17 -4 0 -33 18 -62 41 -64 48 -138 83 -159 75 -12 -5 -15 -22
-13 -78 2 -92 -26 -168 -64 -168 -38 0 -122 -28 -151 -51 -31 -24 -34 -49 -7
-49 34 0 33 -16 -8 -97 -37 -73 -61 -141 -61 -171 0 -10 14 -13 54 -10 l54 3
4 -105 c3 -58 11 -120 19 -138 l14 -32 103 57 c57 31 134 82 171 114 l68 57
-23 -92 c-62 -239 -90 -484 -74 -639 10 -96 42 -284 66 -387 47 -202 113 -501
119 -540 l7 -45 -84 0 c-71 0 -91 -4 -140 -29 -105 -52 -158 -138 -202 -323
l-14 -63 31 0 c95 1 258 61 331 122 39 32 86 119 86 158 0 11 4 20 8 20 15 0
54 -300 59 -455 4 -113 2 -171 -10 -234 -33 -173 -73 -261 -124 -276 -31 -9
-95 52 -129 121 -24 49 -26 59 -15 93 11 40 80 112 126 133 44 20 28 31 -35
25 -63 -7 -123 -32 -152 -64 -49 -54 -69 -170 -44 -258 42 -144 158 -241 301
-253 78 -6 125 15 164 72 52 77 56 98 55 281 -1 211 -16 358 -94 885 -60 406
-60 404 -60 412 0 16 181 -87 232 -131 61 -55 74 -60 82 -33 23 81 12 240 -22
312 -30 63 -100 122 -191 159 -46 19 -97 37 -114 40 -31 7 -32 8 -44 86 -6 44
-14 148 -18 230 l-7 150 61 237 c34 130 61 239 61 242 0 3 8 6 18 6 9 0 28 9
41 19 21 16 23 22 13 50 l-11 31 39 0 c39 0 39 0 34 33 -3 17 -19 73 -35 124
-36 113 -36 145 -3 219 15 33 32 79 39 104 l11 45 31 -80 c17 -44 41 -118 53
-165 23 -89 37 -258 23 -275 -4 -6 -38 -32 -74 -58 l-67 -47 -7 -59 c-8 -66
10 -171 28 -171 25 1 191 136 209 170 20 39 24 111 6 143 -12 22 -13 69 -2
120 6 27 7 27 19 10 37 -53 76 -147 90 -213 8 -41 17 -85 20 -97 5 -20 1 -23
-25 -23 -29 0 -30 -2 -30 -46 0 -116 39 -178 164 -259 45 -29 99 -72 121 -96
l40 -43 6 29 c12 54 9 159 -4 213 -21 78 -59 126 -132 164 l-64 33 -12 70
c-16 101 -61 236 -140 420 -38 89 -69 177 -69 195 0 46 -55 203 -101 288 -21
41 -67 110 -102 155 l-62 80 -6 -94 c-3 -52 -6 -84 -7 -72 -3 29 -53 223 -104
398 -124 424 -165 570 -163 573 1 1 22 -9 46 -22 46 -26 163 -58 173 -48 13
12 5 105 -12 150 -19 49 -78 135 -140 204 -19 21 -33 40 -31 42 2 2 65 0 139
-6 104 -7 155 -16 224 -39 49 -16 91 -28 93 -25 12 12 -13 126 -39 174 -15 30
-26 57 -23 60 3 3 5 0 5 -8 0 -7 28 12 63 42 34 29 81 69 105 87 l42 33 0
-204 c0 -198 -18 -410 -41 -492 -6 -21 -30 -60 -55 -86 -75 -80 -94 -172 -70
-340 30 -212 88 -335 176 -375 79 -36 164 2 192 84 13 40 13 198 0 246 -9 30
-9 30 -16 -15 -11 -64 -40 -126 -66 -140 -38 -21 -88 -3 -140 49 -70 70 -86
144 -54 252 19 62 94 219 105 219 4 0 11 -9 14 -20 11 -36 121 -117 229 -170
60 -30 127 -73 159 -101 75 -66 84 -65 93 17 16 152 -19 278 -95 347 l-39 35
57 21 c61 22 213 127 230 160 10 18 5 21 -67 45 -119 39 -200 56 -278 56 -59
0 -81 -5 -130 -30 -32 -16 -59 -30 -60 -30 0 0 5 37 13 83 42 261 45 486 9
709 -14 84 -28 182 -31 218 l-7 65 57 -85 c77 -114 145 -257 155 -328 21 -151
50 -197 154 -247 72 -34 184 -71 192 -62 8 7 -16 149 -33 197 -34 98 -114 157
-223 167 l-57 5 -12 59 c-28 140 -106 326 -208 504 l-46 80 -10 159 c-6 115
-6 166 2 184 l12 24 52 -55 c42 -45 321 -257 339 -257 9 0 8 84 -2 186 -13
125 -45 234 -89 299 -17 25 -31 48 -31 51 0 3 15 11 33 19 18 8 25 14 15 15
-30 0 -20 20 10 20 15 0 41 7 57 16 41 21 154 107 155 117 0 4 -13 16 -30 25
-35 20 -37 28 -12 36 48 16 172 179 172 226 0 18 -217 6 -288 -15 -58 -18
-127 -77 -143 -123 -9 -25 -17 -28 -112 -45 -56 -9 -115 -20 -130 -23 l-28 -7
3 54 3 54 48 9 c29 6 47 15 47 23 0 24 -28 70 -56 92 l-27 21 8 118 c3 64 8
119 10 120 2 2 22 6 44 9 23 3 44 10 47 14 3 5 -15 21 -40 37 -47 28 -55 50
-37 96 7 18 8 17 27 -5 32 -41 79 -68 169 -99 104 -37 115 -37 115 -6 0 48
-29 175 -49 215 -34 66 -107 113 -191 121 -30 3 -54 8 -52 13 1 4 2 31 2 60 0
76 8 84 60 63 23 -9 44 -15 47 -13 2 3 9 36 15 73 6 38 15 80 21 94 l10 26 71
-13 c71 -12 126 -16 126 -9 0 7 -70 178 -86 208 l-16 31 56 -7 c31 -3 75 -13
97 -20 l41 -14 -7 45 c-4 25 -9 52 -12 59 -3 9 0 12 9 9 19 -8 232 -34 237
-29 2 2 -8 28 -23 58 -52 106 -152 169 -233 147 -44 -12 -49 -9 -59 43 -7 38
-6 39 17 33 13 -4 78 -10 144 -13 l119 -7 -34 43 c-19 23 -45 55 -58 71 l-23
29 28 10 c179 66 177 65 149 119 -36 69 -141 125 -254 137 -85 9 -91 12 -57
34 24 16 40 18 83 13 53 -6 162 13 162 28 0 13 -60 59 -86 65 -13 3 -24 8 -24
11 0 2 29 42 65 88 36 45 65 87 65 93 0 18 -92 72 -155 91 -33 11 -88 22 -120
26 -45 6 -69 15 -96 38 l-36 31 108 65 c60 36 109 68 109 71 0 4 -216 70 -332
101 l-37 10 33 67 c19 37 37 77 40 90 l7 22 -143 0 c-125 0 -152 -3 -211 -24
l-68 -24 -8 21 c-10 27 -2 33 65 42 95 12 135 57 104 114 -29 56 -233 94 -380
71z m-2338 -627 c-2 -34 -7 -63 -10 -63 -4 0 -34 9 -67 19 l-60 19 -3 53 -3
54 73 -9 73 -9 -3 -64z m2316 -1415 c58 -33 59 -34 38 -147 l-11 -64 -63 -13
c-67 -14 -154 -50 -203 -85 -17 -12 -31 -20 -33 -18 -2 2 -8 56 -15 119 -7 63
-15 130 -18 149 l-6 33 107 -7 c58 -4 106 -5 106 -2 0 3 -4 16 -9 29 -4 13
-11 36 -15 52 l-7 29 38 -23 c21 -13 62 -37 91 -52z m-634 -141 c32 -198 32
-197 5 -197 -20 0 -21 -4 -16 -46 2 -25 19 -72 36 -105 17 -33 31 -61 31 -64
0 -12 -117 -3 -192 15 -45 11 -138 25 -207 32 l-124 12 5 133 5 134 40 37 c22
20 59 64 83 96 l43 59 21 -24 c12 -13 31 -33 44 -43 22 -19 22 -19 66 12 24
18 56 32 70 32 22 0 26 5 26 28 0 26 15 52 31 52 3 0 18 -73 33 -163z m890 20
c16 -12 17 -31 10 -245 l-7 -232 -49 0 c-26 0 -48 3 -48 8 1 31 32 186 44 221
11 29 16 79 16 152 0 60 4 109 8 109 5 0 16 -6 26 -13z m-1539 -429 c-20 -17
-20 -17 1 -40 19 -20 22 -40 28 -175 4 -84 9 -165 12 -181 l6 -28 -92 -17
c-51 -10 -95 -16 -97 -13 -3 3 9 26 26 52 32 48 34 59 31 152 -2 63 -43 228
-56 225 -5 -1 -21 -4 -36 -8 l-26 -7 -7 132 c-4 72 -3 135 1 139 5 4 34 17 64
28 30 11 78 34 105 50 l50 29 5 -160 c5 -152 4 -162 -15 -178z m-484 151 c4
-8 15 -87 24 -177 15 -159 15 -163 -4 -188 -11 -13 -22 -42 -26 -63 l-6 -39
-37 11 c-44 13 -302 16 -385 4 -54 -8 -57 -10 -53 -34 3 -13 10 -31 16 -38 9
-11 4 -15 -27 -20 -21 -3 -49 -8 -62 -11 l-24 -5 6 107 c4 59 7 124 7 144 0
34 5 40 53 72 56 38 154 128 180 166 l15 24 53 -42 c52 -41 108 -74 114 -68 2
2 9 51 15 109 l12 106 61 -22 c34 -13 65 -29 68 -36z m-928 -378 c-106 -91
-95 -73 -101 -175 -5 -94 16 -235 39 -263 9 -10 25 -1 81 48 38 34 70 60 71
58 2 -2 -1 -82 -7 -176 l-10 -173 -47 0 -48 0 -6 -42 c-4 -24 -1 -65 4 -91 11
-46 49 -119 71 -132 5 -3 10 -33 10 -67 l0 -61 -42 7 c-129 21 -270 36 -335
36 -40 0 -73 3 -73 7 0 4 34 88 75 187 158 383 195 517 201 716 l3 134 63 32
63 32 8 -27 c6 -21 2 -30 -20 -50z m1712 -56 c-3 -11 -9 -39 -12 -63 -5 -41
-5 -43 18 -38 54 11 200 28 205 23 3 -3 -2 -11 -12 -18 -110 -89 -181 -179
-198 -253 l-7 -29 80 6 c101 6 117 2 124 -33 6 -27 6 -27 58 -18 28 5 54 6 57
3 4 -4 12 -38 19 -77 6 -38 22 -92 36 -119 23 -47 23 -52 12 -116 -7 -38 -18
-108 -25 -156 -11 -79 -15 -89 -39 -101 -55 -29 -153 -110 -163 -135 -27 -71
5 -350 39 -336 14 5 14 3 2 -11 -13 -16 -12 -16 6 -7 11 6 29 21 40 33 11 12
33 31 48 42 l29 20 -4 -141 c-3 -154 -2 -152 -64 -132 -16 6 -78 12 -139 15
-60 3 -111 5 -112 6 -9 1 0 178 17 328 50 457 52 674 5 804 -49 134 -80 289
-101 501 l-6 68 46 -23 c39 -18 46 -26 41 -43z m1245 -5 c0 -35 -1 -35 -40
-12 l-30 19 22 11 c38 18 48 14 48 -18z m-2567 -203 c61 -47 192 -112 262
-132 94 -26 91 -24 69 -40 -18 -13 -18 -14 8 -24 26 -10 68 -74 68 -104 0 -8
13 -30 30 -48 16 -19 30 -38 30 -44 0 -5 -13 -34 -29 -62 -17 -30 -24 -53 -18
-53 7 0 39 11 71 25 33 13 63 22 68 19 10 -6 0 -194 -11 -206 -10 -12 -190
-13 -202 -1 -7 7 0 32 25 82 20 39 32 71 27 71 -5 0 -14 35 -20 78 -7 42 -15
92 -19 110 l-7 33 -48 -32 c-27 -17 -65 -52 -85 -77 -20 -25 -46 -56 -57 -69
l-20 -24 -72 108 c-39 59 -84 135 -100 168 -27 56 -29 66 -25 158 2 53 6 97 8
97 2 0 23 -15 47 -33z m1117 -191 l19 -67 -37 22 c-55 33 -56 35 -33 67 11 17
21 36 21 43 0 24 11 1 30 -65z m-89 -193 l137 -6 21 -126 c48 -284 61 -505 44
-788 l-6 -113 -25 7 c-22 5 -24 3 -20 -15 6 -23 -13 -32 -70 -32 -30 0 -32 -2
-26 -25 9 -37 -3 -30 -25 14 -11 21 -48 61 -83 89 -35 27 -87 72 -116 98 -51
46 -54 52 -57 104 -2 30 -1 92 2 138 l6 82 46 -26 c25 -15 75 -47 110 -72 35
-25 61 -40 57 -34 -4 7 -1 12 7 12 10 0 27 32 47 88 26 68 33 107 37 182 l4
95 -48 32 c-60 39 -159 89 -195 98 l-28 7 0 105 c0 104 0 105 23 99 12 -4 83
-9 158 -13z m1103 -98 c17 -13 17 -16 1 -67 -28 -85 -137 -359 -142 -355 -5 6
109 437 116 437 3 0 14 -7 25 -15z m396 -184 c0 -7 6 -11 15 -8 7 3 23 -2 34
-11 19 -15 22 -35 31 -197 6 -99 17 -292 26 -429 8 -137 13 -250 12 -251 -2
-2 -30 -16 -63 -33 -34 -17 -91 -54 -127 -83 l-67 -52 -7 -76 c-6 -69 3 -171
23 -240 6 -24 6 -24 -33 6 -21 17 -83 54 -137 81 -85 43 -103 56 -133 100 -19
28 -34 53 -34 55 0 3 20 38 45 78 l44 74 -32 12 c-46 17 -161 16 -204 -2 -20
-8 -39 -13 -42 -10 -6 7 -5 10 105 256 l89 196 47 -34 c86 -62 199 -91 298
-76 53 8 56 10 68 48 23 66 11 180 -24 245 -37 70 -126 159 -187 189 -27 13
-46 28 -44 35 2 6 19 55 37 108 l33 98 34 -21 34 -21 11 30 11 29 69 -41 c37
-22 68 -47 68 -55z m-1985 -146 l-7 -84 -34 22 c-40 26 -43 37 -9 37 22 0 24
3 15 20 -8 15 -5 29 12 64 13 24 25 39 27 34 2 -5 0 -47 -4 -93z m-1278 -332
l33 -25 -38 -43 c-21 -24 -55 -76 -75 -115 l-37 -72 0 181 0 181 43 -41 c23
-23 57 -53 74 -66z m1253 -124 c0 -24 -13 -24 -51 -2 -39 23 -37 29 11 25 31
-3 40 -8 40 -23z m-1145 -246 c-5 -10 -13 -37 -19 -60 l-12 -43 -36 49 -37 49
32 10 c18 5 43 10 56 11 18 1 22 -3 16 -16z m-98 -68 c26 -103 9 -165 -47
-165 -40 0 -57 36 -62 124 l-3 69 35 13 c53 19 62 14 77 -41z m1231 10 c-2
-25 -5 -44 -8 -42 -73 36 -130 69 -130 73 0 3 14 3 30 -1 19 -4 30 -3 30 4 0
6 18 11 40 11 l40 0 -2 -45z m633 -93 c24 -78 83 -158 139 -187 22 -11 32 -29
48 -81 l20 -66 -26 -24 c-39 -34 -102 -78 -106 -73 -2 2 -22 94 -45 204 -47
224 -62 293 -68 315 -4 13 -4 13 6 0 6 -8 20 -48 32 -88z m-921 -147 c57 -13
100 -15 178 -10 l102 7 0 -259 0 -258 -41 -13 c-53 -16 -163 -84 -238 -147
-59 -49 -60 -50 -67 -114 -13 -122 20 -381 48 -381 5 0 6 -6 2 -12 -10 -16 11
0 96 73 36 30 85 70 110 89 25 18 59 47 77 63 l31 29 5 -43 c3 -24 11 -93 17
-154 14 -125 46 -333 56 -360 6 -14 3 -16 -12 -11 -11 3 -61 7 -111 8 l-92 2
-65 100 c-35 56 -101 145 -146 199 l-81 98 -25 112 c-34 149 -102 477 -115
552 -14 78 -26 216 -19 213 3 -2 34 -18 69 -36 34 -18 64 -32 66 -30 8 9 37
107 41 142 3 23 1 70 -4 104 l-9 64 26 -6 c14 -3 60 -13 101 -21z m1208 -103
l62 -18 -56 -27 c-31 -16 -58 -26 -60 -25 -5 5 -17 88 -13 88 2 -1 32 -9 67
-18z m-79 -622 c0 -3 -6 -34 -13 -70 l-13 -65 -7 40 c-16 95 -16 100 10 100
13 0 24 -2 23 -5z m540 -460 c34 -113 64 -212 67 -221 4 -14 -3 -13 -41 7 -25
12 -70 28 -100 34 l-53 11 9 32 c16 54 39 228 39 302 0 45 4 65 9 55 5 -8 37
-107 70 -220z m-194 98 c-14 -152 -74 -311 -127 -339 -38 -21 -89 51 -142 203
-50 139 -53 164 -17 103 35 -58 65 -95 78 -95 5 0 53 45 108 100 55 55 101
100 104 100 2 0 0 -33 -4 -72z m-1104 -654 l76 -7 32 -101 c17 -55 31 -104 31
-109 0 -4 -21 4 -48 18 -26 13 -72 29 -101 35 -30 6 -55 11 -57 13 -1 1 -13
40 -27 86 l-26 83 22 -6 c12 -3 56 -9 98 -12z m1746 -256 c-25 -16 -35 -7 -39
33 l-4 42 28 -34 c20 -24 24 -35 15 -41z"/>
</g>
</svg>
